/* XPM */
static char *_2fb317ee3a3467db89e77e1c3e82552DltiyDaKEg05OzIi[] = {
/* columns rows colors chars-per-pixel */
"50 50 37 1 ",
"  c #072D05",
". c #0A2F07",
"X c #0C2E09",
"o c #112E0C",
"O c #073504",
"+ c #0B3506",
"@ c #073B05",
"# c #0B3B06",
"$ c #0D3509",
"% c #0D3C09",
"& c #103207",
"* c #103C07",
"= c #11350B",
"- c #123C0B",
"; c #193D0E",
": c #133410",
"> c #1C3711",
", c #153E10",
"< c #1C3C11",
"1 c #213F15",
"2 c #0C4207",
"3 c #0E4B07",
"4 c #0E4209",
"5 c #0E4909",
"6 c #114407",
"7 c #114D07",
"8 c #12430B",
"9 c #19430E",
"0 c #134A0B",
"q c #194B0C",
"w c #105107",
"e c #14510B",
"r c #1A520E",
"t c #154211",
"y c #1A4211",
"u c #154A11",
"i c #1B4A11",
/* pixels */
"888*40224*%@44@%;%+$004%$:$t4@-,-88-$&8%@2%-424444",
"-886*2220$-$t%*9=-O++%@%$:,-+@4---68++@$4$%84@4%2,",
"-===$+@@2-8-$$*8i=4#8%+$-%4-424+%852@-=#@%&%,t%44%",
"-%t:$++$*8-#@@%%t8$#%2%%%--%2%@O6##$*$==%%%8tt,%:,",
"yy%t8-%*#$*222#8%884%4#-%%-%8$%44%%=$$=&=22688,,ty",
"i=$%;8$-==@#225u-u4%4%,-*%%8%,4:X,:-,++$=%2e0q-t-i",
"q8%,:+t$--$-#@4%%%##4%%,8*8t%@%%%,%:,$$%8tqe9t4488",
"q6$-4@$$-%$%2#%@=842%484988%4@%$$:%$$+-%.*7q444450",
"60-8-=**02+$+%@%@44@484%-4%-44%%+$%4%-;-=-9e4@%,80",
"6e-*4@4424==%+@;$:t,%-t--==$++@5#%*===y=%446@46yt4",
"00=%@44%%*%$&=@2%tttt$:9%%,=-+%%*;@%--y-66---5t,**",
"68-@%,8$-=$+$=*#20t,,4tii,%-i:@-=;82-itt0626864y<8",
"60*%t$$,&==.$-,837q9%-8ry-8:9%:%%-988280225454$,;-",
"*6*@$--%::%=%$=ie098408qq%-;+%,@49888%2225%$$@#8--",
"=38*%+$-%%%=t$X45u@5*8060%$8*$%86%*8=#%@2eu4u44%+-",
"8*@*4%+%**%:-8-850@@8y5808%8-@%%,*08%$%22%%%%4%4%-",
"89##2%%-%==--#588823-92870;4@$@*,8*8$+#64#%-u24484",
"%,%#4%-%@%-iy9%*=-60y<;66%&@@55-=-*0@++$@%=%4$%44#",
"8$,=%%--8%tt88432406t>;808&+%22@@-82#===%%*%,44$,-",
";%t<:%@988*80245886%%*=8068+%-%+84@&*%+=-@46ttt,-:",
"9y=*89%t88*82@30%%%@#*;%#2$+-,%%,%=-=%$$&##20uy,@y",
"98$,:=$%=*%%@+422#%55%=-05+=$$4%X%,$=$ %*86wqq,4-i",
"00%%-+%,X-=$@-@2%%%8@+#4#2%,@@@:,%%::$$-%,ie8t4508",
"q4--8%+*%-<+$92@#%=##4u4$&$,@#4$.$,%%%=-$=07824%40",
"808*9%=8-%2@$+2#4@u8%44t#8$$%448%$8%=*,-=-%00@%-y4",
"876=5@%**05+=$=@%$$%4,$48*;-$+%@+%=+--y,22%-%#0-8#",
"02*+#%+24@%-$=-*,@,tt,$%=$%-:=+$%;%4$ty-668-;261,=",
"908=:%%8#==$%$==224utt,%y;y--8*%%;82=8898052664t<-",
"86-%%4%$%:==+X$-440qq,t-ii,$4:-$$=0-8-45442#82%-;-",
"-68@@$:$%::=$$%%tr3004289q8%,=+t%-888442258#%+@4;-",
"*72@%%$@$,,%+:*$teet%2#300#,%%%%----$=+@@254@#22+=",
"%4#8*4-+%4#--=-=%4e0@%-9200-*;=@%8,%y=$X+@2#@52+O5",
"#+=4#24%-%-=-y;@#60#@0-t46e8%2%@@=8t8-9$%%2#58=%%u",
"%9i8-%4@;%$%-y-4@;;-38;8860$+242@8;8@+9@%@=$@844%8",
"%4#-$$-$%4ttiti823%86ty<8q2=+%@52042%--$%@=%,4%$+%",
"@+=%%$&$##6u%-8225402%,:-068$$4#44+%-%+$&%4%u,%%4t",
"8=-=++=-%27i0-%85-%*+@6--*8*++44%8%;=$$$&%#24,,4%$",
"-:o,$$4%tr70i%0t524%@26=-*32@=%-o$yX=-.$-,83e*@%:=",
"=-:%$-$X8q048642804882##844#=*@%,%%::,$-%-i788@%$%",
"-%4%==8=80u4@8-8608---#=*++=*%-*++-%%%$-$$4004*-%+",
"*%%=:y=@%80#@8y8*6w**8+@%%--+%@4%$*%%-:-*-8024@%8@",
"-%$-yy*58*-*78;*600=$22@28-4%4$44%-%==y;%28*%#@4#%",
"-8%%qt906288881>888=@@225u4uu2%4%-=2%*iy868*,44%--",
"888-8808522844:-8668+=8@2@404%4%-*8%88888025%%%8%%",
"89*887222%%%@$8;-868$$8@#@84#44248t48*802--%#@8%48",
"=84%*%@@04%+@46=-82#+$+%$%8u@5t*66888%#248t:%%*4%4",
"*===:8%+42#222@@*40@-=$*@$84O#;y4678*8%@%%4,%%%24$",
"*%%*-9=424@5*%+*4@$=%+$=-24-50-84878=22##%t%%%#42$",
"-4#-i,98%@28,$404%9=4%%$%#%-08<<-06%$@%320t8u#%4%,",
"948=480258@@%-52@;==q4%#444504,<-968%$%222%%844%%%"
};
