/* XPM */
static char *_fec06eb76c74d0ab4715c82009ebb46VlhvdDfUgtiZ4Os9[] = {
/* columns rows colors chars-per-pixel */
"49 50 172 2 ",
"   c #2C3421",
".  c #32322D",
"X  c #3A3D2F",
"o  c #363632",
"O  c #393732",
"+  c #373D30",
"@  c #3A3A36",
"#  c #373A3A",
"$  c #3D3D3B",
"%  c #413F3A",
"&  c #39442E",
"*  c #3D4335",
"=  c #3F4834",
"-  c #3F413D",
";  c #424D35",
":  c #42423D",
">  c #48473F",
",  c #444A3C",
"<  c #465237",
"1  c #49553C",
"2  c #4A5A3C",
"3  c #403F40",
"4  c #3F4241",
"5  c #444542",
"6  c #494744",
"7  c #464A44",
"8  c #4A4A45",
"9  c #4A4749",
"0  c #454949",
"q  c #4C4C4A",
"w  c #514E4C",
"e  c #475342",
"r  c #4C5344",
"t  c #4E5A44",
"y  c #4E514C",
"u  c #4F5948",
"i  c #505546",
"p  c #515B46",
"a  c #52524D",
"s  c #535B4C",
"d  c #585C4F",
"f  c #504F51",
"g  c #4F5250",
"h  c #545452",
"j  c #595754",
"k  c #565A54",
"l  c #595B55",
"z  c #575759",
"x  c #565B59",
"c  c #5B5D5A",
"v  c #605F5B",
"b  c #4E6142",
"n  c #536046",
"m  c #566844",
"M  c #54624B",
"N  c #58644B",
"B  c #5C6A4D",
"V  c #587147",
"C  c #576151",
"Z  c #5B6354",
"A  c #5C6B54",
"S  c #576259",
"D  c #5C625D",
"F  c #5E6B5C",
"G  c #5D725B",
"H  c #616C55",
"J  c #62625D",
"K  c #636C5B",
"L  c #6A6D5C",
"P  c #607150",
"I  c #63745B",
"U  c #677C5B",
"Y  c #6B7A5C",
"T  c #5C5D64",
"R  c #5C5E68",
"E  c #615F71",
"W  c #5D6563",
"Q  c #5E6964",
"!  c #5F6569",
"~  c #5F6A6A",
"^  c #5F7261",
"/  c #636563",
"(  c #696663",
")  c #636A65",
"_  c #6A6B65",
"`  c #62656C",
"'  c #646C6B",
"]  c #6A6D6C",
"[  c #706E64",
"{  c #647365",
"}  c #6A7564",
"|  c #647862",
" . c #6D7A62",
".. c #66726C",
"X. c #6A736D",
"o. c #6C7A6D",
"O. c #737367",
"+. c #717B66",
"@. c #73736C",
"#. c #727C6D",
"$. c #7A7A6E",
"%. c #646672",
"&. c #666C72",
"*. c #6A6E73",
"=. c #6C6D79",
"-. c #706E7C",
";. c #667171",
":. c #6B7473",
">. c #6E7975",
",. c #6E747A",
"<. c #6E7979",
"1. c #727674",
"2. c #787672",
"3. c #737A75",
"4. c #7B7B74",
"5. c #71767B",
"6. c #747B7B",
"7. c #7A7E7C",
"8. c #807F74",
"9. c #6A825B",
"0. c #748567",
"q. c #788664",
"w. c #74836D",
"e. c #7C886D",
"r. c #758273",
"t. c #7B8474",
"y. c #778872",
"u. c #7D8A75",
"i. c #76817C",
"p. c #7B837C",
"a. c #818175",
"s. c #888777",
"d. c #818E77",
"f. c #83857D",
"g. c #888679",
"h. c #848A7B",
"j. c #8B8C7D",
"k. c #879774",
"l. c #85937C",
"z. c #8A937C",
"x. c #8C987F",
"c. c #737481",
"v. c #757B81",
"b. c #797D83",
"n. c #797D89",
"m. c #768080",
"M. c #7C8382",
"N. c #7F8983",
"B. c #838682",
"V. c #898781",
"C. c #858A84",
"Z. c #8A8D84",
"A. c #83848A",
"S. c #858B89",
"D. c #8B8E8A",
"F. c #879383",
"G. c #8D9285",
"H. c #86908A",
"J. c #8C918A",
"K. c #919385",
"L. c #989D87",
"P. c #93958B",
"I. c #95998C",
"U. c #9B9C8E",
"Y. c #888C90",
"T. c #949692",
"R. c #969993",
"E. c #9B9C94",
"W. c #9D9F99",
"Q. c #A09F8F",
"!. c #9FA096",
"~. c #A0A098",
/* pixels */
"4 0 0 5 5 5 : 5 : 7 , 7 7 , q 8 : - @ @ % 6 > @ O 9 j j j j a : , r r > : : y q # $ 0 0 0 9 0 7 7 ",
"' 4.f.f.g.g.f.a k +.Y  .Y Y D 5 ( @.4.f.K.V.V.q 8 D.D.P.V.Z.Z.M B j.Z.K.s.j.U.p.5 1.C.p.C.J.K.D.M.",
"R.R.T.T.C.h.C.a } p.w.w.U 9.} h D.E.P.A.A.-.2.h J D.A.6.:.5.o.8 D C.C.B.r.>.M.:.q 0.0.p.N.S.S.C.7.",
"S.<.c.,.=.' Q r F ^ ^ G G | ) q 1.b.n.c.%.` ` s v 6.;.' &...Q q D ......] Q ~ D y I G 3.<.,.' ~ ! ",
"M.&.5.c.5.:._ q S } >.w.3.>.J 6 _ ,.-.=.E %.*.a k ' ~ =.,.' ) h D Q Q :.b.&.' c 7 ' ~ &.%.&.;.../ ",
":./ *.,.-.] ( 6 S ] } _ _ _ J w D ) / ( ` ( v 6 0 Q ` / ` ` / 8 0 W W ~ ] / ' c 4 Q ' T R R ` ) l ",
"k h q 8 8 8 6 - a z a q a j w 6 $ 5 8 w h q q 0 0 0 5 : - $ - - - 4 : - 4 - 4 $ # 5 0 0 9 q g q q ",
"J.C.f.J % v 4.4.f.V.f.V.( c @.@.[ 4.V.B.j v B.Z.Z.C.j.C.x # I t.f.t.r.7.g q 1.3.3.2.1.4.1.q 5.S.F.",
"S.S.N.' % f.~.I.P.E.Q.I.) ] D.C.P.E.T.A.c B.M.>.5.<.<.<.W q p.r.m.C.H.H.W ) F.S.A.D.S.N.6.q M.Y.S.",
";.&.&.c 6 X.1.>.1.>.3.] r k ;.&.=.,.3.) w 3.~ &.,.,.;.,.k q ;.,.M.c.,...h S w.m.>.5.6.;.Q 0 :.:.,.",
"=.' ;.D 8 1.5.3.<.:.' W , t ' =.=.&.,./ 6 X.;.&.c.5.>.<.k 0 ~ ..6.v.;.' y l >.;.%.E %.&.W 9 ;...&.",
"] ' ] D 8 6.3.] *.] A M e Z X.,.*.] ] v e A ..' ` *.*.( s 0 F V K ] ) _ p t { Q ! R R ' c 7 ' ] ' ",
"6 0 5 % 6 6 6 q a s m 2 & 8 D D h q i w u b k g y r r 7 0 0 5 : 6 q w i e r q 6 q q q r 5 5 9 q 9 ",
"$ % j c ( J J D L Z m H K L $.4.2.2.d L 3.r.4.4.w.A e s D c x g i a 6 e s Z j w h j q f c c k y q ",
"c 1.E.T.T.E.E.P.D.A B x.L.K.z.G.E.P.J M.H.N.i.p.y.G t e.u.F.J.H.u.r.a d z.K.I.K.G.B.z 1.D.V.V.C.Z.",
"z 1.6.3.7.7.b.7.X.t B p.3.1.F Q X.) a { | <.....I n t | { i.m.6.X...s A G.C.S.M.M.6.h ] :.:.6.6.b.",
"a ] ' ' <.5.5.' ! i k 6.:.} } o.) / k ..' ..) W F n t G { i.m.5.;.] q J i.6.M.7.<.X.q ' >.M.B.b.7.",
"8 F ] ] ,.1.3.] ) a k 3.} { I ) ] _ c ..' _ ' ] } 2 2 G ..:.,.,.*.( w D <.5.n.5.:.' w / 1.7.7.M.7.",
"; y h h j d s j l q q l k S l l j h 6 q j j a a a , : h c / T c j j 6 h W c c W c c 6 q c c Z n p ",
"p D l i * : j l j s h s a q J @.@.@.@.( 8 : v _ [ @.@.@.] j 6 5 5 : 5 w q 9 q q h h 9 $ % : ; 1 1 ",
"z.G.J.C., ( E.Z.Z.D.K.z.t.c T.E.E.E.P.P.) J W.E.W.E.T.P.P.j ( V.j.K.K.I.f.g p.P.P.T.P.J.B.r A G.z.",
"r.r.i.>.5 D o.W ' ' ..X.) J p.5.v.v.>.} l J C.S.N.7.<.b.,.6 @.S.H.H.Z.C.r.y 4.p.N.B.7.5.7.h F u.3.",
"{ ) ' ' : h ) W ` ! ' ../ ) 6.:.b.A.p.:.i J p.4.:.>.b.m.X.6 ' 7.5.m.<.<.' y o.o.6.5.&.! ] q S I A ",
"....Q _ , 7 ..Q S ' ;...) D >.X.X.:.o.' j J >...] ,.,.5._ 8 ] >.,.<.<.<.` h :...=.=.&.Q ' q D o.U ",
"Z J P B : * s C s Z / / l h W D l j h j q s D c c T c c a 5 D ] *.;.] ' v 9 ! ) / / ` c c 5 0 F Z ",
"o @ = @ @ o   X : 7 q 0 7 h 9 5 : : 6 8 h j k a 5 r J ) ( ( X.) q 6 h j k j h l j 9 h h a q y k y ",
"@ ] 4.4.4.a.$.H 7 _ C.C.C.Z.D.] 6 1.D.Z.f.8.f.7.s s Z.C.p.p.f.B.h D S.M.u.C.C.S.1.9 f.B.C.C.C.C.C.",
"7 z.P.V.p.A.C.1.6 #.P.Z.D.D.T.7.a J.C.3.` ` ! Q s d 7...D ~ ] Q 7 ' J.S.m.m.7.;.T 0 B.;.,.5.c.<.>.",
"q #.X.x ) ] &.S : 1.p.' &.=.>.` w 1.) W ' ` / / i S i...Q ' ;.' 6 D p.m.,.,.;.! x y 7.' %.=.,.,.~ ",
"a >.X.' ] 3.5.;.: 6.M.' ' &.:.' 8 J W ) ' ' ' ) h h >.' Q ] ;.;.6 h ~ ~ &.&.! ~ D g <.! ! %.` ~ ~ ",
"q W W k k K ' J 0 W X.! ` ' ] ( : r D D c c j a : 5 x h h l D c : $ 0 y g T x k g q W S c z c z c ",
"z h 9 : 5 7 : $ @ 4 q w h a w 8 % O : @ X @ @ @ 5 9 r 6 $ @ % 8 a r q q q 5 - 4 0 0 0 $ $ 3 3 % 7 ",
"T.P.Z.Z.[ 5 / 2.2.2.f.V.B.a q 4.4.a.g.g._ O k C.j.K.J.Z.C./ - p.K.K.j.z.G.X.k d.t.t.u.p.C.C.z ] P.",
"6.1.2.2./ 6 2.C.f.7.>.] :.h _ W.p.4.V.J.7.: :.J.p.i.p.B.N.W : p.S.p.D 1.M.;.D y.r.r.y.i.p.7.z 8.p.",
"` ] ` T v 8 ] 5.,.%.! c W w @.B.) ' X.) J : L 6.:.:.<.>.:.s % X.>.) Q ..>.C u w.o.:.....6.' w 1.' ",
"1.] ' ( T w / ] ] ` R T W f _ 6.:.,.:.) F ; B { o.n.M.5.5.c : / W ..;...^ M u ^ G ^ ~ :.] D q ] ' ",
"( / / ( / 9 v T / R R / ` h c 1.] &.] K A < 2 A { :.5.>.:.d % W ) X.3.>.} M e M M A F D D k q D / ",
"9 q 5 % % 3 5 5 8 w f h w : : 6 6 5 8 i 2 < < ; , 5 5 5 O o @ $ $ $ : 8 8 ; + + = : 4 4 @ $ 0 0 6 ",
"f 9 j ( [ [ @.@.[ ] w q J ( _ ( L ( J 7 } q.e.a.g.p.y o a @.O.[ ( J j * * t u r g x k 4 $ a c c l ",
"V.c M.E.D.K.Z.Z.Z.f.l l R.R.P.J.B.r.@.k J.J.C.S.A.C./ - C.P.K.K.j.h.f.k s G.l.l.F.H.C.h ' D.C.D.F.",
"` j B.C._ *.` W T ( h v V.p.p.r.' W D h 7.;.] :.M.A.) 6 ;.W &.:.! W W 8 D C.7.6.<.:.>.y ) >.5.i.5.",
"/ w 7.S.5.5.5.) ) ` a J #.A o.o.{ ' ) q ..W ] b.Y.A./ 6 ' W ] 5.=.Q Q : x :.,.v.&.~ ;.q x ..] { A ",
"_ w 3.M.] %.` ` _ ] j N U B A I ) ) J q ' ' ) >.5.o.D 5 D W W ] *.' ) * C Q :.n.<.! ' h x ' W A A ",
"k 9 q t 8 a h a h w 8 r M p s t r 6 : % 6 q 6 5 5 : - @ - - 7 y r 5 - . * u x c z z k 9 q y s M p ",
"O.@.4.$.) 5 5 k k k x F A N r B I O.X._ ] 7 $ h ( ( } _ ..J : : s 8 7 : : @ O 5 q y y h q - = 2 Z ",
"P.I.J.D.A.q / R.U.E.!.L.k.0.N l.F.R.U.Z.M.h q P.G.Z.Z.K.V.M.5 J J.Z.K.K.I.p.: V.J.J.K.I.J.F.C A I.",
"<.7.:.&.:.q ] J.p.6.i.u.w.) l p.3.r.5.! ! q 6 :.W ' *.,.' W : / i.<.b.m.<.) q 3.<.:.&.;.7.r.C K N.",
":.;.&.~ ] w _ p...) >.;.:.c j r...;.&.` ` w 7 ' Q 3.3.1...K : / >.:.5.b.:.D q Q &.&.%.&.:.:.a ..i.",
";.~ ] ' *.a c :.] 1.5.X.] D w 3.&.&.&.&.&.w q ' :.6.1.:.1.) : ( ..Q >.6.;.W 6 ) ' =.=.=.I I q ) 7.",
"k x c c c q q S Z D D J / l y ' / x h h a : : h l c c l l w % l Q D ) ) D k 7 k k T / T N N 6 q c "
};
