/* XPM */
static char *_9b53956c5544100e6a27b88938ec2bcw3XcDl0l0tnwklBx[] = {
/* columns rows colors chars-per-pixel */
"49 50 202 2 ",
"   c #262C1C",
".  c #28311C",
"X  c #262622",
"o  c #2A2A27",
"O  c #322F2B",
"+  c #34342E",
"@  c #38362F",
"#  c #373A2E",
"$  c #353632",
"%  c #383732",
"&  c #3B3B35",
"*  c #3D3D3A",
"=  c #413F3B",
"-  c #3A412F",
";  c #3D4531",
":  c #3E4B30",
">  c #3E413C",
",  c #3F4838",
"<  c #415207",
"1  c #445509",
"2  c #465A09",
"3  c #4A5D0A",
"4  c #4C5C13",
"5  c #4A571E",
"6  c #4D5D1A",
"7  c #525F19",
"8  c #4E6207",
"9  c #4E620A",
"0  c #52650B",
"q  c #556A0B",
"w  c #596D0B",
"e  c #5B720C",
"r  c #4E6113",
"t  c #4F611A",
"y  c #526414",
"u  c #556912",
"i  c #5A6C14",
"p  c #52641A",
"a  c #56691C",
"s  c #596D1B",
"d  c #5C7114",
"f  c #607612",
"g  c #42432D",
"h  c #4E5E21",
"j  c #434732",
"k  c #454A33",
"l  c #4A4D35",
"z  c #43433D",
"x  c #464A3B",
"c  c #4A4D3A",
"v  c #435234",
"b  c #4A5139",
"n  c #4C523C",
"m  c #4E5A3D",
"M  c #51553E",
"N  c #4F6121",
"B  c #546521",
"V  c #566921",
"C  c #596A24",
"Z  c #55642B",
"A  c #5A692A",
"S  c #5E7127",
"D  c #596532",
"F  c #5E6D32",
"G  c #5C6C3A",
"H  c #606D28",
"J  c #607327",
"K  c #647436",
"L  c #423F42",
"P  c #454442",
"I  c #494743",
"U  c #464845",
"Y  c #4B4A45",
"T  c #474749",
"R  c #4C4C4A",
"E  c #504E4A",
"W  c #465043",
"Q  c #4D5444",
"!  c #4E5941",
"~  c #4E514C",
"^  c #4E5C49",
"/  c #525542",
"(  c #535A44",
")  c #52534D",
"_  c #535B4A",
"`  c #4E4F51",
"'  c #504E52",
"]  c #4F5150",
"[  c #545552",
"{  c #595754",
"}  c #555954",
"|  c #595A55",
" . c #575859",
".. c #5C5D5A",
"X. c #605F5D",
"o. c #4F614A",
"O. c #526446",
"+. c #5D6C45",
"@. c #54634B",
"#. c #596C4C",
"$. c #566052",
"%. c #5C6252",
"&. c #5C6C53",
"*. c #57615E",
"=. c #5C625D",
"-. c #5F6D5E",
";. c #5C7152",
":. c #62635E",
">. c #636C5C",
",. c #63715C",
"<. c #6B7658",
"1. c #5C5E63",
"2. c #5C6462",
"3. c #5E6A64",
"4. c #5E6569",
"5. c #5F6B6A",
"6. c #626563",
"7. c #686766",
"8. c #626A65",
"9. c #6B6C65",
"0. c #62656B",
"q. c #646C6B",
"w. c #6A6D6C",
"e. c #716F61",
"r. c #647165",
"t. c #6A7264",
"y. c #6D7B65",
"u. c #66716C",
"i. c #6A736D",
"p. c #6C7969",
"a. c #737164",
"s. c #72736C",
"d. c #7A7F6F",
"f. c #666B71",
"g. c #6A6D72",
"h. c #706F74",
"j. c #6C7473",
"k. c #6E7975",
"l. c #6E757A",
"z. c #6E797A",
"x. c #747573",
"c. c #797772",
"v. c #737A75",
"b. c #797C75",
"n. c #72767A",
"m. c #787778",
"M. c #747C7B",
"N. c #7A7D7B",
"B. c #6F806B",
"V. c #768667",
"C. c #73816C",
"Z. c #7B8A6D",
"A. c #748174",
"S. c #7D8376",
"D. c #7E8B76",
"F. c #76817E",
"G. c #7C827C",
"H. c #7E8979",
"J. c #80936E",
"K. c #818176",
"L. c #81847C",
"P. c #898778",
"I. c #848A7D",
"U. c #8C8D7E",
"Y. c #899774",
"T. c #85917D",
"R. c #8C957D",
"E. c #8E987E",
"W. c #767D80",
"Q. c #797D83",
"!. c #778280",
"~. c #7C8383",
"^. c #7F8883",
"/. c #7E8488",
"(. c #818682",
"). c #858B84",
"_. c #8B8D84",
"`. c #858B8A",
"'. c #8B8E8A",
"]. c #879284",
"[. c #8E9286",
"{. c #8D918C",
"}. c #929485",
"|. c #959A83",
" X c #9B9A86",
".X c #93958A",
"XX c #96998D",
"oX c #9B9B8B",
"OX c #888C90",
"+X c #8E9491",
"@X c #939591",
"#X c #969994",
"$X c #9C9D93",
"%X c #9D9F99",
"&X c #A09F8C",
"*X c #A09F90",
"=X c #9CA183",
"-X c #9FA095",
";X c #A4A38D",
":X c #A3A295",
">X c #A4A49A",
",X c #A9A9A0",
/* pixels */
"p h y a u 4 4 K F V s r V G V f i t +.G A S d A s s u t p Z G B D H B s G D 6 5 9 C G F 6 C J K A ",
"4 4 u u q r y r 9 a 4 y F r e i 4 4 Z i u q w q q u t t y p Z r i p 0 s C y 7 4 u B 7 4 A i i u i ",
"3 9 u u 9 9 9 0 C N 9 y a q e 0 0 y w w u 0 w 8 q y y 9 4 6 3 0 7 0 w i p y 3 y i 3 7 7 i 0 0 q 0 ",
"9 r q 9 9 0 0 p t 9 y e 0 9 w 0 0 q q 9 0 q 0 9 0 9 q 2 3 3 9 9 r q u 0 D q q w 2 3 8 0 0 w 0 3 0 ",
"2 q 0 3 9 q 3 6 r 0 u 0 8 w 0 8 0 q 9 q w 3 q 0 0 3 3 2 9 3 9 q 0 0 0 r p w w 0 2 0 0 q w 0 3 q 9 ",
"9 q 9 9 q 3 2 2 9 9 9 9 w w 8 q q 0 e q 9 0 0 0 3 2 3 0 9 3 9 0 8 0 q 8 8 w 0 3 0 2 0 0 0 8 q < 2 ",
"9 9 q 9 0 3 3 9 q 3 9 w q 8 0 w q e e 2 9 0 q 0 2 0 0 3 9 8 0 0 w w w 3 3 0 3 8 3 9 q 9 0 q 2 2 e ",
"q q 9 0 q 9 r 9 0 2 0 e 9 9 0 0 w e 0 2 9 0 w q 2 w 9 0 9 q w 9 w w 3 3 0 w w 2 9 q 3 0 q 3 < q w ",
"q q 2 9 0 3 9 2 9 0 e q 3 8 0 0 0 q 8 8 0 0 0 3 3 w 0 0 0 q 8 8 w w 3 3 w e 0 8 8 0 0 0 3 < 0 w 0 ",
"q 9 q q 2 2 2 9 w 8 0 9 3 3 q 8 8 w 3 0 0 0 0 3 8 w 0 0 q 0 q q 0 3 2 8 0 0 w 8 9 0 8 0 2 1 w w q ",
"q q 9 2 3 9 9 w 0 9 9 2 2 q 0 2 w 0 3 3 0 8 1 3 w e q q q 0 q q w 8 3 3 3 0 0 8 w 8 3 0 3 0 0 w 3 ",
"q 8 2 2 8 q 0 8 w 9 8 < 2 q 0 w w 0 3 0 0 3 < w 0 0 q q q 8 0 w 0 3 3 3 0 0 0 0 0 3 8 8 3 0 0 q 3 ",
"q 9 9 9 0 w 9 9 w 9 9 2 3 0 0 q 0 8 3 0 q 4 3 0 9 w w q 0 0 q q 0 0 3 8 w w w w 3 3 w 3 2 0 w 0 i ",
": ; b k g n l k k j c / x x n Q M ( ( M / c M M j l l j l k g g j l j l M M ( ) / M M c x c c M ( ",
"! } *.| R z > z ~ | ` ' R R ) ~ R T E 6.h.n.m.Q.h.h.X.I L E X.s.m.h.m.n.c.h.0. .E L = L P * T ` R ",
"J.E.[.[.[.9.+ v.:X$XXXXXXXoX|.E.}.{ w.*X%X*X*X*X*X.X%Xe.z .X>X;X,X*X*X*X*X*X@X{ E c.K.P.P.K._.{.L.",
"].).H.^.G.8.@ N.G.u.j.z.x.v.A.A.b.[ i..XF.~.`./.M.p.C.:.R {.).'.{.{.(.n.M.M.x.I 6.#X}.oX=X-X X XXX",
"k.u.z.A.x.=.@ i.3...*.2.2.3.5.r.u.[ i.F.j.n.W.n.b.u.t.{ ) L.G.{.H.M.l.W.Q.!.w.P :.N.z.~.~.!.!.!.k.",
"r.r.8.3.w...+ 2.8.3.5.f.f.4.q.u.i.{ x.M.j.M.`.).^.F.u.E R ^.M.G.z.w.W.Q.Q.N.7.U :.M.F.M.W.W.M.M.k.",
"u.r.5.2.w.| # } r.8.3.2.4.f.u.u.9.{ i.z.q.i.k.k.u.i.8.E | b.q.u.f.g.l.n.z.z.6.P =.k.j.z.l.l.z.l.i.",
"t.9.w.,.t.} # W 3.u.o.o.3.g.q.w.9.) 2.z.q.q.6.q.w.9.7.[ | i.i.u.7.f.g.g.j.w.:.P 6.v.M.z.z.z.n.j.f.",
"_ } %.+.+.Y % z v ( | } _ =.X.....R [ *.| } ) E E Y E Y E ..} } { |  . .[ E Y > [ 3.2.0.0.0.6.1.2.",
"$ $ + # # O @ O   . # x P P T > * R [ P z P P = = P L Y E Y E R z x / :.6.s.9.w.i.s.:.P P P R [ ) ",
"$ P 6.>.9.a.s.t.9.%.^ * | v.M.b.N.G.N.N.w.P I 6.U._.}.}._._.}.).$.x :..XXXXX.X|..X.X@X} I (.).).Z.",
"$ c.,X*X*XXX}.*XoX.Xp.> i.:X$X-X>X$X%X,X@X| ) #X$X'.(.i.q.g.q.q.,.c 8.H.k.7.*.5.u.5.5.R } +X`.`.^.",
"z >.R.(.n.j.x.M.n.z.| > i.].F.N.N.Q.Q.(.N. .) '.M.x.u.6.0.4.2.8.=.x i.F.j.q.2.q.j.u.8.U ] `.^.`.^.",
"P 8.H.8. .2.q.q.f.2.^ > i.'.z.q.g.j.l.j.j.[ E N.8.8.6.q.4.4.0.8.%.c i.F.i.r.5.q.f.u.q.U R !.M.~.n.",
"P 6.F.q.3.0.q.j.l.z.} + x.@Xj.7.q.q.g.j.g.[ z w.*.2.3.u.5.q.2.6.:.I q.z.u.5.5.5.q.5.q.U T i.2.5.f.",
"T ..k.q.8.q.i.A.!.M.0.* q.).q.0.f.0.f.j.x.{ & :.5.7.7.8.q.8.6.7.| z | i.8.=.6.q.j.j.w.Y * 2.2.2.5.",
"T  ... .[ ) _ %.| { ) z [ q.8.w.q.q.q.q.9.{ & Y } | | { [ E Y Y = * U [ R R R R [ [ } P $ & > R R ",
"] ` P L * % z P P * & * * L P I E Y R E Y z + + @ % @ @ % & % + % L z P z % O + z & * P > * * z > ",
".X{.(.b.c.c.[ P [ ....=.6.7.c.m.N.6.= P { :.9.e.a.s.9.E & % | x.b.I.I.).).H.N.=.% | _.}. X X X}._.",
"{.{.'..X X_. .= s.XX}.XX}..X'.)._.N.P 6.>X$XoX.X;X>X-X[.P > {..X[..X.X.X.X{.+Xv.$ 6.+X].].k.t.v.^.",
"w.7.q.0.6.6. .= 7.M.n.j.0.2.2...*.8.Y x.#Xv.2.6.v.Q.v.9.P z ).F.F.z.u.z.N.F.z.=.@ 8.{.^./.u.=.F.F.",
"w.g.g.g.1.1.X.L w.N.n.n.g.g.2.2.=.8.P s.`.j.6.w.i.8.8.7.U , H.k.z.z.j.z.M.i.u...@ :.F.k.u.5.3.i.k.",
"h.w.w.7.X.:.X.I 6.g.n.g.g.0.1.1.1.6.I x.G.j.M.M.n.q.3.3.n b p.r.p.z.~.~.M.k.z.:.@ } 5.=.=.5.r.5.-.",
"h.w.g.w.7.w.X.I  .1.1.1.1.1.1.1.1.6.I w.M.u.7.6.q.7.-.>.m v #.*.r.F.Q./.n.M.N.2.& } q.2.k.G.v.v.p.",
"6.6.:.:.:.7.{ I X.6.6.0.0.0.0.0.w.7.I ..j.g.g.n.g.r.>.,.m k O.&.-.r.i.k.k.j.w.) * ~ 8.2.8.j.i.i.t.",
"I R I L L L = P I I I E E E '  .) R = P Y Y Y Y Y / ! m v : : ; - > = P P * + $ & * > z * z I W ~ ",
"T I T L Y E E { ' ' ' E { ' E L z Y E E Y R z I E I x %.<.<.<.<.t.s.:.P % $ z ) ) ) R U P * @ $ - ",
"h. .E (.XX.XoX X&X&X&XXX.Xc.R R {..XXXXXXX.X.X.X{.=.[ #XE.E.|..X$X%XXX8.$ ) $X:X;X;X:X&X&X X).{ # ",
"@Xh.{ @X.X_.(.(.L.L.L.L.c.h.R | .X{.{.{.G.N.i.3.u.| ...X).)././.m.M.F.w.% w..Xv.(.L.N.M.d.s.v.:.> ",
"6...' '..Xj.0.w.0.4.1.1.7.7.P X.{.F.^.H.^.A.8.3.q.| | ).z.w.q.j.Q././.w.* 6.k.*.q.f.g.0.2.1.*.R > ",
"4.X.E ).).n.n.Q.Q.h.6.1.7.6.I :.G.-.B.C.v.u.8.5.q.| R M.*.6.w.l.OX`./.7.= 2.q.*.0.Q.W.f.f.5.8.c & ",
"7.X.R '.`.n.n.l.f.0.6.8.w.7.E | C.&.;.,.8.-.u.u.w.} I M.2.q.z./.OX/.N.6.z =.8.2.0.i.g.f.4.2.2.z * ",
"w.| R m.b.q.7.0.4.0.q.w.9.6.Q ( B.;.&.;.>.8.>.6.6.) R i.q.6.3.q.z.7.q.2.z ~ 2.=.2.2.g.g.q.q.%.> , ",
"| [ T ] ^ ( E [ { [ } } } Q Y ( @.o.o.o.( ! W I z z * R R R Y I I P z z > = z z Y U R _ E Y z & - ",
"} } [ } _ ) Y P P P R P z z Y Q Q ! n b n m Q [ ` T R R L * + $ z P P Y U U Y * & * , : + o X   o ",
"}.}.$X#X.X#Xm.L P w.x.v.N.S.S.Z.C.V.<.Q V.Z.T..XXX.X{..X7.&  .).].}.XX X.X}._.{. .% *.v.s.a.a.e.a.",
"_.].+X(.Q.(.j.P ..%XoX:X:X:X;X;XY.J.y.( I.D.[.]..X_.v.j.4.$ 6.@XI.K.N.S.L.N.v.v.[ % (.{.].{.@X#X#X"
};
