/* XPM */
static char *_1675710732[] = {
/* columns rows colors chars-per-pixel */
"50 50 249 2 ",
"   c #184B08",
".  c #1C5205",
"X  c #155B02",
"o  c #1D5B04",
"O  c #1C5409",
"+  c #1D5B0D",
"@  c #15570B",
"#  c #1C5D14",
"$  c #1B5819",
"%  c #0D5303",
"&  c #224D01",
"*  c #2B4C00",
"=  c #234A07",
"-  c #334C00",
";  c #3C4B00",
":  c #235403",
">  c #2A5401",
",  c #245B03",
"<  c #2C5C02",
"1  c #23550C",
"2  c #245C0C",
"3  c #2B5D0B",
"4  c #29570E",
"5  c #325500",
"6  c #3B5301",
"7  c #335B01",
"8  c #3B5B00",
"9  c #345E0B",
"0  c #255613",
"q  c #245B12",
"w  c #2A5D13",
"e  c #235E1A",
"r  c #2A5A18",
"t  c #1B640D",
"y  c #196308",
"u  c #1D6612",
"i  c #2B6204",
"p  c #24630E",
"a  c #2B630C",
"s  c #286909",
"d  c #396302",
"f  c #3A640C",
"g  c #356407",
"h  c #256313",
"j  c #2B6413",
"k  c #2E6A13",
"l  c #24631C",
"z  c #29671A",
"x  c #346617",
"c  c #2C7319",
"v  c #266720",
"b  c #2E6F22",
"n  c #4B4D00",
"m  c #435A00",
"M  c #485501",
"N  c #555801",
"B  c #524D00",
"V  c #665E00",
"C  c #496500",
"Z  c #446604",
"A  c #5A6A06",
"S  c #567209",
"D  c #5D7812",
"F  c #666907",
"G  c #657508",
"H  c #667D17",
"J  c #74720D",
"K  c #90770A",
"L  c #778719",
"P  c #66801F",
"I  c #7C9327",
"U  c #6F8A21",
"Y  c #87871D",
"T  c #8F8D1B",
"R  c #BA9216",
"E  c #AA860E",
"W  c #989A2A",
"Q  c #91942D",
"!  c #A7982B",
"~  c #AD9F36",
"^  c #B79720",
"/  c #95A638",
"(  c #9AA52D",
")  c #B8A32F",
"_  c #A8A636",
"`  c #B8A837",
"'  c #BAB63F",
"]  c #AFB93C",
"[  c #CE940D",
"{  c #E79F0C",
"}  c #E99E12",
"|  c #D7A30D",
" . c #DAA817",
".. c #D2A81C",
"X. c #E8A20E",
"o. c #E6A414",
"O. c #EBA314",
"+. c #EDA419",
"@. c #E4AC1A",
"#. c #EDAB1C",
"$. c #E7A917",
"%. c #F1A41B",
"&. c #F2AB1B",
"*. c #F2AB15",
"=. c #ECB21E",
"-. c #E8B81C",
";. c #F3B31F",
":. c #F3BC1D",
">. c #FBB81D",
",. c #C7AC38",
"<. c #C9B83E",
"1. c #DAB737",
"2. c #D5AC2B",
"3. c #E6AF2A",
"4. c #E8AB22",
"5. c #F3AF21",
"6. c #FAAF22",
"7. c #E6B523",
"8. c #ECB422",
"9. c #EDBC23",
"0. c #ECBD2A",
"q. c #E8B42A",
"w. c #F3B422",
"e. c #FBB524",
"r. c #F4BC24",
"t. c #FABA25",
"y. c #F3BD2A",
"u. c #FBBC2A",
"i. c #F6B62B",
"p. c #ECBC34",
"a. c #EDBD3A",
"s. c #E6B634",
"d. c #F4BC33",
"f. c #F8BD38",
"g. c #D09F28",
"h. c #EBC11D",
"j. c #F3C21E",
"k. c #DDC53D",
"l. c #DEC53A",
"z. c #ECC223",
"x. c #EDC32D",
"c. c #EBC428",
"v. c #F4C125",
"b. c #F4C22C",
"n. c #FAC32C",
"m. c #F9C729",
"M. c #EDC433",
"N. c #EDCA33",
"B. c #ECC43A",
"V. c #ECCB3C",
"C. c #E3CB3B",
"Z. c #F3C533",
"A. c #FAC532",
"S. c #F3CA35",
"D. c #FBCA35",
"F. c #F2C53C",
"G. c #F3CC3B",
"H. c #FACD3A",
"J. c #FDC53C",
"K. c #E9D13E",
"L. c #F5D13C",
"P. c #FBD23D",
"I. c #9BAD43",
"U. c #9DB649",
"Y. c #8FAB45",
"T. c #A7AC46",
"R. c #B8B847",
"E. c #B2BB52",
"W. c #C7B847",
"Q. c #D6B944",
"!. c #D7BF54",
"~. c #E3BF47",
"^. c #BDCA5C",
"/. c #BFC144",
"(. c #BACE62",
"). c #CBC44A",
"_. c #C9C547",
"`. c #D6C848",
"'. c #CACC55",
"]. c #D4C654",
"[. c #D8D458",
"{. c #D2D255",
"}. c #EBC443",
"|. c #E4CB44",
" X c #ECCB42",
".X c #E5C749",
"XX c #F3CC43",
"oX c #F7CA44",
"OX c #EBD343",
"+X c #ECD349",
"@X c #E7D64A",
"#X c #F5D344",
"$X c #FCD545",
"%X c #F4D44C",
"&X c #FBD44A",
"*X c #F4DC4D",
"=X c #FCDC4B",
"-X c #F6DA46",
";X c #E4D354",
":X c #ECDB5B",
">X c #E5D959",
",X c #F4DC52",
"<X c #FADD53",
"1X c #F7DE5B",
"2X c #E0CC53",
"3X c #DFE257",
"4X c #F6E14E",
"5X c #EAE35B",
"6X c #F4E354",
"7X c #FAE353",
"8X c #F5E35A",
"9X c #FBE55B",
"0X c #F4E95C",
"qX c #FBEB5B",
"wX c #FBE955",
"eX c #FCF05E",
"rX c #CED869",
"tX c #E6DC63",
"yX c #D9E273",
"uX c #EEE46A",
"iX c #E8E567",
"pX c #F3E662",
"aX c #F6EC64",
"sX c #FBED64",
"dX c #F6EE6A",
"fX c #F9ED69",
"gX c #F4E568",
"hX c #FDF365",
"jX c #F5F46C",
"kX c #FCF36C",
"lX c #F4FA6D",
"zX c #FEFA6D",
"xX c #F8F466",
"cX c #EAE974",
"vX c #F8EC76",
"bX c #E7F17E",
"nX c #FCF571",
"mX c #F7FC71",
"MX c #FDFA74",
"NX c #FCF37D",
"BX c #FEFB7B",
"VX c #F4F577",
"CX c #EFF86A",
"ZX c #FEF481",
"AX c #FEFB83",
"SX c #FDFC8A",
"DX c #F5F885",
"FX c #FCFF96",
"GX c #E9F285",
/* pixels */
"s s y s c c t @ q 0 1 w x o % y i g d , , > > 7 > 7 7 8 7 < > < i s s p 2 w 0 $ $ $ e v j , i i i p ",
"s s s u u u y t O x x & . i s i < d S H U I / I.I.I./ / Q L H S d g g d 3 2 1 e $ $ $ e h i , i k k ",
", k k p t t t t o 1 3 f f d g D W _ _.tXuXuXtX:X1X:X:X:X:X;X`.W.T.I S C 8 > > x + + # l h 2 , a a j ",
"> x k y t t t t o k 7 > 8 D Y.(.5X8X8X5X,X%X#XOX%X#XV. X}.V.C.C.[.'./.W G 8 5 f w 2 h h j 2 2 x p 2 ",
"4 x j X @ y y X s d 7 Z Y.rXbXDXiX0X0X5X6X6XwXqXeXqXwX7X*X@X@XOX|. X;X`./.( G 7 d g a k j q 2 w p p ",
"r x w . % X % X y d I rXFXDXtXtX[.3X5XxXCXxXhXhX6XqXhXhXhXqX0XwX&XD.s.l.>X3X] L C 7 < g j 0 $ e j j ",
"r z h o o o y i i U.DXDXcXtXpXuXBXVXVXVXlXMXMXMXkXkXkXfXfXfXdX8X$X$X$XF.l.l.`.[.T S d 7 j w e e h h ",
"e z q 2 i , d C (.bXDXcXuXdXfXfXCXVXVXAXBXnXfXaXnXfXpXpXgXfXfX9X4X=X=X=X#XC.C.`.5X_ G C f 3 # # k h ",
"l v + k 9 5 S rXGXDXuXuXhXMXkXxXnXkXkXMXkXkXhX0X9X,X*X9X9X8X8X9X4X=X$X$X=X#XoX}..X;X' A Z a h X t k ",
"b t b 3 Z D E.DXZXtX5XdXkXxXhXzXkXkXkXeXsXhX9XK.OXK.-X7XwX7X%X*X4X4X4X=X&X&XoXJ.a.B.`.' A d , + p k ",
"u p k d N T.SXSXtX>X5XfXzXxXxXzXzXhXzXqXqXzXwXK.C.C.OXwXwX4X*X4X6X@X*X,X&X&XoXoXd.q.%X;XW m < i 2 j ",
"y c < d H GXSXtX;X8XhXkXzXzXzXjXhXhXhXeX4XwX7XOXK.N.K.-X4X*X*X4X*X*X*X*X%X&XoXf.f.i.B.s.[.L 8 7 , y ",
"i k 7 C yXSXcX`.iXsXzXxXlXlXMXkXkXsX9X<XOXV.V.V.XXG.V.V.G.oX#X&X-X*X*X%X%XXXH.D.n.A.$.p.@XW.A - < a ",
"f d 9 I FXDX_.[.MXlXlXlXxXjXkXBXkX%X XXXXXV.B.B.H.S.Z.Z.Z.G.F.F.P.P.#X%X XXXG.m.A.t.w.Z.a.]._ ; 5 a ",
"C 8 G yXDXtX_.mXMXlXCXlXlXjXdXfX,XC.V.V.K.L.P.S.S.S.N.S.S.S.Z.b.n.D.G.L. XV.N.N.m.*.D.9.s.~.].J 7 3 ",
"m 6 T.FXGXR.iXBXlXmXlXlXmXBXnX:XC.V.#XL.N.S.L.N.x.x.N.m.S.S.N.x.y.A.S.G.L.G.L.m.m.m.v.8. .}.~.~ - 3 ",
"n F yXSX'.'.BXjXMXMXMXkXxXzXsXOXV.G.L.G.L.L.N.N.N.N.N.N.S.S.N.b.0.0.Z.S.G.D.Z.n.n.y.n.b.7...oXQ.J = ",
"n T bXBX/.iXmXjXjXkXnXkXhXxXwXK.V.G.G.S.L.L.L.N.N.N.N.N.N.x.c.z.0.0.M.Z.Z.A.A.n.n.b.A.Z.0. .Z.k.K ; ",
"B R.DXcX/.mXMXjXjXnXMXkXsXhXqXOXG.S.G.S.S.P.L.L.N.S.L.S.Z.b.x.x.0.b.b.Z.b.b.n.n.b.v.y.y.b. .7.}.I.n ",
"N cXSX[._.AXjXkXkXjXkXkXsXhX6XK.G.S.Z.Z.S.S.P.L.S.S.S.L.P.P.H.D.S.Z.Z.A.A.y.b.y.y.n.y.b.A. . .}.W.N ",
"J ZXZX).iXBXjXlXnXdXdXdXfXhX9XK.L.G.S.M.S.S.S.L.x.N.S.H.P.P.D.D.D.D.D.A.b.n.t.v.r.n.z.v.Z.@.| }.2XK ",
"K ZXZXW.kXMXjXMXnXjXdXdXsXhX0XOXG.S.F.G.V.S.S.G.N.b.S.G.D.H.D.n.Z.n.A.b.n.v.v.v.r.v.8.b.m.8.| Z.~.K ",
"! ZXvX_.MXMXkXkXxXdXxXsXsXsX0X*X XV.G.G.G.V.M.F.Z.M.M.M.S.Z.Z.Z.y.y.v.n.v.r.r.v.r.:.9.b.z.y.| 0.f.K ",
"` vXuX_.kXkXkXjXsXdXnXkX8X0XsX6X X XV.XX#XXXV.F.B.B.M.p.p.p.Z.Z.A.n.n.n.v.t.:.r.v.:.:.r.9.v.| 0.f.[ ",
"` ZXuX].nXxXaXkXhXdXfXaXsX8X6X6X<X%XXX}.}. XXX}.B.B.B.a.p.a.F.q.8.y.r.r.w.:.t.j.v.:.v.y.:.v.| y.f.[ ",
"` ZXgXk.MXsXaXxXsXsXaXpXqX8X6X*X<X1X<X%X+X X%X}.XX}.oX}.a.B.F.s.8.=.w.r.r.r.:.v.v.:.v.v.9.w.| y.i.[ ",
"` ZXvX<.kXxXaXsXsXsXsX9X6X6X*X*X%X1X1X<X%XoXXXoXoXF.}.f.p.a.p.3.@.$.:.w.m.t.v.r.v.t.v.v.r.r.| u.f.[ ",
"` ZXNXW.fXdXsXqXsXsXpX8X6X,X*X=X+X,X1X&X&X%XoXoXp.s.p.q.3.3.3.@.$.o.#.;.t.r.t.v.v.j.v.r.v.8. .y.d.[ ",
"~ uXAX`.pXsXxX0X0X8X8X7X7X=X4X*X%X$X#X#X$XoXF.d.q.4.4.4.4.4.4. .+.o.#.;.t.r.r.v.r.r.v.r.u.=.@.d.s.R ",
"! tXBX[.>XxXkX8X8X8X6X1X7X4X-X-X$XXXG.F.F.J.y.8.i.4.i.i.4.#.4.+.+.o.o.;.w.r.r.r.r.v.v.r.A.@.@.Z.,.R ",
"! !.NXgX`.sXsX8X8X6X,X,X=X=XL.N.S.Z.x.9.9.y.w.5.5.%.6.e.&.%.%.+.O.o.O.w.u.r.w.r.r.r.v.y.A.#.4.f.g.^ ",
"T W.vXkX`.0XsX6X7X,X*X*X4X-XK.c.0.0.7.@.@.4.w.5.%.+.&.6.*.} O.O.} } O.t.u.t.9.r.9.v.b.9.A.@.4.f.W.K ",
"Y R.{.AX@X`.hX7X=X=X=X#XL.N.x.c.7.7.8.8.i.#.#.#.5.5.%.%.%.%.} } { } *.&.e.e.t.v.-.z.h.c.z.| u.s.R.F ",
"G ^.R.BXsXl.=X$X$X$XL.V.V.N.M.c.9.7.8.5.5.#.+.&.%.%.%.%.%.5.%.} { { &.e.t.u.u.r.z.h.z.7. .m.u.2.T.N ",
"m T.R.{.kX+X1.#XL.G.M.M.N.Z.Z.0.y.w.=.#.#.#.#.&.%.} } %.+.} } { X.$.>.e.u.t.t.j.v.h.v.-.$.oX3.,.Q 6 ",
"- H (._ >X0X2.B.G.G.Z.Z.Z.Z.y.0.y.w.8.#.#.#.#.+.%.%.%.} } } } o.;.i.r.u.v.r.:.j.j.m.9.-.d.~.g.Q.F * ",
"= 8 U.E.W.gX XB.F.Z.Z.Z.Z.y.y.y.y.w.w.;.w.&.&.*.&.} O.O.+.+.&.;.y.c.c.0.9.z.j.>.t.e.6.6.~.1.Q.~ m 5 ",
"> 5 D rXW.:X<XG.p.Z.A.Z.y.y.y.u.w.w.e.w.e.w.&.O.%.O.O.&.>.;.e.u.y.0.0.0.7.h.j.j.m.%.i.f.s.Q.!.V M x ",
"1 < 8 I.'._.%X<XV.Z.Z.y.y.r.t.t.w.e.w.;.e.e.;.X.O.X.o.;.t.t.e.n.i.y.0.z.h.h.h.j.>.*.i.~.Q.W.Q n 9 x ",
"w , < C rXR.`.9X$XG.y.0.r.r.w.w.e.w.;.&.;.w.&.O.X.X.O.;.t.w.=.;.w.y.r.z.z.h.h.:.*.u.6.s.!.E.N 4 9 1 ",
"# k < & I {._.|.9X$XG.b.v.:.:.w.w.w.8.;.;.&.w.w.;.;.;.:.:.w.r.w.u.e.w.r.z.j.:.>.t.u.d.~.W.H - 4 : 1 ",
"t + < d 8 T iX{.@X1X7X$XH.b.:.=.w.8.w.8.w.w.w.w.r.r.w.r.9.:.9.w.e.e.t.r.z.9.9.r.d.y.}.Q.K 6 > 1 1 1 ",
"# + , g 5 m ( {.{.;X6X7X-Xb.-.v.=.8.8.=.8.8.8.w.w.r.r.9.:.8.-.:.>.e.u.y.9.0.f.~.B.1.` T n * > : 1 0 ",
"@ @ 2 i Z > - / yX[.>X;X=X7XP.b.y.0.7.q.7.=.8.=.8.w.w.-.9.9.r.r.e.e.u.y.p.}.oX!.,.) J M 6 < . O 1 0 ",
"t % l j < 7 * 8 I '.bXuX@X%X=XG.H.D.Z.Z.y.y.y.y.r.9.9.r.r.z.c.y.;.w.0.p.~.~.W.~ Y J ; * 9 x . O 0 2 ",
"$ @ @ x 4 & f * * H E.rX[.@XV.L.$XP.H.H.F.Z.b.y.y.0.y.c.z.9.9.z.v.y.Z.}.~.W.K J A - * 5 > : 0 0 r q ",
"l e   e x O q f 9 = m Q {.:X|.V.V.G.G.G.S.D.Z.Z.b.b.b.b.b.c.v.z.b.N.B.~.R.K F N - = 1 x O O 0 0 e q ",
"l e e @ q b 1 1 & > - - A W ).;X|.}.XXV.oXJ.D.D.S.D.H.G.H.H.P.L.C.C.`.` K N ; 6 * w 0 O r r = r 0 0 ",
"e r j w w 2 2 2 . . : > & 8 D L ` Q.`.%X%Xf.d.Z.n.Z.Z.S.M.F.B.1.W._ Y A 6 - > 1 1 1 O O 4 1 = 0 r 1 ",
"2 2 2 2 2 : 1 O . @ 2 1 & > 5 m B J K R g.2.q.y.7.=.7. .....R K V n ; ; * & 1 0 2 q : 1 4 1 = 0 =   "
};
