/* XPM */
static char *_1675710732[] = {
/* columns rows colors chars-per-pixel */
"50 50 253 2 ",
"   c #303C00",
".  c #1B5303",
"X  c #1C5B05",
"o  c #1D540B",
"O  c #1C5B09",
"+  c #145906",
"@  c #195A12",
"#  c #124D03",
"$  c #2A4400",
"%  c #2C4C01",
"&  c #234E05",
"*  c #334D00",
"=  c #3B4C00",
"-  c #354400",
";  c #235403",
":  c #2C5301",
">  c #265A05",
",  c #2B5B03",
"<  c #23550C",
"1  c #2A560C",
"2  c #245B0C",
"3  c #2B5D0C",
"4  c #335300",
"5  c #3B5301",
"6  c #335B01",
"7  c #3B5B00",
"8  c #34570C",
"9  c #245511",
"0  c #235B12",
"q  c #2A5C12",
"w  c #285613",
"e  c #385C16",
"r  c #1B6809",
"t  c #1D7105",
"y  c #1E6C12",
"u  c #2A6402",
"i  c #25620C",
"p  c #2A620D",
"a  c #246908",
"s  c #3B6304",
"d  c #33630D",
"f  c #376506",
"g  c #257609",
"h  c #256411",
"j  c #2B6413",
"k  c #2B6914",
"l  c #276717",
"z  c #366615",
"x  c #3A720D",
"c  c #2E6722",
"v  c #484B00",
"b  c #445A00",
"n  c #4B5B02",
"m  c #435402",
"M  c #5D5C00",
"N  c #565901",
"B  c #4C5408",
"V  c #665E00",
"C  c #4C6300",
"Z  c #456502",
"A  c #5A6704",
"S  c #5D7306",
"D  c #4F700E",
"F  c #676D09",
"G  c #766701",
"H  c #697509",
"J  c #6D7817",
"K  c #767814",
"L  c #70700E",
"P  c #847C12",
"I  c #8E7604",
"U  c #AB7C06",
"Y  c #7A8317",
"T  c #65841A",
"R  c #7C952B",
"E  c #7B8620",
"W  c #78A02E",
"Q  c #85861C",
"!  c #9D8812",
"~  c #A3840C",
"^  c #B38E11",
"/  c #898923",
"(  c #958C24",
")  c #9A972A",
"_  c #889734",
"`  c #94962E",
"'  c #A59727",
"]  c #8BA639",
"[  c #95A63B",
"{  c #ACA637",
"}  c #B7A738",
"|  c #AAB53D",
" . c #B3AE2F",
".. c #CE9612",
"X. c #EC9A08",
"o. c #EC9E12",
"O. c #E79B11",
"+. c #F19F12",
"@. c #DBA20D",
"#. c #DCA312",
"$. c #DCA716",
"%. c #ECA315",
"&. c #EDA419",
"*. c #EDAB1C",
"=. c #E5A916",
"-. c #F2A51B",
";. c #F2AB1D",
":. c #F3A314",
">. c #ECB31E",
",. c #E8B51A",
"<. c #F4B51D",
"1. c #F4BB1D",
"2. c #FABC1D",
"3. c #F8B31C",
"4. c #D5AE26",
"5. c #C7AE39",
"6. c #C8B53A",
"7. c #D7B536",
"8. c #DBB32D",
"9. c #ECAC24",
"0. c #E6AC2B",
"q. c #F6AE22",
"w. c #EDB423",
"e. c #EEBA24",
"r. c #EDB42C",
"t. c #EDBC2B",
"y. c #E4B82B",
"u. c #F4B423",
"i. c #F9B524",
"p. c #F3BC24",
"a. c #FABB23",
"s. c #F3BC2B",
"d. c #F6B72C",
"f. c #ECB331",
"g. c #ECBC33",
"h. c #E6BC37",
"j. c #F3BD32",
"k. c #F4BD3A",
"l. c #F6BC33",
"z. c #F8C01F",
"x. c #DCC33B",
"c. c #ECC32C",
"v. c #E5C129",
"b. c #F4C125",
"n. c #FAC224",
"m. c #F5C22C",
"M. c #F9C22C",
"N. c #F8C92C",
"B. c #EEC533",
"V. c #ECCA34",
"C. c #EDC53A",
"Z. c #EDCB3C",
"A. c #E6C33D",
"S. c #F3C433",
"D. c #FAC433",
"F. c #F3CA35",
"G. c #FBCA35",
"H. c #F3C53B",
"J. c #F3CB3B",
"K. c #FACA3C",
"L. c #FAC739",
"P. c #E8D13B",
"I. c #F3D13D",
"U. c #FBD23C",
"Y. c #FFD236",
"T. c #AAB94B",
"R. c #B7B749",
"E. c #B3B753",
"W. c #B4B447",
"Q. c #9AAB45",
"!. c #CDBB41",
"~. c #C7B946",
"^. c #D7BC44",
"/. c #C9BD51",
"(. c #E7BD44",
"). c #B7C452",
"_. c #BDCD60",
"`. c #CBC348",
"'. c #D4CB4B",
"]. c #D7C549",
"[. c #CCC756",
"{. c #D7C754",
"}. c #D9D65C",
"|. c #E4C345",
" X c #EDC541",
".X c #ECCC43",
"XX c #E4CC4A",
"oX c #E8C949",
"OX c #F3CC42",
"+X c #FACD42",
"@X c #F2C845",
"#X c #EDD44B",
"$X c #EBD444",
"%X c #F5D344",
"&X c #FBD443",
"*X c #FDDB45",
"=X c #F3D54C",
"-X c #FAD44B",
";X c #F5DB4D",
":X c #FBDB4B",
">X c #F6DB45",
",X c #E4CC56",
"<X c #ECDB5B",
"1X c #E8D856",
"2X c #F5DC53",
"3X c #F9DE53",
"4X c #F5D854",
"5X c #F7E24C",
"6X c #EAE25D",
"7X c #F6E154",
"8X c #FDE353",
"9X c #F5E55B",
"0X c #FBE55B",
"qX c #F5EA5E",
"wX c #FAE95C",
"eX c #FAEB57",
"rX c #F9F25C",
"tX c #EDEB53",
"yX c #CAD567",
"uX c #D7D867",
"iX c #CBD572",
"pX c #E5DB66",
"aX c #D3E670",
"sX c #EEE662",
"dX c #E7E968",
"fX c #F3E462",
"gX c #F4EB64",
"hX c #FAEB63",
"jX c #F6EE6A",
"kX c #FAED69",
"lX c #F6E66B",
"zX c #EEF467",
"xX c #FDF265",
"cX c #F4F46C",
"vX c #FBF36C",
"bX c #F4FA6C",
"nX c #FBFA6C",
"mX c #F7F964",
"MX c #EAE675",
"NX c #F6E975",
"BX c #ECF577",
"VX c #FBF472",
"CX c #F3FA73",
"ZX c #FDFB73",
"AX c #FEF47C",
"SX c #FCFB7C",
"DX c #F4F777",
"FX c #EBF783",
"GX c #FDF483",
"HX c #FEFB8B",
"JX c #FAFC86",
"KX c #FBFD93",
"LX c #F2EF80",
/* pixels */
"t t t t t y r + 2 q 2 2 2 u + X , u s 7 n A H K K P Y Y H S 7 * m b Z 8 i @ @ @ + + i i u 3 3 j p i ",
"g a t r y g r + + 2 2 3 d , X X D T ] ).yXuXdXMXMXpXuX}.[.).| | Q H b 6 6 i O O # r j j 2 3 3 ; k k ",
"a a k g h h r # X u u u 6 6 T ).uX<XfXkXfX1X.XXX#X=XoX.X.XoX.X'.uXR.` T C 6 6 x 3 X X h j i 2 3 j j ",
". p k h r r r i i f , > T ).aXMX<X2X4X4X;X;X8XeX8X:X:X:X-X&XK.J.'.}.}.`.' H n 7 s 3 O h l 2 p k i i ",
"w z j o + X X a a . Z T.FXBXdXNX9X9XqXqXqXqXrXmXrXeXrXrXeX8X:X=XXX'.].$X#Xx.! F 5 s z k h 0 0 i i i ",
"e c w < 9 ; # . + W aXBXBXjXfX6XsXsXcXcXbXbXbXzXtXzXrXxXxXhXhXhXhX3XJ.y.V.&X$X!.Q C : p l r O h h h ",
"w c w 9 d > & s Q.aXFXCXdX6XwXkXAXAXJXSXSXDXCXCXCXbXcXsXfXfX9X3X;X8X8X&XB.c.B.XX].Q b s z i O r h k ",
"c c q 1 6 6 C R aXJXFXdXsXvXvXnXDXDXDXDXDXCXCXzXcXcXgXlXkXkXkXlX8X*X&X*X*X&XH.A.XX{.) C : p l + a h ",
"l y l z 4 n [ LXFXBXdXsXzXnXnXxXZXnXcXgXhXvXwX=X$X.X#X0X0X7X2X7X5XU.*X:X:X-XOX@Xh.$Xx.) C f 2 + r j ",
"y y a f C _ yXKXMXpX6XcXCXbXcXZXbXnXmXmXxXxX8X%XZ.Z.&X8XeX8X5X7X5XU.:X2X4X=XOX Xt.h.%X6.( b > h j l ",
"t t u > T uXKXGXpX1XdXCXZXCXCXCXmXmXmXrXeXeX5XU.J.V.I.>X5XtXtX>X5X*X=X2X1X1X@XJ.s.>.G.%X`.H 6 8 p i ",
"r t f 7 E.GXGX|.<XgXnXbXCXCXCXbXnXmXtX>X>X&XI.J.K.F.F.J.I.P.P.>XU.&X=X1X1X,X.XK.G.1.=.K.XX| A * , 2 ",
"t u u R MXHX1X].lXZXZXzXzXCXSXVXxXeX#XZ.Z.J.K.H.+XL.H.H.I.Z.OXOXU.U.=X#X#X$X.XF.G.n.,.w. X,X/ = , 3 ",
"x , Z iXHXNX!.lXZXnXmXbXCXzXcXVX7X=X.XZ.I.I.J.C.H.J.H.L.K.K.H.S.J.F.J.%X.XZ.F.F.n.N.M.$. X,X~.M 6 3 ",
"f 7 R KXMX{.,XAXnXmXzXbXCXvXjXhX.X.XZ.I.I.P.P.V.V.V.J.F.L.L.D.j.S.S.F.F.F.F.N.N.b.b.Y.w.0.(.oX( 7 3 ",
"7 b iXKXuX~.AXVXvXnXnXmXnXZXhX#XOXJ.I.Z.P.V.P.P.V.V.V.B.S.H.D.S.c.m.G.F.N.N.n.N.N.e.s.K...k.(.~.n d ",
"- E MXJX~.pXVXVXVXnXZXvXxXxXeXXXZ.J.J.Z.F.I.Z.V.V.V.V.V.F.V.c.c.v.b.S.F.S.N.m.b.N.p.M.D.w.$.+X(.E % ",
"v { GXDX`.dXCXcXnXvXZXvXxXmXeXP.V.F.J.S.J.I.U.J.J.F.V.J.V.c.v.y.t.t.c.m.m.m.m.m.M.s.M.d.s.#.l.h.` v ",
"V [.HXuX'.CXZXcXcXvXvXkXhXxXeXP.Z.F.F.V.F.U.U.I.V.V.F.F.U.F.F.F.G.S.S.m.m.m.m.N.b.p.m.M.j.$.9. X} M ",
"G MXHX'.}.SXVXVXVXjXcXvXxXxXqXP.J.F.F.F.F.J.G.U.F.N.F.Y.U.U.Y.Y.K.K.G.S.m.m.m.b.p.M.s.m.D.=.=. X^.I ",
"P LXGX~.sXSXjXZXvXjXjXkXhXxX9X$XI.Z.V.F.F.J.F.F.F.S.F.K.U.G.S.N.S.m.D.D.m.m.b.b.p.m.p.M.D.*.@.H.(.I ",
"' GXNX^.VXZXvXZXcXjXkXjXgXgXwX$XZ.V.V.Z.F.J.J.K.F.m.S.D.G.D.D.D.d.D.M.N.m.m.e.e.p.p.p.m.m.e.@.j.(.U ",
"{ GXNX/.vXZXnXxXvXjXkXhXqXqXqX5X$XZ.Z.Z.Z.Z.C.OXS.S.g.H.H.D.D.D.G.D.D.m.m.p.p.p.p.m.p.s.p.s.@.w.k.U ",
"} GXlX^.vXZXVXgXvXkXvXkXqX9XqX7X=X$XZ.$X%XZ.C.C.H.C.B.j.j.t.f.d.s.i.d.u.p.p.p.p.p.p.p.s.w.D.=.9.k...",
"} GXpX'.VXqXvXhXvXhXkXhXhX0X7X7X3X2X4XoX.XoXOXOX@XH.H.k.k.k.k.d.w.;.p.u.p.p.p.b.b.b.p.m.u.s.#.w.l...",
"} AXlX].VXhXvXhXkXhXhXhX0X0X7X;X3X3X2X=X=X=X=XOX@XC.@X Xk.k.k.f.*.9.u.u.p.s.b.m.b.m.p.p.p.p.@.d.l...",
"} AXAX6.vXvXhXxXhXhXhX9X2X2X;X;X4X2X4X4X=X-X@X XH.h.k.f.0.0.f.9.&.&.;.u.a.i.b.n.p.m.p.p.m.w.@.l.l...",
"} lXGX!.kXxXgXqXfXhX0X0X2X8X;X:X-X2X=X-X-X-XOXh.f.0.f.0.0.0.0.o.&.%.:.<.p.p.p.M.b.b.p.p.M.>.@.D.f...",
"' pXJX'.9XhXgXqX9X9X7X0X3X:X:X*X-X=X+X@X+XK.k.f.0.0.q.d.9.9.9.o.%.O.-.u.i.p.1.b.b.b.1.b.G.=.=.D.0.^ ",
"' {.SX<X1XgXhXqX9X9X2X3X3X:X>XI.K.K.H.j.g.t.t.9.9.0.q.q.q.q.-.-.:.o.:.<.a.e.1.1.b.e.e.b.n.$.e.j.7.^ ",
"( /.cXNX'.6XhX9X9X7X4X;X:X:XJ.V.t.s.e.w.*.w.9.*.q.%.q.q.q.o.o.o.%.o.:.i.a.a.1.b.b.b.b.m.p.=.m.r.5.( ",
"/ ~.NXSX].2XxX7X0X:X=X;X&X>XV.t.y.w.w.,.>.*.u.q.;.&.q.q.+.o.+.o.:.X.+.i.a.p.1.z.c.,.b.m.>.=.G.h.} P ",
"K W./.HX4Xx.hX%X&XU.I.J.V.c.c.c.e.>.w.w.w.*.*.;.-.-.&.%.o.&.o.+.X.X.:.i.p.p.1.b.b.,.1.e.,.w.t.7.E.B ",
"A E.E.pXAXx.Z.:XI.I.F.V.c.c.c.c.e.w.9.w.*.*.&.;.-.-.-.-.-.-.o.o.O.:.3.a.a.p.p.1.z.z.z.,.y.S.y.5.[ 8 ",
"m _ W./.lX2X4.&XU.F.B.B.B.S.m.c.s.w.w.*.*.*.*.*.&.&.&.-.&.o.o.O.;.u.i.d.p.p.e.z.z.z.b.,.t.H.4.5.J * ",
"5 m _.{ '.2XZ.y.J.J.J.H.S.S.g.s.s.u.u.;.;.*.%.&.-.%.o.o.&.%.&.;.d.d.d.s.t.e.b.z.b.z.1.v.y.8.7.} B 8 ",
"% * R yX .<X0Xh.B.S.H.H.H.j.j.l.p.d.<.<.<.<.*.%.-.%.%.*.;.3.i.d.f.g.g.t.t.p.z.z.z.a.=.m.h.7.!.Q 8 8 ",
"; s 4 _.R.].wX&Xh.B.S.k.j.f.f.d.d.u.u.u.i.i.;.%.%.O.%.3.i.i.i.d.j.g.g.t.t.p.2.2.1.n.,.B.7.^.} N B z ",
"2 > 6 H uX .1X5X%XJ.S.s.j.d.d.d.u.u.u.q.u.i.q.%.=.@.:.3.a.i.<.u.t.f.t.s.p.a.1.1.3.z.r.7.^.W.L - B z ",
"h 2 ; 7 [ dX .eX0X&XV.t.s.d.p.;.d.u.*.*.q.i.u.&.*.%.*.1.i.u.p.p.s.s.t.s.p.a.2.3.1.>.C.^.{.`   B 1 1 ",
"c O 3 , b | dX6.2X;X*XU.m.,.1.n.u.u.u.u.u.q.i.u.i.i.<.u.p.e.1.>.n.a.<.a.n.n.a.<.b.y.(.].) B $ e & < ",
"@ @ j 6 4 S | zX'.1X;X>XU.Y.b.@.>.w.w.w.w.u.p.u.d.p.p.p.>.1.>.>.1.2.a.a.<.<.p.s.B.A.6.) F 8 & 1 o < ",
"@ @ 2 d 7 % S ).dX}.1XtX5XY.N.N.w.w.r.w.w.u.u.u.w.<.e.p.p.e.e.b.2.2.2.a.p.s.H. X7.5.( A * % w o 9 9 ",
"@ @ o 2 D 6 % C | aXzX1XP.*X5XY.D.S.S.d.r.r.t.w.w.w.t.e.p.e.e.b.2.3.>.p.H.oX^.5.' P A = * 1 9 o @ 0 ",
"o 0 2 3 3 6 6 : 7 ] iXMX1X,X$XS.&X+X+XL.D.j.S.s.s.m.t.s.t.t.e.>.2.u.e.C.|.!.' P F B - * 8 q 9 o 0 9 ",
"o o 2 3 > > 3 8 6 6 S E.MX1XXX-X+X+X+XK.+XL.L.D.s.j.m.c.m.m.c.c.s.G.+XoX~.) L N = 5 4 % < < 0 o 0 0 ",
"3 ; ; 2 q 0 o < q & $ B / /.,X|.@XH.K.OXK.K.K.H.S.m.S.S.L.F.G.F.S.@XoX~.` F B m % 8 8 1 < < o o 9 9 ",
"3 z ; & z j @ q o 1 % $ - N ( W.].].oXoX@X X XH.+X+X+XOXJ.Z.Z.A.^.~.} P N * % 1 1 & & 3 q q o < w w ",
"2 j j q 2 2 2 0 . . < : ; 4 7 5 L / { /.{.].(.|.oX(.|.oX^.!.6.{ Q F m 4 % & < < < 3 & & 1 9 < 9 9 & ",
"2 2 q 2 2 o O O . . > 2 . > 3 :   - v N G G I ~ ~ ~ ~ I I G V v = $ % 8 3 < o . 0 q < & 3 9 < w 9 # "
};
