/* XPM */
static char *_1676042517[] = {
/* columns rows colors chars-per-pixel */
"50 50 256 2 ",
"   c #2B3E06",
".  c #473D02",
"X  c #583C02",
"o  c #673A01",
"O  c #6E3E0E",
"+  c #1B4A02",
"@  c #155503",
"#  c #1C5503",
"$  c #1C5A05",
"%  c #1D5D0A",
"&  c #18590A",
"*  c #1B5F15",
"=  c #284B05",
"-  c #3C4501",
";  c #334B03",
":  c #3D4B01",
">  c #394908",
",  c #235305",
"<  c #235A05",
"1  c #2C5905",
"2  c #23550B",
"3  c #2A550C",
"4  c #235C0B",
"5  c #2B5C0C",
"6  c #2A5405",
"7  c #3A5305",
"8  c #35540A",
"9  c #325B0B",
"0  c #3B5C0C",
"q  c #365605",
"w  c #255C12",
"e  c #2B5D12",
"r  c #285511",
"t  c #335C14",
"y  c #3D5B12",
"u  c #3A5615",
"i  c #314D12",
"p  c #1D620C",
"a  c #1B6708",
"s  c #1E6211",
"d  c #1F6817",
"f  c #1E7314",
"g  c #23620D",
"h  c #2B620D",
"j  c #26690E",
"k  c #33630D",
"l  c #256412",
"z  c #2B6413",
"x  c #256A13",
"c  c #2B6915",
"v  c #2C6519",
"b  c #2E6B1A",
"n  c #25661A",
"m  c #336414",
"M  c #326619",
"N  c #356B1A",
"B  c #366717",
"V  c #29721A",
"C  c #31711B",
"Z  c #386421",
"A  c #444B05",
"S  c #494808",
"D  c #534D0A",
"F  c #594807",
"G  c #445303",
"H  c #48560B",
"J  c #555309",
"K  c #4C4715",
"L  c #544914",
"P  c #455D15",
"I  c #455615",
"U  c #545C17",
"Y  c #654808",
"T  c #784A09",
"R  c #69540C",
"E  c #6B4914",
"W  c #6B5213",
"Q  c #665713",
"!  c #775518",
"~  c #7B4D0E",
"^  c #466517",
"/  c #576418",
"(  c #6A631D",
")  c #6C5927",
"_  c #496725",
"`  c #6A6A27",
"'  c #594E21",
"]  c #717E50",
"[  c #953D00",
"{  c #D33E10",
"}  c #D33D29",
"|  c #E93D27",
" . c #87450D",
".. c #844911",
"X. c #944918",
"o. c #875718",
"O. c #985719",
"+. c #84580C",
"@. c #BA481B",
"#. c #A6581C",
"$. c #B4581B",
"%. c #A64B10",
"&. c #AE6B17",
"*. c #894925",
"=. c #8A5A24",
"-. c #9B5824",
";. c #924D31",
":. c #B54C24",
">. c #A85926",
",. c #B75826",
"<. c #AC572F",
"1. c #88642A",
"2. c #936B33",
"3. c #B86328",
"4. c #A86936",
"5. c #B76737",
"6. c #AD6E2F",
"7. c #C8590A",
"8. c #CA4618",
"9. c #D84B19",
"0. c #CA551C",
"q. c #D5591C",
"w. c #CC4D0E",
"e. c #E7491D",
"r. c #E1571B",
"t. c #D7661C",
"y. c #CD6E1D",
"u. c #EA771A",
"i. c #C74B28",
"p. c #D64B26",
"a. c #C75A28",
"s. c #D65628",
"d. c #D64C34",
"f. c #CB5635",
"g. c #D65A37",
"h. c #C4453C",
"j. c #E64828",
"k. c #E95929",
"l. c #E74A32",
"z. c #F05334",
"x. c #C8672A",
"c. c #D46827",
"v. c #C67225",
"b. c #C76636",
"n. c #D86936",
"m. c #C67437",
"M. c #D67C35",
"N. c #D8752D",
"B. c #E66D24",
"V. c #F7772B",
"C. c #E66835",
"Z. c #FC7A38",
"A. c #EE772C",
"S. c #976C4D",
"D. c #B36B4C",
"F. c #B17467",
"G. c #8E5A4C",
"H. c #CA5048",
"J. c #E25047",
"K. c #DB6844",
"L. c #D87945",
"P. c #C9714C",
"I. c #E96747",
"U. c #EA7648",
"Y. c #F87A44",
"T. c #F67146",
"R. c #E27A74",
"E. c #7F8754",
"W. c #B28729",
"Q. c #D89012",
"!. c #EB911C",
"~. c #E7A61C",
"^. c #F0B31E",
"/. c #D88829",
"(. c #D18F2F",
"). c #E78528",
"_. c #F5892A",
"`. c #E79729",
"'. c #F6992A",
"]. c #E58635",
"[. c #F98937",
"{. c #E79A36",
"}. c #F89635",
"|. c #D5A936",
" X c #EBA627",
".X c #F7A627",
"XX c #F9BB29",
"oX c #F8A738",
"OX c #FBB736",
"+X c #E8AA37",
"@X c #FDC837",
"#X c #FFD63D",
"$X c #FAC32A",
"%X c #B6886D",
"&X c #9C9067",
"*X c #D68D4D",
"=X c #EC8548",
"-X c #FA8D4A",
";X c #E89646",
":X c #FD9746",
">X c #FA8A57",
",X c #E89759",
"<X c #F08B59",
"1X c #CFAE50",
"2X c #FEA944",
"3X c #FFBB42",
"4X c #FFB244",
"5X c #FBA658",
"6X c #FCBA57",
"7X c #E9AA4A",
"8X c #C98779",
"9X c #D09170",
"0X c #EB9B67",
"qX c #F58F75",
"wX c #D8B271",
"eX c #F6AB6A",
"rX c #FBB765",
"tX c #FBA57A",
"yX c #F0B071",
"uX c #FEC84A",
"iX c #FDC357",
"pX c #EDCE56",
"aX c #F2C96E",
"sX c #D8C164",
"dX c #B0AB84",
"fX c #BE9A82",
"gX c #D8968C",
"hX c #F59990",
"jX c #CCA58C",
"kX c #F7AA83",
"lX c #FFB885",
"zX c #FEBA97",
"xX c #E6A496",
"cX c #F4B5AC",
"vX c #D2C799",
"bX c #FFC184",
"nX c #FFC38B",
"mX c #FBD386",
"MX c #FEC795",
"NX c #FED496",
"BX c #E9C68C",
"VX c #FFE892",
"CX c #FED7A6",
"ZX c #FFD9B4",
"AX c #F2CAAD",
"SX c #FFE5B8",
"DX c #FFE3A2",
"FX c #DED1A7",
"GX c #FFDCD3",
"HX c #F8DBC5",
"JX c #FCE8C5",
"KX c #FFF4CB",
"LX c #FFE8DA",
"PX c #FFF8DB",
"IX c #FFFAE3",
"UX c #FFECE8",
/* pixels */
"b x l l z l % % g % g p 4 % & $ 5 h c j a a 4 h = P P I / ^ 1 1 k j g h h g < $ $ $ a j c p g l h h ",
"x x x x x l p $ $ p g g g g g z h m m j a p g c y H D Q ` ^ k k N c c k < < < < $ $ a j g g $ z b x ",
"l x b x l l g & 2 % g g l z b b j c c c p a a c P J E ) 1.( G B N C N h < < 5 h 4 < < g g < g h z g ",
"$ z c g % g g $ g g l g 4 z z b j c k h l a x m G W -.4.1.F 7 B c V b g < k M m h h g z h 4 5 z h g ",
"$ l z $ @ $ g $ z g g 4 2 g h c j g h 5 w l g k F O.3.3.! S 7 z x c b l z M v z z z z t h 5 h h h g ",
"g c l & @ @ $ < z g 4 2 $ 2 g h j g 5 t w w m H +.>.x.$.T J P e z l x l z z w 2 z e m t 5 4 5 g z j ",
"z z z 4 $ $ 2 4 4 4 g 2 4 4 h z g h h e n e u F >.a.c.$.T H B e z l b x l * & # e M M m m 5 4 < g x ",
"z g 4 z w g 4 z h 4 4 4 4 5 z z h h h w n w I F ,.s.C.3.T D I e z g z x l & & % z M N N m 5 4 < g g ",
"z l h z z z g z N z 4 4 4 4 5 g < < 4 l n Z P F O.a.C.L. .R ` - q m m g 4 p d % l z M N N h $ $ j j ",
"x z z b b z z z z z 4 2 < 4 2 < $ 4 w v b m 0 D +.#.x.=Xm...! Y G q 9 1 g g s & % * l v M g g g c c ",
"x z z x x z l z l z h 2 2 g g $ a $ l B M t 9 P ( W.<.K.U.0.%.O.R J 7 k m c g p * % % w l g g g g g ",
"z l l l g g g l 4 z c g 4 z z l a a 5 9 0 0 0 H ` wX5.,.g.T.0.$.+.R J J B c g a s s n z z l g g $ 4 ",
"x l g % % p g g 4 l x z z c z z x x h q J ` ( G / FXwX,.p.Y.Z.t.#.o.R / ^ k p $ s n v b v w 5 p g h ",
"x z l % % g l l g g g z l z l g x b k 7 R 2.1.F A &XZXD.s.k.-X[.v.>.+.R H q $ $ % l v v z w 4 2 h h ",
"l x l g g l x l l % $ g z g 4 l 4 M 9 G ! 6.5.;.L &XKX9X,.t.[.:X].x.O.R J q 5 & % l v e 5 4 5 4 g h ",
"p l l g g l l p l & $ g c g 4 h 4 5 1 A ~ >.g.H.E S.PXSX>.N._.'.:X).$.T J k 5 , l b v w 2 5 5 h 4 4 ",
"p p h m x s p p < < < g j k k h g $ 9 - Y &.d.} H.8XJXKX*Xy.'..X'.'.c.O.- e 9 5 m x n d w r 3 1 4 4 ",
"g h h m z s p a c h # < k q / / < # 9 7 D O.d.J.H.8XPXJX*X].2X!.!._.t.#.H z 3 9 h x d d w 3 8 5 3 2 ",
"< h 5 5 l V V x g g @ h 0 J o.2.H 6 t 8 - T i.J.J.hXLXJXrX(.}.!.oX_.c.6.P % # < g d d * & = < k 2 2 ",
"# 5 h 2 % V C b < g j j H Y >.D.! A u u ; F :.H.H.cXGXZXaX/.`.}.}.).3.o.P w $ $ a d d w 2 , h h 4 4 ",
"@ g g < g z z 3 5 B m h 7 W ,.f.>.Y . Z u D E D.F.LXcXCX7X{.{.[.].v.O.R 0 m k g x f 4 r e z c b z z ",
"@ $ g g l z 5 6 1 B g < ; W b.K.5.X.E L H ; - S.AXUXxXzXrX{./.v.3.>.! J I B N g f a 5 5 t M x x 5 z ",
", , h h x l g $ , g $ $ 7 Q f.n.n.3.*.O D - I dXIXAX8XAXtX7XM.#.O.! Q S U 8 9 < a a , 5 e e g p 4 2 ",
"1 3 m B b g $ $ < < # 1 H W >.f.C.n.:.O ~ Q E.PXIXfX8XcXlXbXyX6.Y L ^ U ( D G 9 a a 1 9 5 w p s 4 4 ",
"B B m t m g & # 9 y P H D E X.:.n.-X%.#.5.1.dXHX%X;.8XgXR.4.! L K u i H 2.1.. 0 h g 1 6 , 4 l v l h ",
"C c 9 6 5 M B B ^ I D F X o X.:.a.Z.t.c.f.;.jXjX;.;.F.G.gX;.O L i _ y S -.4.W J k h 1 9 5 4 w z z z ",
"f a $ , 6 B ^ _ ` 2.2.2.o. .X.@.8.r.c.y.a.P.AXF.5.H.jX%XcXF.) ' u Z I X <.5.=.J 8 5 1 h 5 5 r z M c ",
"a a 2 , , 5 u 7 L ) 2.4.5.5.:.i.9.r.B.Z.>XkXPX8XL.<XSXJXcXgXG.F.]   . ~ ,.,.=.L ; 6 < 5 h h e z h h ",
"$ < 5 5 5 4 $ + ; A . o *.P.g.l.e.{ k.-XtXkXZX9XK.<XSXPXcXxXF.cXvX. O >.s.f.1.S > 6 , h k h z e h h ",
"< 5 h h l l p 2 9 0 H A Y X.g.l.z.k.k.Y.zXCXJX%XL.*XCXKXjXcXcXGXSXS.<.g.s.b.1.K u r 4 g h h e e z h ",
"h 4 4 h p p 4 h + < h 1 - o :.l.p.C.p.:.*XCXKX9Xn.=XMXCXF.F.UXGXcXqXf.C.C.c.! > I t 4 g h h z z B c ",
"x p < g % @ @ 4 4 # @ $ 7 S X.i.g.U.J.f.3.wXZXyXn.>X>.D.H.R.UXfX8XzXp.T.Z.,.J > Z 8 2 4 h e m z z k ",
"V a < 5 1 1 4 z 2 l @ + r K E <.a.K.hXhXN.{.nXtXn.<X(.(.*XN.*XP.*XyX>X>X3.+.A q G H ; u , t t w 5 4 ",
"f f h k k h 4 h w w & & e > X -.,.H.HXzX].}.yXNXm.-XrXiXiXy.c.;X,XnXqXU.3.Y G G A D ( ) = t = e r 5 ",
"f j h k k 4 < z v v & & r ; X ;.3.tXPXCX{.~.sXVXL.x.iXuXuXoX4X;X,XlXY.f.>.o J J o ~ 4.=.K u + r 3 3 ",
"% % 5 h 4 $ < 5 z w * * r > o >.,.CXPXFX|.|.pXVXeX&.+X+X$X#XaX(.1XzXI.i.:.o F Y X.$.b.<.W K = t r r ",
"# 2 2 p p $ < g z w s l 5 A ..3.6.MXIXFX1XpX1XVXbXv.{.^.@X$XuX/.wXkXd.d.d.X.T X.$.C.s.i.o.D y e t t ",
"r 2 4 4 p p z z v l l 4 7 F O.5.5.MXIXJXsXpX1XDXlXb.{. X^.$X3Xv.yX0X} l.l.f.>.3.q.Z.k.q.>.S I e Z B ",
"e r 4 p g j g l w e 5 8 J ! ,.f.].nXJXJXaXsXaXDXMXx.2X.XQ..X7X&.mX,Xp.j.j.p.w.y.B.[.V.q.3.F u e t t ",
"w w w s g g g 4 w 3 q S Y >.c.s.=XyXSXFXvXVXDXSXtXa.2X.X~.+Xv.(.aX].q.k.j.e.q.t.[.}.[.t.3.~ > t 3 r ",
"w l l 4 2 4 s l & m A X >.x.8.C.:X;XBXBXwXZXPXSXL.N.4X.X2X7X3.eXrX{.A.V.k.V.[.'.!.'.'.q.c.T : 3 = 2 ",
"* * w 5 w 5 % s % 0 .  .:.s.e.Z.}.'.7XVXwXD.gXP.m.].iX X|.(.m.nX;XoX'.'.'._.!..X~.'._.7.c. .S 3 r 2 ",
"& * w M B 5 % s 4 ; F -.0.j.j.Z.'.Q.pXpXNXMXD.<.m.iX.XQ.6X(.0XaX}.`.+XoX~..XXXOX X'._.w.s.X.S = r 2 ",
"& @ 2 M t 5 % s w = E 5.p.e.e.Z.!.XX#XuX0X0XCX0Xm.;X X+X6X6.bXyXrXoXOX@X^.^.#XXX X'.A.0.,.O > + = * ",
"* @ & l z 3 2 4 w = W 5.s.9.e.V.'.XX#XOXv.,.L.kX<X$.oXiX/.;X<XU.-X:X`. X#X#X$X^.'.}.A.,.-.Y > r r w ",
"* @ & % 5 5 2 5 t > W 5.f.r.e.B..X~.@XuX7.0.s.@.qX<X;X5XM.5X{ 8.s.w.7.Q.$X#X$X X'.[.M.>.! . = r w w ",
"5 2 % p 5 5 5 3 5 ; F -.a.s.9.B.u.3XOXoXB.q.q.8.H.hX>X>X=XC.{ z.l.{ w.u..X@XXX.X'.A.,.! K = + 2 w w ",
"5 5 % p 4 e 9 3 = = A E #.a.0.c.}.).oX4X:Xw.{ j.J.R.qXT.C.p.z.| } j.9.u.4XXXQ.+X].3.T S i * r r w r ",
"5 w l l 4 3 r r + + 6 : F o.>.3.x.].!. XoX}.r.9.p.I.qXI.k.p.j.| l.| 9.[.iX+X|.W.+.R : ; t 3 2 2 r r ",
"4 5 l 4 % & 2 4 # # , 6 - S ~  .%.%.&.Q.`.oX:X[.p.d.I.p.8.} | j.z.z.9.A.|.&.~ S F G = # 3 3 = r + + "
};
