/* XPM */
static char *_1676042517[] = {
/* columns rows colors chars-per-pixel */
"50 50 255 2 ",
"   c #3A3B00",
".  c #4A3804",
"X  c #593600",
"o  c #512E00",
"O  c #772E00",
"+  c #683801",
"@  c #763802",
"#  c #1A4C04",
"$  c #155501",
"%  c #1D5504",
"&  c #1D5B05",
"*  c #1D5309",
"=  c #1D5C0A",
"-  c #165C06",
";  c #1B5812",
":  c #0E5703",
">  c #234E03",
",  c #2B4C03",
"<  c #264C0B",
"1  c #3C4401",
"2  c #3B4B04",
"3  c #354A06",
"4  c #235504",
"5  c #2B5303",
"6  c #225B06",
"7  c #2A5C05",
"8  c #24550B",
"9  c #2B540C",
"0  c #235C0C",
"q  c #2A5C0C",
"w  c #325303",
"e  c #3C5304",
"r  c #33550C",
"t  c #3C540C",
"y  c #335C0C",
"u  c #3C5C0D",
"i  c #335B03",
"p  c #2C5412",
"a  c #245C12",
"s  c #2B5D11",
"d  c #295918",
"f  c #315614",
"g  c #325B14",
"h  c #385916",
"j  c #2E4F18",
"k  c #1D620B",
"l  c #186407",
"z  c #1B6812",
"x  c #24620D",
"c  c #2B620E",
"v  c #236B0E",
"b  c #256609",
"n  c #35610E",
"m  c #256311",
"M  c #2B6412",
"N  c #256A13",
"B  c #2B6914",
"V  c #296C19",
"C  c #326313",
"Z  c #396413",
"A  c #336A15",
"S  c #34641A",
"D  c #346C1A",
"F  c #3A661B",
"G  c #2A7213",
"H  c #396621",
"J  c #434301",
"K  c #444B02",
"L  c #494A08",
"P  c #5B4402",
"I  c #574808",
"U  c #495409",
"Y  c #585308",
"T  c #475914",
"R  c #575813",
"E  c #504E13",
"W  c #634404",
"Q  c #674805",
"!  c #764A09",
"~  c #76540B",
"^  c #674C12",
"/  c #774B15",
"(  c #665814",
")  c #795516",
"_  c #6A560B",
"`  c #476618",
"'  c #566216",
"]  c #40610A",
"[  c #646219",
"{  c #746414",
"}  c #685E20",
"|  c #766B28",
" . c #5A5E23",
".. c #767E42",
"X. c #873E08",
"o. c #933B01",
"O. c #8D3B15",
"+. c #AC3B02",
"@. c #B73604",
"#. c #B82D0A",
"$. c #C73716",
"%. c #EC3E28",
"&. c #974405",
"*. c #845409",
"=. c #864815",
"-. c #964C16",
";. c #87561A",
":. c #995C18",
">. c #8D490F",
",. c #BA4606",
"<. c #A75717",
"1. c #B9591B",
"2. c #B35506",
"3. c #966717",
"4. c #86641E",
"5. c #A6751B",
"6. c #AE6911",
"7. c #9A5624",
"8. c #8E5125",
"9. c #BD4C23",
"0. c #AA5827",
"q. c #B95C28",
"w. c #B95B33",
"e. c #B24F2E",
"r. c #9A682D",
"t. c #986833",
"y. c #8C6B2F",
"u. c #A3642B",
"i. c #B86626",
"p. c #A66937",
"a. c #B96536",
"s. c #C64B0A",
"d. c #D84B0B",
"f. c #C75508",
"g. c #D75A04",
"h. c #D8481A",
"j. c #CA5818",
"k. c #D75619",
"l. c #C74A14",
"z. c #E7481A",
"x. c #E15B15",
"c. c #C76C1C",
"v. c #D9661A",
"b. c #D6741A",
"n. c #CF6E0D",
"m. c #E7741A",
"M. c #E36B1A",
"N. c #D94B2A",
"B. c #C65928",
"V. c #D7572A",
"C. c #C65735",
"Z. c #D55536",
"A. c #D14C2D",
"S. c #E74927",
"D. c #E94C34",
"F. c #F64932",
"G. c #E55334",
"H. c #F1532B",
"J. c #C66A28",
"K. c #D46822",
"L. c #C97A26",
"P. c #DA6A3C",
"I. c #D26A2E",
"U. c #E66725",
"Y. c #E67B25",
"T. c #EA793C",
"R. c #FA7B38",
"E. c #F16F2C",
"W. c #BC7242",
"Q. c #AD6D41",
"!. c #D37847",
"~. c #F27A46",
"^. c #AF8724",
"/. c #B38A18",
"(. c #D68C12",
"). c #F9871A",
"_. c #E99718",
"`. c #F3981A",
"'. c #E88910",
"]. c #DDA219",
"[. c #E7A519",
"{. c #F9A31C",
"}. c #F6B91C",
"|. c #EFB014",
" X c #D48F2E",
".X c #ED8926",
"XX c #FC8C2A",
"oX c #F48A28",
"OX c #E99627",
"+X c #FD9A22",
"@X c #F89829",
"#X c #FA8836",
"$X c #FE9434",
"%X c #FA9736",
"&X c #E98F35",
"*X c #D9AE30",
"=X c #EAA627",
"-X c #FDA22C",
";X c #F5A627",
":X c #EEB32A",
">X c #FAB72A",
",X c #FEA233",
"<X c #FCA638",
"1X c #EBBB35",
"2X c #FDB737",
"3X c #EBA235",
"4X c #FBC619",
"5X c #ECC21E",
"6X c #F6C42A",
"7X c #FCD22A",
"8X c #EAC637",
"9X c #FDCC35",
"0X c #FDCB3A",
"qX c #F7C636",
"wX c #FCD337",
"eX c #FE8847",
"rX c #FD9741",
"tX c #EE9043",
"yX c #D5BC4C",
"uX c #E6BA4B",
"iX c #FCB744",
"pX c #EFAF49",
"aX c #D9BD63",
"sX c #DD8C5D",
"dX c #E8CD47",
"fX c #FBC848",
"gX c #EDD243",
"hX c #F9D547",
"jX c #E6C955",
"kX c #F8DA58",
"lX c #EED155",
"zX c #DBC66D",
"xX c #EBD26B",
"cX c #FCE878",
"vX c #9FA25B",
"bX c #ACB8A7",
"nX c #9AA682",
"mX c #E2CD86",
"MX c #E9D897",
"NX c #F0DB8D",
"BX c #FDF597",
"VX c #F9EA8E",
"CX c #C5C9B3",
"ZX c #F7E6AA",
"AX c #FBF2B2",
"SX c #CCC990",
"DX c #FEF8C8",
"FX c #F8EDD5",
"GX c #FEF8D5",
"HX c #F3F4D7",
"JX c #FEFEED",
"KX c #FBFBE6",
"LX c #F4FEFE",
"PX c #FDFFFB",
"IX c #F9FDF4",
/* pixels */
"G z k v v x 0 = a a a 0 0 = & - l G A 7 9 s C q x 5 [ ( n q 8 g A m x N C 7 % 6 % * x N N k z m m x ",
"v v v v N x 0 = = a 0 m 0 m m x l b v n g g M B c ] | ( i q f F D V N B x & & 0 6 % 0 M m = ; m V B ",
"l v G v x x x = 6 0 a m m M V A A v v G S M c A i ' r.*.e M S H D G D x 6 6 0 c 0 0 x m m k = m N M ",
"l v v b = x a = s m m m x M B A A c k v m q b A 2 ) a.0.U q S s B D B x 0 x B B x s m M m ; k V x x ",
"& b v & $ = 0 0 m m s = = x x B b b k l x x B T W -.Z.C.[ q q s M B N c q B B c B m M M N a m m m x ",
"b v x & $ $ = = m m 0 = = & x b b n N x x 0 i L -.9.N.Z.} i M N B B B b M B 0 6 M M M M m 0 0 0 N m ",
"v b x 0 = = 6 0 ; x 0 = k & x N b N B B b i U / q.S.N.A.{ U B N N b B b x 0 & 6 s M S S s a 0 0 x N ",
"c c 0 c x 0 a m x 0 x k & x x x b 6 b c i K ) q.G.D.%.A.;.U A l x m b B x % % 6 M A D A B s a 6 M x ",
"b c c B M M a M M m = = 6 & & b b $ 6 i Y ~ 0.G.D.F.D.B.=.Y c l x M c c 0 c x 6 c m A D H M 0 4 m M ",
"B c M B B M m V V d x = & & & 6 4 y n U ~ u.V.S.%.%.G.w.8.R Z b b c b c c x b 6 0 8 m C S B 8 q N B ",
"M B B B V m a N m V m 0 6 0 7 4 i e Y ) 0.V.V.S.%.F.G.w.^ U e w y c c C C M q q 0 8 8 m m m s m x x ",
"c m m s m a m a m M M x b A c 7 T I ) u.V.k.h.S.F.F.Z.8.L K I U u y c A A M q 0 x c m M M s m a 6 x ",
"B M x 0 = 0 z a a N B c c C c u I ;.a.B.z.z.k.N.F.G.e./ U T 4.| ` C n F D C 8 7 0 M B S M M a 6 0 x ",
"B M m = ; k m m m a 0 0 c c c U / e.V.G.z.z.k.U.H.A.8.E U | t.y.R Z Z Z Z c 6 % 6 m B B M m 0 * m M ",
"m M m x m m m m m 6 0 c c 7 7 U w.A.N.H.H.z.H.~.I.0.^ . + y.t./ R F Z g C c q % 8 m M m 0 a 0 0 q c ",
"q m N m x N m m a & & x B y U ^ C.D.S.h.z.H.R.~.1.=.L 3 / Q.t.Q R ' Z c y Z q & M N V 0 = 0 s c 8 x ",
"0 0 z V N x 0 & c l l - x u Q 0.A.S.S.d.E.#XeXv.3.W E . / Q./ + =.y.F & c u q 6 N V z z 0 q 5 9 q 8 ",
"M m N z M x x b b - - l N h / C.S.%.h.k.R.#XR.c.*.J E . 8.Q.) W 7.t.` k n r 5 c B V z z 8 9 9 y q 8 ",
"9 c m k x A D B q & l l G ` / w.G.z.d.Y.$X$Xb.6.Q   K . =.p./ + w.u.T q n w 5 4 M N V a 4 4 4 M 6 8 ",
"4 8 x = m A D A M b b k b u / w.N.S.k.m.oX%XK.1.Q   J P 7.a.=.@ C.u.Y t T U e 5 c m m 9 9 4 0 b a 8 ",
"> q m 0 q C c 8 C C N b x r ^ w.N.S.M..XXX$Xx.B.=.o X =.C.P.-.=.w.0.^ L Y [ [ T C M s s s C B B M M ",
"> 4 c x M q b % q q c & & r ^ u.V.z.m.$X$XXXx.V.0.@ =.0.P.~.7./ w.w./ X Q 4.y.Y c x 8 s s B B B m s ",
"4 8 0 M B B b 6 4 q q 6 x q E 7.Z.h.M..XXXm.z.F.Z.e.9.B.G.P.=.+ 0.w.0.X.&.:.u._ i l 6 a s m q q q 0 ",
"q 0 M V B x & $ 4 4 0 4 m s E ) Z.$.b.n.b.m.H.H.D.D.Z.V.U.P.) o -.w.B.j.1.J.J.;.e 6 m s m 0 q q 0 8 ",
"A B N N M k - - M q C A k s T / C.N.2.OX,Xn.$.$.$.$.@.,.V.&.^ I =.C.B.B.j.v.tX<.U Z q a = % c C c c ",
"A M l & k m z k c C h C k x t ^ C.N.&.&X3X6.+.@.#.#.#.s.K.&.P P O.B.k.U.Y.R.%X<.Y ` f p s 8 c b c c ",
"M b - : $ z z k 0 Z h p m m f . e.A.@.b. X(.2.+.#.@.s.Y.#X2.Q + o.l.k.#X#X#X%Xi.! _ t 3 S s 6 b B B ",
"x 0 - $ - k z - 8 h t < m V f L O.A.k.v. XpX3Xc.I.K..X%XrXc.<.o.+.h.x.#X%X.X#Xc.&.;.L 3 F s & x M c ",
"& x x x 0 = l $ 8 h L 3 8 M d L O.9.h.U.rXiXiX%XoXXX@X<X&Xv.j.j.k.k.g.XX<X@XoXg.&.:.R f ` M 0 N b c ",
"% 0 M B m x - = 9 t T T 8 a f 2 W 0.B.d..X<X<X@X`.+X=XiXOXn.s.d.k.k.v.XX-X-X@Xv.,.<.R r h f m N c c ",
"c 6 0 B m 6 - m p 2  . .9 8 g 3 K 4.I.s.m.<X2X}.{.>X6XhX*Xb.x.g.k.M.XX$X+X+X+XM.k.0.R r g y c c A A ",
"A 6 % 6 8 * % s 3   } | L L T U K _ 1.f.Y.+X>X9X>X9XwXhX].;X+XE.#X%X%X,X+X+X).g.M.i.( f f f Z 7 C c ",
"D c 4 s M d r ` ' J P r.7.+ Q W X =.q.f.m.<X_.6X0X0X9XqX:X=X;X3X(.3X<X@XOX@X).).XXK.! 2 s m q r q 8 ",
"Z A s M V a t R | P X :.i.0.8.+ @ o.q.j..X-X_.qXhXqX1XfXfX>X].=X[.].2XiX_._.@X).XXb.*.J 9 ; 4 7 q a ",
"n c x N V ; 2 R y.*.X Q 7.Q.t.O.=.-.1.b.@X+X[.0X1XhXkXfXfXfX:X|.6X6X:X=X_.{.{.`.XXL.~ J 9 m 9 5 8 9 ",
"4 7 = z z * 3 E t.p.! X / t.Q.W.i.I.b..X-X;X:XqX*XkXcXxXlXfX7X4X9XwX:X_._.|.{.;XOXL.~ 1 < d p 9 q 9 ",
"4 6 - l ; - 3 I 8.W.0.+ X ) Q.sXtXeX#X@X-X;X1XqX8XgXcXBXxXdX7X7X4X6X9X6X(.|.>X2XOX^._ 1 p H j g g C ",
"4 b k - k a r E ) Q.!.-.W Q >.a.T.#X$X+X;X;XqX9XwXdXVXBXNXxX7X5X5X6XwXwX}.}.>X2X X5._ 2 f d j h H S ",
"& x x = M C s T ^ p.!.B.&.>.O &.v.m.oX_._.>X6X9XwXgXxXBXZXNXqX}.8XkXwX7XwXwX>X[. X5.Y L S d j g g g ",
"% x x 6 g C 0 7 1 4.!.T.i.&.O o.f.g.)._._.`.;X4X7X8XlXBXDXNX*XkXkXgXgXgX8XwX2X@X(.3.I h H H f g 9 9 ",
"m ; a a r 9 6 b i Y J.eX~.v.2.2.f.g.n.`.`._.`.|.4X7XjXNXHXZXaXxXcXxXlXhXhXfXiXoXc.;.Y r s s p 9 > 8 ",
"d d m m f 7 k b 7 K :.T.eX#X.Xn.b.m.'.`.@X`.|.|.4X7XlXNXHXFXMXMXMXzXcXcXkXiX%XY.L.;.J 5 a a 8 9 8 8 ",
"p 8 a m M 7 k l 7 w ! 6.T.eX%X$X.X).@X-X%X@X_.'.}.7XjXmXFXJXHXDXAXMXVXBXkXpX%XtXi.! 1 > q * < 8 8 a ",
"< 8 ; V M q 7 8 6 w I *.i.#X%X$X).@X-X@X;X@X[.'.}.qXjXmXGXPXPXJXKXDXAXVXuXpX3XsX! P , 9 C d * * 8 0 ",
"8 8 ; m m x 8 q p , , L 3.L..XY.@X,X-X`._.=X:X8X1XdXzXZXJXPXLXPXJXGXBXzXuXpX X5.P 2 3 p f f 8 * ; ; ",
"; ; * = k = p f g < # , Y 3.i.Y.%X<X2X2X>X>X8XgX*XyXmXDXJXPXLXLXIXGXMXzXuXuX^.Y e y s < , < a ; d a ",
"z - 8 q 0 0 d j j d ; : 1 P :.L.b.OX<X0X0X9XgXlXxXNXZXFXJXPXLXLXKXFXNXaX*X/.{ e 6 l 8 < 3 3 ; ; d a ",
"z = q y m m p j < d ; - r K + *.5.(.OX;X>X8XgXlXBXAXGXFXFXIXLXLXHXAXNXaX^.Y 1 i - : * f h j a ; ; ; ",
"; m C s a 6 a a # # ; ; 4 r t K Q *.5. X=X}.8XfXcXAXDXGXJXIXLXHXHXSXvX| e 2 5 5 0 = * 8 p p < a d * ",
"8 q m 0 8 = & 8 $ % 6 0 % 8 s r J X + *.6.6.].1XuXzXSXCXCXbXbXnX..T K w , 5 9 6 0 8 * * d p # p < # "
};
