/* XPM */
static char *_1676042517[] = {
/* columns rows colors chars-per-pixel */
"50 50 256 2 ",
"   c #393C00",
".  c #4E3F02",
"X  c #593B02",
"o  c #683B07",
"O  c #733A04",
"+  c #703409",
"@  c #1C4D03",
"#  c #155502",
"$  c #1C5404",
"%  c #1B5B05",
"&  c #1D5609",
"*  c #145D0B",
"=  c #1D5C0A",
"-  c #145805",
";  c #1E5E12",
":  c #1D5518",
">  c #155311",
",  c #284D07",
"<  c #3A4400",
"1  c #3F4C0B",
"2  c #374A04",
"3  c #235404",
"4  c #2B5405",
"5  c #235B06",
"6  c #2C5A04",
"7  c #24550B",
"8  c #2B540C",
"9  c #245C0C",
"0  c #2B5C0C",
"q  c #345305",
"w  c #3B5402",
"e  c #34540B",
"r  c #3C530B",
"t  c #325C0D",
"y  c #395A0C",
"u  c #3A5B05",
"i  c #245C12",
"p  c #2C5D12",
"a  c #265615",
"s  c #335C14",
"d  c #3B5B11",
"f  c #365815",
"g  c #3C4D12",
"h  c #1D620B",
"j  c #16630A",
"k  c #1D6411",
"l  c #1A6613",
"z  c #0E6109",
"x  c #23620D",
"c  c #2A620D",
"v  c #286508",
"b  c #33640B",
"n  c #386307",
"m  c #256412",
"M  c #2B6413",
"N  c #246A13",
"B  c #2B6A14",
"V  c #2C651A",
"C  c #256B19",
"Z  c #2B6B1A",
"A  c #256319",
"S  c #336313",
"D  c #346B13",
"F  c #336419",
"G  c #356C1A",
"H  c #3B6518",
"J  c #2B721A",
"K  c #277018",
"L  c #33711C",
"P  c #434C04",
"I  c #494A07",
"U  c #544303",
"Y  c #534A0B",
"T  c #5B4B0A",
"R  c #584605",
"E  c #43530B",
"W  c #475707",
"Q  c #5C510C",
"!  c #54550A",
"~  c #444D17",
"^  c #584D13",
"/  c #445C13",
"(  c #485813",
")  c #5C5517",
"_  c #6C4C01",
"`  c #644A09",
"'  c #78460A",
"]  c #654A10",
"[  c #6C4D17",
"{  c #7A4B14",
"}  c #675516",
"|  c #775517",
" . c #695606",
".. c #466517",
"X. c #58681B",
"o. c #5C600C",
"O. c #6B6318",
"+. c #6F5921",
"@. c #716D2E",
"#. c #5A6523",
"$. c #892D04",
"%. c #96370D",
"&. c #A83706",
"*. c #B43713",
"=. c #D33B17",
"-. c #884806",
";. c #994708",
":. c #864B19",
">. c #9A4919",
",. c #88551B",
"<. c #97581E",
"1. c #82530F",
"2. c #B44708",
"3. c #B6570E",
"4. c #B74717",
"5. c #A65618",
"6. c #B7551A",
"7. c #A74410",
"8. c #8F6C12",
"9. c #B66515",
"0. c #8B5924",
"q. c #975824",
"w. c #A95927",
"e. c #B85829",
"r. c #B3502A",
"t. c #876529",
"y. c #97652B",
"u. c #996833",
"i. c #87732E",
"p. c #A46328",
"a. c #B86626",
"s. c #A76435",
"d. c #B86838",
"f. c #B6722C",
"g. c #C44802",
"h. c #DA460C",
"j. c #C55805",
"k. c #D35204",
"l. c #C64B18",
"z. c #D64817",
"x. c #C45716",
"c. c #D65518",
"v. c #E74C17",
"b. c #E65717",
"n. c #EA4D14",
"m. c #C5661A",
"M. c #D9671B",
"N. c #D66F10",
"B. c #EA7518",
"V. c #EB6F14",
"C. c #CB4724",
"Z. c #D94A27",
"A. c #C85825",
"S. c #D85628",
"D. c #C85B34",
"F. c #DA5736",
"G. c #DA4A30",
"H. c #E74C25",
"J. c #E55927",
"K. c #E65833",
"L. c #EC5233",
"P. c #C76328",
"I. c #D86726",
"U. c #D97929",
"Y. c #C76637",
"T. c #D76738",
"R. c #CA7034",
"E. c #D77735",
"W. c #E66827",
"Q. c #E67529",
"!. c #F77A27",
"~. c #E96634",
"^. c #FB7938",
"/. c #EE6D35",
"(. c #D65D40",
"). c #E36C46",
"_. c #F86F46",
"`. c #CA6740",
"'. c #B69129",
"]. c #D29716",
"[. c #EA8D17",
"{. c #E99817",
"}. c #F89818",
"|. c #F49017",
" X c #E7A419",
".X c #F5A816",
"XX c #F2B214",
"oX c #CF902B",
"OX c #EA8427",
"+X c #F78927",
"@X c #E99928",
"#X c #FF952C",
"$X c #F79A29",
"%X c #E98835",
"&X c #FA8937",
"*X c #FF9434",
"=X c #FF9C32",
"-X c #FE9D3A",
";X c #F9983A",
":X c #E49B34",
">X c #DEB230",
",X c #FEA32C",
"<X c #F9A826",
"1X c #F8B627",
"2X c #FAA836",
"3X c #EAB837",
"4X c #FFBB32",
"5X c #EBB028",
"6X c #F8C429",
"7X c #EFC535",
"8X c #FAC537",
"9X c #FFD335",
"0X c #FD9745",
"qX c #F48845",
"wX c #FCA448",
"eX c #F5BC44",
"rX c #EBB953",
"tX c #E8B448",
"yX c #D3B965",
"uX c #E5BC62",
"iX c #E6C546",
"pX c #FBCA46",
"aX c #EBC85A",
"sX c #F8C85A",
"dX c #F3D253",
"fX c #F8CC68",
"gX c #F8D368",
"hX c #FBD576",
"jX c #E9D175",
"kX c #D6C050",
"lX c #FBDA88",
"zX c #F1DA8F",
"xX c #FBE389",
"cX c #FFE994",
"vX c #FBDFA0",
"bX c #FBE5A7",
"nX c #FFF3A7",
"mX c #FAEDB5",
"MX c #FFFABA",
"NX c #EDE8B1",
"BX c #DCD297",
"VX c #E8DED1",
"CX c #FFFBC7",
"ZX c #FFFBD5",
"AX c #FFFCD9",
"SX c #EFE8D3",
"DX c #E4DEE2",
"FX c #E8EAE7",
"GX c #EAF4E7",
"HX c #FFFEE3",
"JX c #FDFCEC",
"KX c #F4F5E9",
"LX c #FDFDFC",
"PX c #F8F9F7",
"IX c #F1EEF3",
"UX c #DEE3E9",
/* pixels */
"Z N m N m N = = = h h h 9 = % # v v N M a a i x 6 u W W ..n $ h N v v S t 6 * * z * x B F 9 = v N x ",
"N N N N m k h * % = x N N x m x v v B B s p N B n w ! O.X.n 5 L K K S b e 9 = j z * 9 M M 5 h x B B ",
"N N Z N m N h % = = x x m B B Z v B B V M i N B / W | i.O./ s G J L G b 4 0 9 N j = 9 p t 9 = N N c ",
"% N B x % x x % x m x x x m B B N M N m i 9 N b W | p.y.) ( H p N Z D 0 0 p V N k m 0 F 0 5 v x x 9 ",
"= N N % # = = = M m 9 9 9 9 M M v x m x = 9 v u T <.d.q.T E F i N B B c p F V m V B S d t 0 v x x v ",
"9 B m % # # % % m m 9 = = 9 9 M M M i k h x n W ,.w.D.w.Y e F V l N M M M M M = M M s S 0 0 5 v N N ",
"M N M 9 = % 9 9 0 9 9 % % 9 c B p V m h x v y T 5.T.D.>.Y S V C k N N B M 9 & & p F F S b 6 5 % v N ",
"M 9 9 m 0 9 9 M x 9 9 7 9 0 M F s p m N x v W R 5.).).>.T ..F = m x B N A % $ & M F G H B 0 h h x x ",
"M i x B B M 9 M F M 9 7 9 9 9 9 7 M x h v D n P <.Y.).D.0.) / 6 c D M h * h m = p p F G L v % % x N ",
"B M M B F M M B B M 9 9 7 9 9 3 % = x B D v n W | w.).).w.|  .P q b M x h l N 9 9 9 9 B B x h = B B ",
"M M B V B M p m M M c 9 9 0 9 9 * = x D n v v n W ,.Y.).T.6.-._ I q c B B l x 9 9 9 = x N h x N x x ",
"M M x M x x 9 M 9 M B 9 0 M B x N l v b u u n v W  .e.~.K.W.m.-.` E u D J N h N i m N N N h h x = 5 ",
"N m x = 9 = 9 x 9 m B m M M B M C N x 6 W X.X.u W Q >.A.~._.!.3.1.Q W ..G x = 9 p V Z C C k i = x x ",
"M M m = = x M N 9 m c m M M M 9 c c v 6 Q i.i.Q W R ' 7.W.qX&Xm.p.| ! / D N 5 3 7 p V Z A k i 9 c M ",
"N N x x x N m x M 9 = x m 9 9 c e 6 v u T u.d.0.` U o -.m.&X#XOXf.q.Q W S b 9 3 8 p V A ; i i 9 0 0 ",
"9 N M 9 m M M 9 M % $ x N 9 0 S / q v 6 U q.`.r.<.' O -.9.OX=X;XE.y. .P u S 0 & p V V 9 = = p M 9 0 ",
"h 9 c F B c 5 5 b $ % j l J 0 d ~ 1 3 6 < 0.D.C.F.A.6.3.M.+X}.2X%Xf._ W u 6 x m C V f f i = h 9 9 9 ",
"M M M M M c 0 6 S 6 h j l D e I +.^ e 4 1 [ D.L.H.H.c.g.b.#X,X[.&Xa. .W W 6 % k C V F f 9 = = x 9 7 ",
"7 0 s 0 c B J B c 5 = h B ..Y } u.[ ( 4 f ~ w.F.H.H.W.V.B.#X=X$XqXa. .n n h % - l A F a 3 $ % M 7 7 ",
"$ 0 6 9 x Z J B c 0 x v b / ] 0.d.:.Y e V   :.(.H.v.^.*X+X+X+X;XQ.a.o.n v v % % A A f a 7 3 0 S 9 7 ",
"$ 9 p 0 h N N j c B B c 6 r R y.Y.5.R ~ s g + D.H.n.!.;X#X2XOXU.I.q.W % v N c 9 C C m 0 p s S F M F ",
"@ 5 0 c x N h % 5 c c % 9 q Y u.R.P.{ ) g ~ + 4.J.h.B.;X-X;XOXx.r.:.E 5 h B B c N l h 9 s S H S p M ",
"# % x M B x 9 3 3 0 h # N t E i.P.E.w.[ ^ U + 4.J.h.%XwX%XN.9.5.:.[ ( d c c t 0 x h % h 9 0 s p 9 7 ",
"j h M Z B c 5 3 4 6 6 % D s < 0.e./.R.-.| ' >.A.S.I.0XqX9.9.5._ R ) #...d w e 4 9 h h x c 9 0 8 0 9 ",
"C N B B M 9 4 4 y d H 0 e / ^ { A.I.A.a.p.;.2.g.&.3.qXr.&.;.' R E 1 +.@.} < 2 t b c = * % 5 p S 0 x ",
"K N c 9 9 c 0 t ..) X./ E Y + + F.J.S.E.U.&.&.&.2.4.Y.*.&.%.X W y E +.t.+.Y E H S c x h h = p F c c ",
"Z m 3 $ % x S t ..X.@.@.@.t.w.*.*.=.l.M.U.j.2.j.OXE.T.4.C.7.X P q P 0.d.q.o ~ ..t 0 9 h h h 9 M S b ",
"9 x 7 @ $ 9 5 4 q r / } t.s.`.G.=.L.Z.W.*X;X*X2X:XwX0X~.K.D.{ W w U >.Y.s.] 1 8 , 3 = k m m 9 c B B ",
"& 0 0 9 = h % 3 q q 2 < Y [ r.(.G.G.=.c.&X-X+X#X@X<X2X^.J.S.q.| _ -.4.`.s.` < 8 8 , % A M p 0 0 c c ",
"% 9 B B x h = 5 4 t y e < . :.e.F.L.H.h.b.*X,X<X1X{.@X#Xb.c.A.w.5.6.F.T.y.^ r s a p ; A F S 0 c c M ",
"h h x N h % % v @ 3 c c 7 , Y { D.H.L.=.h.+X2X.X6XXXXX.X!.b.Z.Z.J.J._.T.,.! E s F i ; i f d t 0 D D ",
"N * # % h # $ 9 0 $ # * h 0 r T w.Z././.k.V.}.1X8X9X X X+X!.h.v.n.J.^.E.O.y s a f a = i d / s c M c ",
"J l h h v 9 6 s 4 p * # & p f Y >.l.W.&Xk.|.[.5XsXpX3X{.@X,X#X+XB.;X^.5.W D $ t d q % 6 r P e p 0 7 ",
"J l N N c 6 t y f p * > : i 8 U :.A.U.#XB.{.}.2XsXfXrX>X X{.}.$X=XOXW.a.P 9 t W O.! 6 4 1 1 8 a i p ",
"C N v N c 5 6 t p p * > ; i , . >.S.M.#X}.}.XXpXiXhXsXtX5X{.<X,XwXOXx.;.. I X | u.| 6 $ , 8 & & 7 7 ",
"= h h v v 5 4 0 M A * * ; 8 e X r.S.Q.*X.X.X1X8XrXxXhXsX8X1X8X,X+XQ.l.$.+ ] %.r.Y.0.E 3 8 a ; ; 9 0 ",
"& & % h 5 % 5 0 A l l * i 8 < ` e.l.&X=X.XXX9X7XhXnXcXaXdX9X8X,XOXx.S.4.%.%.F.F.T.r.^ , a A A = M s ",
"7 9 9 h 5 v 0 B l l l l p q I ' A.c.qX=X{.6X7XkXcXMXbXjXiXpX4X<XN.g.S.K.C.C.J._.~.e.[ ~ a i m x F F ",
"i 9 9 x x c c x A l l i e I ] q.3.Q.#X$XXX6XiXjXMXZXCXjXiX7X X X[.k.z.v.K.H.W.qX~.a.0.~ f a 9 9 F s ",
"i 9 9 h x x x h l ; = 7 r X :.d.x.*XOX].XX7XdXxXZXHXAXbXaXpX]. X|.k.b.h.c.W.&X&XI.P.q.[ ~ f 0 0 7 8 ",
"i m x % = 9 c m ; & i 8 . { d.A.j.;X$X5X5XiXjXMXJXPXJXCXxX>X].{.$XV.!.V.B.#X$XOXOX3.s.o ~ f 0 3 @ 7 ",
"9 = x c c 9 9 9 i i p 1 . :.D.S.[.|.{.8XiXkXBXAXLXLXLXSXlXdX3X@X$X#X#X|.,X<X|.#X+Xx.w.X ~ f 8 7 7 7 ",
"= = 9 N c x 7 0 i 7 s E [ w.C.S.V.[.<XpXdXjXNXJXLXPXIXSXbXjXrX3X@X@X<X5X1X.X}.#X!.P.w.X r i 8 8 7 i ",
"& # = B B 5 7 p a $ f < | Y.C.h.N.<X4XpXaXnXAXGXIXIXIXJXZXvXjXfXrXtX3X7X6X1X<X-XW.I.<.U y p : & & 9 ",
"; # & m M 3 4 0 V @ 8   | Y.C.h.!.,X4XpXgXMXJXPXUXIXPXPXJXZXmXzXlXcXiX>X9X1X{.0XW.P.1.< 6 i & a : i ",
"; $ & 9 c 4 8 p M @ 3 < [ d.C.z.!.=X1XpXhXCXJXPXFXFXIXPXLXPXZXCXCXbXaX3X6X1X$X&XT.w.` < 3 = : : a i ",
"9 9 = 9 0 t 8 8 i & 7 2 ` q.F.z.c.&X4XeXhXCXZXFXGXGXGXPXLXLXJXHXHXmXhXsX1X5XtXU.e.1.U q 3 & : : a i ",
"9 i 9 8 0 p p 8 & @ 3 4 . { Y.A.l.U.$X2XfXmXVXJXPXPXGXGXIXLXPXKXFXAXxXsX3XoXoXf.:.X   y 6 a : : : : ",
"x m M p 9 9 9 9 @ @ 9 9 , P } :.w.R.oX@XtXuXvXZXAXJXLXIXPXPXGXFXJXZXxXgXtXoX8.! P 2 , , 0 7 : a a 7 ",
"% 9 0 0 9 & & 7 7 @ = = $ 8 Y ] + ;.;.9.].'.yXBXVXDXDXDXDXFXFXKXJXSXyX'.8._ U < e 9 : @ 0 7 , a , @ "
};
