/* XPM */
static char *_1676042518[] = {
/* columns rows colors chars-per-pixel */
"50 50 253 2 ",
"   c #3C3A00",
".  c #483B03",
"X  c #5A3D03",
"o  c #543800",
"O  c #663C06",
"+  c #773706",
"@  c #782E0B",
"#  c #1A4D02",
"$  c #154900",
"%  c #155502",
"&  c #1B5404",
"*  c #1C5B05",
"=  c #1C550C",
"-  c #1D5C0A",
";  c #155A08",
":  c #1B5F11",
">  c #2B4C02",
",  c #254C06",
"<  c #3B4300",
"1  c #344C03",
"2  c #394A08",
"3  c #225404",
"4  c #2B5505",
"5  c #245B06",
"6  c #2B5C03",
"7  c #23550B",
"8  c #2C550D",
"9  c #245C0B",
"0  c #2A5C0C",
"q  c #3B5303",
"w  c #34540C",
"e  c #3B550B",
"r  c #335C0C",
"t  c #385906",
"y  c #2C4F10",
"u  c #314C11",
"i  c #265412",
"p  c #245C11",
"a  c #2B5D12",
"s  c #2B5816",
"d  c #345412",
"f  c #345C14",
"g  c #3A5B13",
"h  c #385818",
"j  c #0D6109",
"k  c #1C620B",
"l  c #18650B",
"z  c #1D6411",
"x  c #196713",
"c  c #23620D",
"v  c #2A620D",
"b  c #24690C",
"n  c #28670A",
"m  c #386209",
"M  c #256412",
"N  c #2B6413",
"B  c #256A13",
"V  c #2B6A15",
"C  c #2D6419",
"Z  c #2C6C1A",
"A  c #256A1A",
"S  c #336313",
"D  c #35631A",
"F  c #346D1A",
"G  c #386715",
"H  c #297019",
"J  c #307119",
"K  c #434B04",
"L  c #494907",
"P  c #524302",
"I  c #574807",
"U  c #43530C",
"Y  c #485607",
"T  c #56530A",
"R  c #594B11",
"E  c #465A14",
"W  c #5A5514",
"Q  c #434E12",
"!  c #674907",
"~  c #744607",
"^  c #68520B",
"/  c #775405",
"(  c #6A4B13",
")  c #784D14",
"_  c #695817",
"`  c #78541B",
"'  c #4A661B",
"]  c #59671A",
"[  c #6A6210",
"{  c #715324",
"}  c #736C2B",
"|  c #586422",
" . c #913C11",
".. c #B03809",
"X. c #CD3F1C",
"o. c #D03E25",
"O. c #E33F24",
"+. c #86460A",
"@. c #964A06",
"#. c #884B17",
"$. c #954718",
"%. c #88561A",
"&. c #99561A",
"*. c #85590E",
"=. c #A74A18",
"-. c #B8571A",
";. c #AE5014",
":. c #8F6B15",
">. c #B9611A",
",. c #AA6A17",
"<. c #8C5826",
"1. c #975724",
"2. c #944A25",
"3. c #A85A26",
"4. c #B85829",
"5. c #AC5A33",
"6. c #B35B32",
"7. c #AD4926",
"8. c #8B672D",
"9. c #97632A",
"0. c #916E31",
"q. c #A96325",
"w. c #B4632A",
"e. c #A86437",
"r. c #BA6536",
"t. c #BA7538",
"y. c #D64419",
"u. c #C85919",
"i. c #DB571A",
"p. c #C84E12",
"a. c #E54719",
"s. c #E15218",
"d. c #C36419",
"f. c #D36F12",
"g. c #E26E19",
"h. c #C94B24",
"j. c #DB4A23",
"k. c #CA582A",
"l. c #D45627",
"z. c #C75B36",
"x. c #D55835",
"c. c #DB4930",
"v. c #E54C28",
"b. c #E65929",
"n. c #E95536",
"m. c #E34B36",
"M. c #C86829",
"N. c #DA6429",
"B. c #C96438",
"V. c #D56737",
"C. c #DA7637",
"Z. c #C9752E",
"A. c #E56729",
"S. c #E97539",
"D. c #F67936",
"F. c #ED6F31",
"G. c #B16D4A",
"H. c #A67957",
"J. c #D35B42",
"K. c #F05D43",
"L. c #DE6742",
"P. c #CE6B4A",
"I. c #E97645",
"U. c #ED6E4B",
"Y. c #E27B68",
"T. c #B78E30",
"R. c #C89C0C",
"E. c #EC921A",
"W. c #EE9617",
"Q. c #D5AB1B",
"!. c #EDA81B",
"~. c #C9893B",
"^. c #D79633",
"/. c #D78E2B",
"(. c #E9882C",
"). c #FA9C29",
"_. c #F88635",
"`. c #E99934",
"'. c #FC9837",
"]. c #EE8D2D",
"[. c #D8A736",
"{. c #D2AF2C",
"}. c #EAA628",
"|. c #FAA92A",
" X c #FCA438",
".X c #FCBA37",
"XX c #F3B52F",
"oX c #FFC23F",
"OX c #BD8772",
"+X c #B6A25B",
"@X c #CD9947",
"#X c #C8885A",
"$X c #D58756",
"%X c #D0914D",
"&X c #F59841",
"*X c #EB9A57",
"=X c #FC9B55",
"-X c #EF8F49",
";X c #D8A748",
":X c #DDB149",
">X c #D1A94F",
",X c #FAA648",
"<X c #FFB845",
"1X c #E6AA59",
"2X c #FEA753",
"3X c #EAB04B",
"4X c #D08A6B",
"5X c #EA9976",
"6X c #EF9365",
"7X c #D8A865",
"8X c #D3AD71",
"9X c #F8A867",
"0X c #E7B769",
"qX c #F8B369",
"wX c #EBAD73",
"eX c #DBCB51",
"rX c #F1C852",
"tX c #DCC170",
"yX c #FFC668",
"uX c #F9D47D",
"iX c #F4C772",
"pX c #F3E67D",
"aX c #DC9C81",
"sX c #DBAF8D",
"dX c #EAB584",
"fX c #FBB99A",
"gX c #E8AC8C",
"hX c #FFB2A5",
"jX c #D6C186",
"kX c #F8CE88",
"lX c #FCD68B",
"zX c #FAD59B",
"xX c #E8CA8B",
"cX c #FCEB88",
"vX c #FDE398",
"bX c #FFFD9B",
"nX c #F9C9A7",
"mX c #FBD9A9",
"MX c #FDD6B2",
"NX c #FDCCB7",
"BX c #FFEBA9",
"VX c #FFF8AB",
"CX c #FFE4BC",
"ZX c #FCE5B7",
"AX c #FFF8B9",
"SX c #FFDAC8",
"DX c #FFE7C6",
"FX c #FFF6C8",
"GX c #FFE7D2",
"HX c #FFF4D3",
"JX c #FFF2DB",
"KX c #FFF9D5",
"LX c #FFF7E3",
/* pixels */
"Z B z M B k k - - k c c - - & % l b n S d u p k * m Y T ] m * c b n v m S 0 ; j j j c C S 9 k M c N ",
"B B V B B M k ; - - k M M b b b b b V S f f A V n q Y [ ] m 9 F H V S S r 3 ; l j j - N a 5 * b V V ",
"z B Z B M M c * * - c M M N V Z b V Z N a a N V t Y [ 8.] e g D Z J F r 6 8 c x l : c a r 9 c c V c ",
"* B Z k - k c - c M c c M M N Z n b B M M 9 N m L / 0.0.W E E 8 V J G r 8 N N A z M v S 0 6 c b c c ",
"- M N * % - c * M M c 9 9 9 N N N v M k : 9 6 Y ! &.e.<.T e h 8 M Z V N a D C M M N S f r 0 5 v c c ",
"M V M * % % * * N M 9 * * 9 c N N M M k k 0 m T %.3.w.&.T 8 h F V B N v N N M - N N S g w 6 6 c N b ",
"M M c 9 * * 9 9 9 9 5 = * 9 v C N C p M v r t I &.z.z.&.R r A Z B B N N N 9 = * M C D G m 0 5 c c b ",
"N c c N p 9 9 N v 9 9 9 9 0 N N a M M N v r Y T &.I.L.=.( ' S : c M M B M = ; 9 C D F G N v 0 * c N ",
"N M c N N N M N D N 9 9 0 9 9 0 - z 0 5 m m m Y %.B.L.B.<.W Y 6 m S V - ; z M * M a D F F v * * c b ",
"N N N Z Z N N N N N 9 5 9 9 5 = ; k c S G m m Y / 1.L.I.w.%.^ K e r v c b x z p 9 9 c N V n 5 c V V ",
"N N N V S N M N N N N 9 9 9 9 9 - x b V m m n m T ` M.U.V.-.@./ P e r V B x b M 9 9 p M M b c c c c ",
"N M N N c c 9 a 9 N N 9 N N N M B z n n 6 t m m E _ 3.V.V.N.u.@.! Y U G J M - M a p M M M c p M 5 9 ",
"M M c 9 - c c c 9 M N M N N N N V B c 5 t ] ] Y Y T #.k.F.D.F.u.*.^ Y ' F M - 9 a N C Z C M p 9 c c ",
"M V c - - c M N M c N M a N v c M v n 6 T 8.0.T Y P ~ @.l.-X_.g.q.%.W E G v 5 3 7 N C C M M s 3 v N ",
"M B c c c M M c N 9 * c c 9 9 0 6 6 n t ! e.t.<.( P O +.u._.'.(.Z.9.^ Y G S 0 3 a s C M p p s 8 0 0 ",
"c M N c M M N c N * & b B c v S r 4 n t X 1.B.4.%.~ + +.>.(.'. XC.q.! Y t S a 7 s D C p 3 9 a a 9 0 ",
"9 - N S N v 5 5 m & * l l H S r r 4 & r P &.u.p.u.l.7.h.C.'.).!.].>./ T 6 6 C s D h C p k 9 9 p 0 9 ",
"M N S N N v 0 v S 3 k l l V e q ] q 0 w L ) u.i.a.v.K.o.9X=XW.).].d.*.Y 0 9 s i D D C M 5 5 9 N i 7 ",
"9 0 r 0 v V V V v 5 5 k V ' T ( 0.W g 8 e P ;.i.v.v.K.J.zX1X}.E.].M.[ t V z = i s N N 9 & & 7 N 7 3 ",
"# 0 0 9 c H H Z v 9 n c v E _ <.t.#.L d S < +.k.j.K.Y.gXZX@X]._.D.M.[ n B x 7 i C N k k 3 3 a S p p ",
"3 0 N 0 k B l k v V V v 6 e R 9.B.=.O E h 2 ! w.z.J.Y.SXFXwXS.D.N.q.T * x H N a D B k k n r D D a N ",
"% 3 a 0 b B b & 5 v V * 5 1 I 9.V.V.#.R Q L . 2.J.2.sXGXHXdXZ.u.7.%.Y * x A D f V l l k v S S D N a ",
"% * c N V c 0 3 3 6 5 * n 0 U 8.k.S.5. .~ X O %.5.Y.GXLXSX#Xr.3. .( E N b N f 4 9 l l l 0 0 a a 0 9 ",
"l k N Z V c 5 3 w 6 5 * N 0 K 8.;.S.V. .$.+.#.e.G.nXNXGXNXe.e.+ I R | ' e r r 3 9 k k l c 9 0 a 9 9 ",
"B B V C V c 4 4 E E S t r U W ~ ,.C.k.h.x.;. .1.P.wX4XSXH.2.{ R Q 2 W } _ < 1 r v c - k l - N S N 0 ",
"H A v 9 0 v 0 w E E ' ' U L O + -.p.k.I.N... .$.#Xt.H.gXP.@ X u g e { 8.` I e m S c c z l - 9 v N S ",
"B M 3 # * v v r ' ] | } } 8.2.....y.l.U.S.@.&.P.9XZ.8XnXG.2.{ h w U %.e.1.! K S v 9 p p x - k v V V ",
"9 9 3 % & c 0 4 e U ' _ 8.e.J.x.X.a.y.x.2X9X8XwXqX@XnXCXJ.J.{ . K o $.B.6.) q 5 = & i s M z 0 c N S ",
"9 N N 9 * k * # t 1 1 < P ` 6.x.n.O.o.x.-XuXBXlX1X;XvXZX6.z.G.H.( + -.B.4./ q 3 = = i s C M M v n v ",
"* c S V c k * 5 4 r e w < . #.6.c.n.m.X.u.;XkXVX3X;XvXzXJ.7.aXsX3.7.x.x.3.^ q 9 M s s h h S v n v n ",
"; * * M k k * v # 3 c N 9 > L ) P.Y.U.o.u.(.wXVX3X/.lXVX$XP.NXaXx.b.F.V.&.^ r 9 A s s h h f v n V G ",
"H k * * k % % 0 0 3 % ; k 0 w I e.5XhXY.-.Z.7XkXyX;XtXVX%XdXLX4Xh.b.U.C.:.T 8 i A s i s d g m S v v ",
"H z k k c 5 6 r w 7 = = ; s f L +.5.hXSX#X%X@XyXlX1X>XpXjXsXLXnXt.2XS.w._ 1 v 9 E h $ N d w f a 7 0 ",
"Z B l b n n 8 r g a : = = i d L $.6.OXLXnX7X>X0XlX@X:XeXzXDXJXZX0X~.C.%XI h h E { { , 0 0 8 y 8 a 0 ",
"C M B V n 5 6 r S p : = = 9 8 P &.4.H.JXHXsX8XlXdX~.3X{.bXAXmXFX8X1XwX#XI Q   ` e.1.2 4 9 3 & = 7 7 ",
"9 9 b l c * 5 0 a M : ; : i > P 3.h.4XDXDXmXxXAXqX/.<XQ.eXcXtXFXdXnXMX8.o X O e.z.4.I > 0 k = p 0 7 ",
"= 3 * k * 5 5 c p x x : N 7 2 I -.4.4XCXDXZXZXBXqX X.XXXQ.eX8XBXMXCXnX{ @ 2.6.x.n.k.~ < v b & N f S ",
"7 9 9 k c k c N A A : p a 2 L ) -.M.$XFXZXjXAXvX3X,X.X.XR.Q.:XmXDXJXaXG.r.4.-.U.F.h.*.K t v 9 a D D ",
"8 0 9 c b b n c p A : - g L ! &.-.C.5XDXjX+XvXuX^..X|.|.Q.Q.[.wXHXLXsX5.z.j.u.=XD.u.:.P e 0 d d D S ",
"a p 9 k k b k - : A - , U I ) r.k.I.kXZXtX>XtX:X[.|. X|.oXoX[.1XHXGXnX5.l.A._.].S.u.,.! Y g d d y 7 ",
"p a b * * k c p = = C 1 . ) 3.k.k.*XnXCX>X[.XX}.Q.XX.Xf.yX`.].*XmXHXmX~.S.'.'.E.(.>.,.o U f u d , 7 ",
"9 9 c k k 9 c M p p h 2 I 2.4.x.F.=XNXFX0XQ.!.!.Q.oX,Xu.-Xg.g.&XdXFXBX@X'.).E.).].d.q.X U y y s 7 7 ",
"7 * k V V c 9 p p s g < ( 3.x.x.F.$XKXFX:X.XW.W.!..X&X;.n.l.g.&X5XmXVXeXXX XW.)._.f.;.O d i = i p 7 ",
"= = - V B 5 3 7 7 8 > K ` r.j.y.A.9XKXFX:XXXXX!.XX<X'.h.c.v.g.,X6XkXbXeXoX.X|.).D.i.&.I h p = = = = ",
"9 & * M N 5 3 a 7 7 , < <.r.h.X.D.9XZXFXiX/.oXXX.X2XD.b.m.v.i.=X7XvXcX{.oXoXW.).A.M.<.. u s : & p 7 ",
"7 = & 9 v 5 9 0 s 7 > < ` w.h.y.F.*XAXAXuX3XE.W.&X-XA.a.v.b.i.,X7XvXpXeXoX|.|.|.g.w.{ u u i i & p p ",
"p 9 - 9 0 0 0 0 0 7 8 < ! 3.l.i.u.*XxXAXBX7X`.f.g.b.a.a.a.j.l.2X7XvXpXrX|.).|./.,.%.2 u u w 8 3 p : ",
"9 a 9 9 9 a a 7 = # 8 >   %.6.k.M.>.7XlXZXuX^.`.p.a.a.a.a.i.N.*X8XAXcX3X<XW./.,./ T   h h u > 4 s p ",
"0 a N 0 9 9 9 p # = 3 9 > K _ #.3.r.Z.>XiXuXyX,X_.A.y.v.y.h.B.gXKXKXcXiXrXR.:.R K 2 , , 7 8 7 y i = ",
"5 0 0 9 9 * = = & & - - & , L ( +  .@.,.T.@X3X`.2X_.l.n.c.n.5XHXLXFXtXT.:./ I   w 8 3 3 y 8 , 7 , # "
};
