/* XPM */
static char *_1676042517[] = {
/* columns rows colors chars-per-pixel */
"50 50 256 2 ",
"   c #363C00",
".  c #573900",
"X  c #503E05",
"o  c #6A3904",
"O  c #793A08",
"+  c #71330F",
"@  c #1E4C06",
"#  c #1C5403",
"$  c #155C05",
"%  c #1C5B05",
"&  c #1E5608",
"*  c #1D5C0A",
"=  c #155608",
"-  c #105D0A",
";  c #294C05",
":  c #344D02",
">  c #3B4C03",
",  c #394E0B",
"<  c #374704",
"1  c #235405",
"2  c #2B5305",
"3  c #225C06",
"4  c #23550A",
"5  c #2B550C",
"6  c #245B0B",
"7  c #2B5B0C",
"8  c #2D5A04",
"9  c #335303",
"0  c #3B5404",
"q  c #34540A",
"w  c #3B550B",
"e  c #335B0C",
"r  c #3C5B0C",
"t  c #375B05",
"y  c #2C5513",
"u  c #245C11",
"i  c #2B5D13",
"p  c #295B14",
"a  c #335D13",
"s  c #3A5C12",
"d  c #385613",
"f  c #1C6305",
"g  c #1D630C",
"h  c #1D690D",
"j  c #14650A",
"k  c #1D6512",
"l  c #196911",
"z  c #0E6C09",
"x  c #24630C",
"c  c #2B630E",
"v  c #246A0D",
"b  c #256607",
"n  c #35630E",
"m  c #246412",
"M  c #2B6413",
"N  c #236A14",
"B  c #2A6A14",
"V  c #2C641C",
"C  c #2C6B1A",
"Z  c #276919",
"A  c #336314",
"S  c #3B6314",
"D  c #33641B",
"F  c #376A17",
"G  c #2A711A",
"H  c #32751D",
"J  c #366821",
"K  c #3C5B20",
"L  c #444502",
"P  c #4A4301",
"I  c #444A03",
"U  c #4C4C03",
"Y  c #484B0A",
"T  c #544302",
"R  c #584909",
"E  c #445203",
"W  c #44530B",
"Q  c #4D520C",
"!  c #465807",
"~  c #56540B",
"^  c #4B4D13",
"/  c #4D5A13",
"(  c #455915",
")  c #585615",
"_  c #5B4E19",
"`  c #664908",
"'  c #764B0C",
"]  c #665506",
"[  c #765908",
"{  c #684B14",
"}  c #7A4917",
"|  c #675614",
" . c #785718",
".. c #456517",
"X. c #546419",
"o. c #67631D",
"O. c #6E620C",
"+. c #515C22",
"@. c #775A22",
"#. c #406021",
"$. c #6B6825",
"%. c #77692E",
"&. c #8A3B11",
"*. c #A23715",
"=. c #CE3C05",
"-. c #E33D0B",
";. c #864A18",
":. c #984818",
">. c #865618",
",. c #99561A",
"<. c #904A06",
"1. c #A7491A",
"2. c #AA581B",
"3. c #B75A1B",
"4. c #B14B14",
"5. c #976F12",
"6. c #AA631A",
"7. c #B06E08",
"8. c #994825",
"9. c #895A23",
"0. c #975726",
"q. c #905029",
"w. c #A84F26",
"e. c #BA4D28",
"r. c #A85628",
"t. c #B75629",
"y. c #A65A35",
"u. c #BB5B35",
"i. c #8A682B",
"p. c #94642D",
"a. c #946936",
"s. c #B76625",
"d. c #A76536",
"f. c #B76437",
"g. c #AA6D35",
"h. c #DA4809",
"j. c #CD5904",
"k. c #C7481A",
"l. c #D74916",
"z. c #C8591A",
"x. c #D8591B",
"c. c #D15209",
"v. c #E94919",
"b. c #E75819",
"n. c #E8470E",
"m. c #DA6717",
"M. c #C97718",
"N. c #DA7218",
"B. c #CE6B0E",
"V. c #E66617",
"C. c #ED7013",
"Z. c #C74C26",
"A. c #DA4927",
"S. c #CA5528",
"D. c #D75727",
"F. c #C85837",
"G. c #D55837",
"H. c #E64B26",
"J. c #F64927",
"K. c #E45827",
"L. c #E25737",
"P. c #C66326",
"I. c #D86738",
"U. c #CF702E",
"Y. c #E96A26",
"T. c #F26928",
"R. c #F97929",
"E. c #E76739",
"W. c #F96A36",
"Q. c #E67736",
"!. c #FA793A",
"~. c #E77C28",
"^. c #AE7643",
"/. c #E76843",
"(. c #F17442",
"). c #C16941",
"_. c #BA8D10",
"`. c #AC932F",
"'. c #D18D17",
"]. c #FC8A16",
"[. c #E7971A",
"{. c #F6971C",
"}. c #EA8817",
"|. c #EBA31B",
" X c #F7A819",
".X c #F1B819",
"XX c #D29232",
"oX c #EC8125",
"OX c #FA872A",
"+X c #E69726",
"@X c #F79828",
"#X c #FF843C",
"$X c #FD8938",
"%X c #E99736",
"&X c #FB9836",
"*X c #E88835",
"=X c #DBA529",
"-X c #D9AF39",
";X c #E8A525",
":X c #F8A727",
">X c #F3B22B",
",X c #ECA63A",
"<X c #FBA537",
"1X c #F8BB3A",
"2X c #E8B432",
"3X c #D9A31D",
"4X c #FEC337",
"5X c #FBC930",
"6X c #FE8947",
"7X c #FD9647",
"8X c #E98142",
"9X c #DCB654",
"0X c #F9A945",
"qX c #F7BA48",
"wX c #ECB44F",
"eX c #F1B461",
"rX c #C7BA6C",
"tX c #DEC558",
"yX c #EBC646",
"uX c #FDC448",
"iX c #FBD747",
"pX c #F9CB58",
"aX c #FFD358",
"sX c #E7C55C",
"dX c #E6C966",
"fX c #FBD97A",
"gX c #EFD070",
"hX c #FFE368",
"jX c #FEE77A",
"kX c #CDC064",
"lX c #959162",
"zX c #BDB99E",
"xX c #E8D78A",
"cX c #F9D788",
"vX c #F0D595",
"bX c #FCEA93",
"nX c #F7EA85",
"mX c #F1DEAC",
"MX c #FCF6A7",
"NX c #FCE9B7",
"BX c #FBF3B6",
"VX c #FAE8AC",
"CX c #DCC881",
"ZX c #DAD9CB",
"AX c #F6ECCB",
"SX c #FEF9CA",
"DX c #FFFDDD",
"FX c #FDF8D5",
"GX c #EAEBDD",
"HX c #E6EBE9",
"JX c #F3EEE4",
"KX c #FEFDE3",
"LX c #FAF9E9",
"PX c #EBF7FA",
"IX c #F8FBF5",
"UX c #E3ECF3",
/* pixels */
"B v h v N h g % * g g * * % # % f m V V u g j h f n R } 8.8.0.i.$...F A m g $ = & 6 5 D A 3 f h v c ",
"v v v v v x g $ * g x m 6 v v v v N D D p k h v 9 ! @.y.y.q.>.| X.F S c x g l m & 4 5 n c x j g B B ",
"b v v v x m x % 6 6 u x M M B F C B V V V B b ! ] >.y.y.a.@.~ ! ....D c & g m m 6 6 6 n 7 3 f v M v ",
"f v B b % x 6 & 6 i M i u M A B B V p p m b ! ~ 2.t.u.y. .~ n b F F F x * m m m i M 7 M x 3 g c x x ",
"% v v % # % 6 6 M M i u 6 6 x M b c a p p 5 Q ' e.A.F.q.) 7 b f b M B x m C C B B M M M v 6 x c x x ",
"b M x % # # 4 4 i i 6 4 % 6 c v x v D a 5 > ] ,.=.A.e.;.( x b f b c B M B M i 6 p M M Z x 6 6 6 M m ",
"M c c 6 6 & 6 6 u u 6 * * * x N b v M A e I  .3.I.G.:.{ q b v n b B B B m 6 1 1 M C C Z m 6 6 3 x M ",
"c x 6 x m u u m u k x * * g v v g b m M d ~ >.P.(.F.9.Q S H ! t 8 6 v B g # 1 5 M V C G N x 7 8 x v ",
"M x M M Z x m Z Z N g - * g % $ $ f g x r o.2.U.(.g.| ! F D / ~ ! n B 3 % M 4 4 i m Z G H m 2 2 M M ",
"B c m B Z m k N l Z x * % x 3 % 3 % j B n @.6.8X*Xs.| ( F ..) $./ 0 n 3 g B 6 7 7 u k N N x 7 7 M B ",
"M B B B Z m h k g B B 6 2 8 9 2 t 8 b F !  .3.6X(.s.] ( S a / o.$.Y 0 c B B 6 i y 6 * k k m A a 7 v ",
"c c m x k g h g x M S q > Q Q U ~ E t t E >.3.6XQ.6.` w a y w ~ i.| ! F H N 6 i a i m m m m 5 e 6 % ",
"c c x g % g x x 6 e s Q |  . .>.' ' R T T >.z.6XR.3.' E a D r R p.>.~ ..H k * 6 y a V C N m p 4 7 x ",
"B c b 6 % g x c q w Q  .p.d.f.t.1.r.,.} O 2.x.#XY.z.` 0 7 D / _ d.0._ ..G j * & 5 a D Z m m 6 4 M M ",
"n c v f g x c c q Y | a.f.u.Z.Z.G.G.F.t.1.2.z.#XY.3.` 0 6 u /  .f.r.| ( v h m # 5 d D m k x i 6 6 c ",
"8 c c v x M M 7 w ~ 9.g.g.0.:.1.Z.S.G.G.Z.z.x.6XY.4.` 0 6 y ) q.F.f.{ r m N G = a a D 6 & * 6 u 6 6 ",
"5 i l G B c 6 2 : ) d.i.Q ..U T ` 0.G.E.L.k.b.W.W.P.[ > W L } d.e.f.@.q 5 V k - V a A c 6 4 4 u 6 6 ",
"d i l j m x 6 c S / @.{ 8 N r W Y ` w.E.Q.l.h.!.!.z.>.P T ` q.u.S.s.| r d a k k V D A b 3 6 6 m u 4 ",
"i i k j g C C C M s Q I n F r / W L ' M.*Xm.h.#X#Xz.s.&.O :.e.Z.E.t.| ! ( d & & M n b x 1 4 p p 4 4 ",
"1 6 h h k C C M 3 e n t n S ! / ( I R >.'.].V.R.#Xx.I.e.k.Z.Z.D.!.s.~ ! / / , ; n b b $ # p p a p 4 ",
"# 6 x g v M c 8 e A c b 9 E | $.+.w ! [ M.&XR.R.#XK.A.H.J.J.=.T.Q.2.U 0 / $.o.W n c h f 6 a s J V M ",
"% % 6 c c A ....W 0 8 3 : ~ i.a.+., t O.'.@X].OX$XY.l.J.J.v.-.!.Y.5.E : ~ i.i.| ! n f g 6 A D A i M ",
"j % 7 S F ( X.$. .R 0 0 U  .^.9.) , E ] 7.}.$X$X<X*Xl.H.v.v.T.6XP.>.! 9 ] p.d.9.E 8 f f 6 7 a i 7 6 ",
"g % n ..( w w ) ^.,.T U T 9.f.;.^ d ! ` <.m.<X@X0X%XB.x.c.Y.7X7X,.| r r ` ,.u.d.R 0 8 f b 7 7 6 6 4 ",
"N B A S r w 2 L y.f.9.` ' p.r.&.Y : > [ 6.z.M.'._._.'.7.4.U.U.s.9.Y s s o u.G.u. .! e 3 2 3 3 B c c ",
"G B 7 8 e c x 0 } u.f.;.` 0.e.:.X > T ' 3.M.7.7.5._._.7.7.'.3.2.;.^ s < O u.G.F.i.Y w 9 e 6 6 B c M ",
"M c % # # h l b X r.).8.O q.F.4.. T o <.3.U.M.7._.'.3X=XwX*Xz.4.} _ Y R 0.Z.G.I.>.P Y : n 6 x g M B ",
"6 3 # = $ z z z , } f.t.O 9.f.u.>.>.:.4.Q.$X%X,X3X|.5XuXqX*Xl.D.O . . ' t.k././.>.P Y W ( 5 m * B c ",
"6 6 m h $ - z - : R y.u.;.O r.F.s.t.S.Y.7X7X&X@X{. X4XuX&XN.=.K.t.:.<.r.S.D.!.S. .P ) ) d y V m v c ",
"4 x Z Z N g - - 2 Y w.F.*.o ;.y.F.D.D.!.7X&X@X{.@X:XqXuX&XV.h.l.I.P.S.m.x.T.6X2. .U | %.+.V p V M c ",
"u & * m M 3 % c 4 Y 8.F.r.O o ;.S.A.b.Y.+X+X X:X X>XaXuX+XoXm.c.l.l.v.b.C.#X6X6.] L { %.^ K p V A B ",
"C g $ * 1 @ ; 9 ; L &.F.F.8.o o *.k.z.j.'.[.|.|.|.qXjXpXXX@X%XN.C.T.T.OX$X6XN.6.| , { a.^ #.y a e c ",
"J m j j h f 8 r s < q.u.e.r.;.o + &.Z.j.V.$X{.>XpXaXbXcX,X|.{.:X+X+X<X<XOXOXU.,.W < { 0.Q 8 ; s 7 6 ",
"J Z k l h f 7 r w < >.F.G.F.1.:.&.8.S.c.b.OX{.>XyXdXVXbXpXuX>X;X2X;X<X<XOX~.d.{ ^ , } d./ 9 ; q 5 p ",
"V m Z B v f 6 7 e > ;.F./.H.k.k.Z.Z.Y.h.D.#X{.>X2XdXNXAXcXsXyXyXiX4X:X{.~.M.>.` q > >.d.) : , ; 5 4 ",
"* * 7 i x % 3 8 e ~ 8.F./.W.l.l.K.v.v.h.T.$X X.X2X9XNXKXMXgXgXhXiX4X{.}.B.7.[ ! e Y q.d.R w d y 5 7 ",
"= & 2 q 6 $ g 6 e ) 2.S.W.W.b.n.n.-.n.b.T.@X X.XyXdXmXLXSXMXnXhX>X@XoXN.6.[ I 9 9 { y.F.R , a p M a ",
"g 6 8 7 f h h M 9 | w.Z.K.!.T.V.h.n.V.R.$X{..X5XyXnXAXGXBXbXjX2X@XoXY.G.,.T < > L ;.G.G.{ d u k D D ",
"f 6 8 3 h l k 7 w ` e.l.x.#X&X%X~.~.}.{.:X:X5X5XtXMXGXKXxX9X-X[.@XT.H.F.8._ Y L ` r.L.F.{ q & h p a ",
"g 6 6 x h l m 6 w R w.l.x.~.1XqXqX0X+X3X;X2XuXpXjXBXDXKXmX9X:X].OXb.A.G.8.+ . . <.U./.F.| s 1 B 4 y ",
"x 3 * j j j i a s P 1.D.h.m.%XuXpXpXyX-X9XsXdXgXMXSXKXFXcXwX{.].].V.v.D.F.*.<.4.z.Q./.0.^ i e 2 4 4 ",
"6 6 g h k x 5 d 2 Y ,.S.l.b.*X%XaXaXhXcXxXgXxXBXFXDXKXFXbXeX@X].OXC.h.h.S.z.4.x.Y.Q.U.>.w 4 q ; 4 4 ",
"1 % k m m 7 d q 4 :  .t.l.-.T.&X<XpXbXBXSXAXAXFXKXKXDXFXNXgXwX+X{.].C.V.j.j.c.C.#XY.6.] ; & : ; 4 4 ",
"& # g m M e , , 6 2 T q.Z.l.v.!.}.qXcXNXDXLXIXGXLXJXJXLXAXvX9X%X[.{. X}.C.B.OX&X6XU.>.~ e 4 5 5 4 u ",
"4 & * u m 5 w q k u   X r.G.A.h.&X,XeXcXNXKXLXLXHXHXJXLXKXNXCXkX,X+X'.[.|.:X<X0X*X2.` I e i 4 4 u u ",
"p & * * 6 6 , 5 * k @   { 0.e.4.U.%X0XeXcXBXDXIXUXUXIXIXKXSXVXxXdXwX=X=X>X1X<X*Xs.>.T < 5 6 u 4 u u ",
"p p 4 g g 4 y y u - = 4 , Y } f.<.N.@X<XqXfXBXJXPXPXPXIXKXDXSXNXmXbXfXsXpXwXXXXX' R : 1 4 1 4 u u u ",
"p p u u m * 4 y = - - = & 5 L . >.6.7.;X>X2XdXAXIXIXPXHXLXKXDXFXAXSXMXjXtXXX5.` P < 1 u 5 4 4 4 u p ",
"p i M M 6 * 6 u = # = & & 6 q ,   X ] 5.`.-XtXxXBXLXIXIXJXIXJXDXFXAXxXkX`.O.I : 2 5 1 @ p y 4 4 4 @ ",
"4 7 i 6 4 & & & = # # 6 1 6 p 5 5 :   X ` [ 5.`.rXmXLXIXPXHXZXZXzXlX$.~ E < : 1 4 6 1 ; y y 4 4 @ @ "
};
