/* XPM */
static char *result[] = {
/* columns rows colors chars-per-pixel */
"50 50 204 2 ",
"   c #1A4505",
".  c #1B4E07",
"X  c #1D4C0A",
"o  c #1C5306",
"O  c #155906",
"+  c #1C5B06",
"@  c #17570A",
"#  c #1D540A",
"$  c #1D5B0A",
"%  c #1E5810",
"&  c #234D0C",
"*  c #294D0F",
"=  c #215407",
"-  c #235E06",
";  c #23540C",
":  c #29540E",
">  c #235C0C",
",  c #295B0E",
"<  c #30550C",
"1  c #335C0D",
"2  c #385D0F",
"3  c #294C11",
"4  c #255511",
"5  c #2A5211",
"6  c #255B11",
"7  c #2A5C11",
"8  c #345C11",
"9  c #3B5D11",
"0  c #1C6207",
"q  c #1D6807",
"w  c #1F640A",
"e  c #1F6A09",
"r  c #24630D",
"t  c #29640F",
"y  c #246B0C",
"u  c #296A0E",
"i  c #35620B",
"p  c #3A640E",
"a  c #33680F",
"s  c #25700E",
"d  c #266311",
"f  c #2B6311",
"g  c #266911",
"h  c #2B6A12",
"j  c #2E6D18",
"k  c #326513",
"l  c #3C6413",
"z  c #326B15",
"x  c #3C6A12",
"c  c #336B18",
"v  c #3D6C19",
"b  c #2C7013",
"n  c #337016",
"m  c #48630E",
"M  c #436514",
"N  c #406D17",
"B  c #4D6B15",
"V  c #476518",
"C  c #536B14",
"Z  c #5C6B19",
"A  c #587319",
"S  c #616E19",
"D  c #6A6E1A",
"F  c #776E1D",
"G  c #786F1C",
"H  c #6A741C",
"J  c #76711C",
"K  c #7A741E",
"L  c #737A1D",
"P  c #6D7421",
"I  c #777222",
"U  c #767923",
"Y  c #7E7A22",
"T  c #807D1F",
"R  c #837C24",
"E  c #8B7D22",
"W  c #837B2A",
"Q  c #947C27",
"!  c #A57D27",
"~  c #A47E2B",
"^  c #AA7D28",
"/  c #8B8325",
"(  c #928124",
")  c #9A8324",
"_  c #948329",
"`  c #8D8533",
"'  c #948634",
"]  c #988936",
"[  c #A1872B",
"{  c #AE842B",
"}  c #A68C2B",
"|  c #AC8C2B",
" . c #B7852C",
".. c #B8862B",
"X. c #B58B28",
"o. c #BD8D2D",
"O. c #BC922E",
"+. c #AF8B3B",
"@. c #BC8630",
"#. c #B48B36",
"$. c #BC8E31",
"%. c #B28B3C",
"&. c #A7913B",
"*. c #AD903D",
"=. c #B39033",
"-. c #BD9232",
";. c #B3933C",
":. c #BC953B",
">. c #C28D2D",
",. c #C3912F",
"<. c #C39434",
"1. c #CA9532",
"2. c #C39836",
"3. c #CA9A37",
"4. c #C3953A",
"5. c #C6993B",
"6. c #CA9A39",
"7. c #D3A03D",
"8. c #9A8458",
"9. c #99845B",
"0. c #A3864C",
"q. c #AE9342",
"w. c #B39342",
"e. c #BC9644",
"r. c #BC9B5C",
"t. c #988E7A",
"y. c #9F9071",
"u. c #A9946A",
"i. c #C39640",
"p. c #C69B44",
"a. c #CB9D46",
"s. c #C39E4C",
"d. c #CDA24C",
"f. c #D6A240",
"g. c #D9A443",
"h. c #D3A54C",
"j. c #D6A84D",
"k. c #D9A94A",
"l. c #C4A357",
"z. c #CDA352",
"x. c #D1A752",
"c. c #D4AA53",
"v. c #DFAD50",
"b. c #D3AD5C",
"n. c #D9AF5A",
"m. c #DEB35D",
"M. c #E0AE51",
"N. c #E1B256",
"B. c #E2B55D",
"V. c #E5B95F",
"C. c #DEB563",
"Z. c #DCB66A",
"A. c #DEB86A",
"S. c #C9B07D",
"D. c #D1B275",
"F. c #E1B662",
"G. c #E5B961",
"H. c #E9BC64",
"J. c #E0B568",
"K. c #E2B86C",
"L. c #E3BD75",
"P. c #E8BE76",
"I. c #EDC06A",
"U. c #E7C176",
"Y. c #E9C275",
"T. c #EAC57A",
"R. c #EDC47B",
"E. c #F0C377",
"W. c #F0C57A",
"Q. c #F5CC7E",
"!. c #BCAB89",
"~. c #C1AD84",
"^. c #E5C68A",
"/. c #EDCC8B",
"(. c #F3CD85",
"). c #F9CF85",
"_. c #F2CE8A",
"`. c #F6D086",
"'. c #F9D286",
"]. c #F5D28B",
"[. c #F9D48B",
"{. c #FED88F",
"}. c #F6D492",
"|. c #F8D793",
" X c #F9DA9D",
".X c #F5D9A3",
"XX c #FADCA4",
"oX c #F4DBAA",
"OX c #FAE0AE",
"+X c #F8E3B9",
"@X c #FAE6BD",
"#X c #FCE9C3",
"$X c #F8ECD5",
"%X c #F7EEDD",
"&X c #FCF1DC",
"*X c #F8EFE0",
"=X c #F7F1E5",
"-X c #FBF3E3",
";X c #F6F5F5",
":X c #F8F7F6",
">X c #FBF9F7",
",X c #F5F6F9",
"<X c #F6F8FC",
"1X c #FDFDFD",
/* pixels */
"h d 0 e s y 0 $ 6 6 % 6 w $ $ # > h f , , > r r - r t h s % @ d h t d d t $ # o @ $ d g r w $ r d d ",
"g y y y y e + @ # > r r r w d f f f u h t > f f r r d d g w d h h h h t r > $ > # # $ y t > - 6 t h ",
"r y b r r q q O $ > > r r d b h h u u h u t u u h f d > $ t g j c n h r > > > y $ # > r r - ; t t f ",
"# r s r 0 w w w d 7 f r r d r y y y t > : , t u t > > d 6 h g d h n h > > r d h t r d d , , t t r > ",
"6 t y + + o o > d t > > > r r r r r r r - - r t > ; > 6 f f r 7 f h h t t h f d f u f k 7 6 > d d > ",
"f t 0 + + o X $ > r > ; = ; t r r r r r - , t t t > > , h 7 7 f f f f y t d r 6 7 h f f d 6 > r y y ",
"r t > $ $ $ @ > > r r > & : u u y y t r t t - , , r ; > r f k h t f g g r $ ; ; f f 8 f 6 6 6 > r y ",
", 7 f > r r r g f > $ - - ; r t r - t t , p D W ' ] ` U Z l f r t r t h > $ # ; f h j c h f 6 > 0 y ",
"t f f f t t t h f d > $ - ; r - $ > > i Y s.L.(.).'.).R.Z.*.Z ; f h t - > > > > 6 d j j h h - ; - h ",
"h d r h h d r d h h r ; ; , + + # o m q.W.].].[.[.[.[.[.].[.J.R , h h ; t f d > $ 6 d g g g $ # - z ",
"f h j c h z h y $ t h ; = > + - $ m s.].}._.`.[.[.[.[.`.`._.}.W.Q 8 d 7 k f > t > @ % f h z h h t t ",
"w A &.:.2.<.O.} L a r r r u r r p e.{.`./.].[.`.'.).'.[.[._._.{.E.R 7 k v k : > $ A _ X.O.2.4.;.W , ",
"e K ..1.o.$.o...1.=.A 0 t u y r Q (.]._.[.`.`.XX@X#X+X|._.`.[._.}.C.S v v f ; , / 5.>.o.o.$.<.,.^ l ",
"g K  .4.n.m.m.d.#.o.<.B r u w C C.}.(.[.[.[.@X:X1X1X1X=XXX'.[.`.].`.*.l k t ; / 1.{ e.c.m.m.d.o.! M ",
"g U  .3.C.G.G.J.B.:.o.| a > > ] _.].[.[.[.@X1X>X1X1X>X1X>X X[.[.`.}.K.S f g P <.{ c.G.K.G.A.k.o.! k ",
"0 J  .3.B.C.C.V.G.B.#.>.L $ M l.[.`.[.'.XX1X1X1X:X;X1X1X1X-X`.[.[.`.(.' r k X.o.d.H.V.F.C.G.k.O.! p ",
"$ G ..6.F.F.F.F.G.H.x...} u H P.}.[.[.`.$X1X1X1X>X,X1X1X1X1XOX'.[.].].l.1 A ,.:.G.F.G.F.C.G.k.o.! p ",
"w J ..6.B.G.B.F.F.G.V.:.O.B ' ).`._.[. X1X1X1X>X1X1X1X>X1X1X&X[.`._.{.K.C / >.h.H.G.F.F.G.G.h.o.! 1 ",
"$ J @.4.B.F.V.V.F.F.H.a.,.L q.{.`.`.(.@X1X1X>X1X1X1X1X1X>X1X>X|._.[.[.T.R } <.n.G.F.B.G.G.G.j.$.! < ",
"@ J ..3.B.G.G.G.V.F.G.x.o.) l.{.[.[.(.$X1X>X1X1X1X1X1X1X1X>X1XoX'.[.[.(.;.X.i.F.F.F.V.G.G.G.k.o.~ 1 ",
". I  .4.B.G.G.G.V.B.J.b.-.X.b.{.].[.[.=X,X1X1X1X1X1X1X1X1X>X<X#X'.[.[.`.p.o.p.A.F.V.G.V.G.G.k.o.~ l ",
". I  .6.B.G.G.V.G.F.F.n.4.>.C.}.[.[.].;X1X1X1X1X1X1X1X1X1X1X1X$X'.[.[.`.a.o.d.G.C.G.V.G.G.G.k.$.~ l ",
"o G  .5.B.G.V.G.F.F.G.B.4.o.A.[.`.`. X1X1X>X1X1X1X1X1X1X1X1X1X%X`.[.[.'.d.o.x.G.G.C.G.G.V.G.j.$.~ 8 ",
"> J  .5.m.G.V.C.F.V.G.B.<.0.S.{.[.(.XX1X,X>X,X1X1X1X1X1X1X1X1X&X`._.[./.u.#.h.G.V.V.C.F.V.F.j.>.! 8 ",
"d K  .3.m.F.F.F.G.V.G.m.2.9.!.[.].`.XX1X>X1X>X1X1X1X1X1X:X>X1X-X].`.[.^.t.+.h.H.G.V.V.C.G.J.k.o.! l ",
"b K  .3.B.C.C.G.V.V.G.m.<.9.!.`.].'.XX>X1X1X>X,X>X,X;X;X,X;X:X%X[.].].^.t.+.h.G.V.G.G.G.C.G.k.o.! M ",
"y J ..6.m.F.F.F.G.G.G.m.<.%.D.{._.`.XX1X1X:X:X,X,X,X;X;X,X>X,X-X[._.].].r.$.d.G.V.G.G.C.G.C.j.o.! x ",
"$ L ..6.B.G.V.F.G.G.G.m.5.o.K.}.].(.oX1X<X:X1X1X1X1X1X1X1X1X1X=X].'.].[.d.o.h.G.V.C.C.G.G.G.h.o.! x ",
"$ J  .6.B.G.G.G.G.C.G.m.:.o.Z.{.[.'.XX>X1X1X1X1X1X1X1X1X1X1X1X-X'.[.].[.d.o.j.V.G.C.V.G.G.G.k.$.~ l ",
"o I  .6.B.G.V.G.V.C.J.m.2.o.Z.{.[.`.XX,X1X1X1X1X1X1X1X1X1X1X,X-X[.].[.[.d.o.d.J.C.V.G.V.G.G.k.o.~ N ",
"$ U  .6.B.G.G.G.G.G.C.m.4.>.Z.{.[.`.XX>X:X1X1X1X1X1X1X1X1X>X,X-X[.[.'.[.d.>.x.A.F.G.G.G.V.G.k.>.~ v ",
"f I  .6.B.G.V.V.G.C.G.m.4.o.Z.{.`.`..X1X1X>X1X1X1X1X1X1X,X1X1X*X[.[.].[.d.o.d.G.C.F.G.V.V.G.k.$.[ p ",
"h K ..5.B.G.G.G.C.V.G.B.4.$.A.[.].`..X1X1X1X>X1X1X1X1X>X1X1X1X-X].].[.[.d.o.d.G.G.F.F.G.G.V.j.o.! 1 ",
"b K ..3.m.F.G.C.V.G.G.m.<.o.Z.{.].(.XX1X1X1X1X>X1X1X,X1X1X1X1X-X].].[.].d.o.h.G.V.G.F.F.G.J.j.o.! 2 ",
"u K  .3.B.J.C.G.G.V.G.m.<.>.Z.}.].`.XX1X1X1X1X1X>X;X1X1X1X1X1X-X[.]._.}.d.o.h.H.G.F.V.F.C.F.k.o.! 9 ",
"= J ..3.B.C.C.G.V.G.G.B.<.8.!._.].'.XX1X1X1X1X1X:X;X1X1X1X1X1X-X[.`._.^.y.#.h.G.V.G.G.F.C.G.k.O.! 9 ",
"@ F ..6.C.G.G.F.G.V.G.m.<.9.!.{.`._.Y.Y.T.U.U.U.U.Y.P.U.U.U.U.Y.R.].[.^.t.%.h.G.V.G.C.C.G.F.j.o.~ V ",
"O J ..4.B.V.V.G.C.G.G.m.4.9.~.{.(.G.C.B.B.B.m.B.B.B.V.m.m.B.B.B.C.Y.'./.t.%.j.G.V.F.F.V.G.G.j.$.^ V ",
"o I  .3.V.G.V.V.G.C.G.m.6.-.Z.Q.H.H.H.K.H.G.G.H.H.H.H.H.G.G.H.K.H.H.I.`.z.<.h.V.C.G.G.G.V.G.k.$.~ M ",
"$ U ..6.B.G.G.F.B.v.h.4.[ E #.;.;.;.;.w.q.;.;.;.;.=.;.;.;.w.w.;.;.;.;.;.[ ( #.a.j.v.V.G.G.G.k.o.~ 8 ",
"$ I  .3.B.V.M.g.3.} U V = ; 2 9 9 1 1 1 1 2 2 8 9 8 1 1 i 1 , 1 1 2 2 8 8 4 l S _ -.7.k.N.G.k.O.~ 1 ",
"$ F @.3.g.3.| T C , r @ 4 6 4 4 6 # $ # o ; 4 4 6 6 $ $ + + $ $ # @ @ > % 4 % @ 6 M H ) <.7.f.<.! 8 ",
"@ D { | E C 8 > # 6 f d 7 7 * & ; > r > X & & # ; 6 4 4 ; $ d d # # o ; ; ; ; - 6 5 3 : l H _ { Q 8 ",
"$ # , h w $ : , ; ; ; ; 4 4 4 ; ; t ; = & : ; ; > 4 4 4 6 6 6 4 6 > > $ > > ; > ; ; & ; > # # : 4 4 ",
"# = # d t > * 7 > ; & o ; 7 6 6 6 7 & & & 4 ; 5 7 # 4 7 6 ; % ; r r : > > ; ; : : ; ; ; > , 5 # ; 6 ",
"; ; ; 7 f : ; 7 > ; & X ; 6 ; $ 7 7 3 * = = o ; 4 # > 6 ; & o ; # - , , ; ; 5 > - , : ; ; : : 4 > d ",
"r # # 5 7 , ; > > ; 4 & # # . O ; ; 5 3 & * o # # 4 X & ; > > $ X 4 7 , & & = r + = : ; & 4 ; ; ; 6 ",
"d > > 7 f r - $ o o = o # > o . X X 5 & & : ; # % X   ; > f > > 6 4 5 7 ; & - - + o & 5 7 > ; 4 6 6 ",
"> > > > 7 - $ $ O   o o ; > - ; X X X & ; ; ; > > X X ; > f r - > 4 4 6 6 & ; ; - + = ; 7 : & 5 4 ; ",
"$ > 7 > ; ; ; + o o - $ o $ r > = & X ; ; o ; - - X ; 7 ; > ; - . X ; 6 6 # ; ; > ; = & ; ; & * &   "
};
