/* XPM */
static char *result[] = {
/* columns rows colors chars-per-pixel */
"50 50 153 2 ",
"   c #392427",
".  c #40282D",
"X  c #432731",
"o  c #452A31",
"O  c #4A2C34",
"+  c #532F3B",
"@  c #4D3134",
"#  c #503634",
"$  c #543936",
"%  c #553339",
"&  c #5A353E",
"*  c #5D393D",
"=  c #603F3D",
"-  c #134504",
";  c #1A4505",
":  c #164B05",
">  c #1A4D06",
",  c #174C09",
"<  c #1D4D09",
"1  c #175006",
"2  c #1B5406",
"3  c #1C5B06",
"4  c #1D550A",
"5  c #1E5B0A",
"6  c #224E0C",
"7  c #2D4F0F",
"8  c #215307",
"9  c #215C07",
"0  c #23540C",
"q  c #29540D",
"w  c #245C0C",
"e  c #295B0E",
"r  c #284C11",
"t  c #344E17",
"y  c #334C1A",
"u  c #394F19",
"i  c #265510",
"p  c #2D5313",
"a  c #255B11",
"s  c #2B5D11",
"d  c #375417",
"f  c #325C14",
"g  c #385C16",
"h  c #33551B",
"j  c #3A521D",
"k  c #35581A",
"l  c #3C5C1C",
"z  c #1C6206",
"x  c #1D6807",
"c  c #1E6209",
"v  c #1F6A08",
"b  c #24630D",
"n  c #29630E",
"m  c #246A0C",
"M  c #296A0F",
"N  c #25700E",
"B  c #266311",
"V  c #2B6411",
"C  c #276910",
"Z  c #2B6A12",
"A  c #2D6D18",
"S  c #326313",
"D  c #336B14",
"F  c #386917",
"G  c #366119",
"H  c #326E18",
"J  c #297012",
"K  c #327115",
"L  c #3A5520",
"P  c #415D1D",
"I  c #44661E",
"U  c #456A1C",
"Y  c #475F22",
"T  c #5D4339",
"R  c #62443C",
"E  c #66493E",
"W  c #694C3E",
"Q  c #6E523F",
"!  c #466320",
"~  c #4F6B24",
"^  c #516426",
"/  c #516A24",
"(  c #5C652C",
")  c #5A692C",
"_  c #567326",
"`  c #547926",
"'  c #5C772A",
"]  c #5D782A",
"[  c #667C2F",
"{  c #616530",
"}  c #666C30",
"|  c #6C6C35",
" . c #746C3A",
".. c #7D6F3F",
"X. c #6C7231",
"o. c #6B7E30",
"O. c #727C33",
"+. c #777539",
"@. c #5E3740",
"#. c #5E3840",
"$. c #653C43",
"%. c #693E45",
"&. c #6C3F48",
"*. c #6C4047",
"=. c #6F4E42",
"-. c #6E4148",
";. c #70434A",
":. c #725740",
">. c #7B5E43",
",. c #7D6244",
"<. c #836746",
"1. c #836B44",
"2. c #8C6F4A",
"3. c #837241",
"4. c #8A7645",
"5. c #8D7A46",
"6. c #8E724A",
"7. c #92754B",
"8. c #93794A",
"9. c #9A7E4E",
"0. c #748436",
"q. c #81853C",
"w. c #868D3E",
"e. c #89883E",
"r. c #8D8C42",
"t. c #948D44",
"y. c #9D834E",
"u. c #9C884B",
"i. c #959145",
"p. c #9F9349",
"a. c #A1854F",
"s. c #A1884F",
"d. c #A4954C",
"f. c #A8974E",
"g. c #A5994D",
"h. c #A48751",
"j. c #A58A51",
"k. c #AA8C53",
"l. c #AE9154",
"z. c #AD9B51",
"x. c #B29556",
"c. c #B39C55",
"v. c #B69758",
"b. c #BB9C59",
"n. c #BDA15A",
"m. c #C3A55D",
"M. c #C8A75F",
"N. c #C7A85E",
"B. c #C9A95F",
"V. c #C9A760",
"C. c #CCAB61",
"Z. c #D1AD63",
"A. c #D3B164",
/* pixels */
"Z B c v N m z 5 a a 5 B c 4 4 0 w Z B e q w b b w b B Z J 5 4 c b b V B b e 4 5 4 5 b C b c 5 b B M ",
"C m m m m v z 2 4 w B 5 B c b b V Z Z Z n b M V n M V C B b B A A D Z B b 5 5 w 4 2 c B b 5 w b b V ",
"b m J b x x z 3 5 w b w B C N A Z m M Z n w b b b 5 5 5 4 c C A H K A b b w b B 5 4 5 B b e w e V B ",
"4 b N b 5 c c c a B e b B B B m m m b e f U _ [ o.o.[ [ ' ` H b b K Z b w e B m b b a B n q n M n w ",
"s b m 3 3 2 4 a b b e a w w b b z n / +.u.v.m.M.C.C.B.B.V.n.z.r.] D b b n V V B Z V V S B a w B b b ",
"V b c 3 3 2 , 5 e b w w 8 e b b / 3.l.m.M.m.N.m.m.m.m.m.m.V.V.C.M.g.` b b M b a V Z s S B a w B b b ",
"b n w 5 c 5 4 5 w e b 5 0 0 F | s.m.m.m.m.m.N.m.m.m.m.m.m.n.m.m.m.V.N.w.Z 5 4 0 s V s V s a a w b m ",
"e s B a B c B C b w w e 3 f +.k.m.N.m.m.m.m.m.M.B.B.C.Z.C.C.V.V.m.m.m.C.i.0 < w V Z H H Z B a 4 z m ",
"M V V B B B B V Z B w 5 w  .k.N.m.m.m.V.C.V.m.v.k.y.6.6.6.y.l.m.M.N.m.m.C.q.5 w 5 B A A A M w 4 9 M ",
"V B B Z Z B B M Z V b 4 ( h.N.m.m.m.C.n.y.,.T @ O O O o O O @ R 6.n.M.m.N.m._ 5 a a a V Z m w w e D ",
"B B Z V B C B m n n M g 5.m.N.m.V.m.7.T   + @.#.*.-.-.-.-.*.#.% X T k.V.m.V.i.w 5 a a B B b b b w M ",
"b C B B b B a B e e M } x.N.m.N.n.=.  + *.-.;.;.-.-.-.-.-.-.;.-.*.O # x.N.m.m.U c B V B B e a s w w ",
"m m b a a B B a s b F 5.b.N.M.v.T   *.;.;.-.-.-.*.-.*.*.*.*.*.*.;.-.O R m.m.C.0.4 Z Z V M b w w e w ",
"Z m 5 0 a B B b b b ) h.N.N.n.T   -.;.-.$.$.-.-.-.*.-.$.*.*.*.$.-.-.-.o 2.C.V.d.w V V V Z b 4 0 n n ",
"C m b b 5 b m b b V ..x.N.M.,.X *.*.*.%.$.%.%.-.-.*.*.*.#.*.*.$.-.-.;.#.$ b.V.n.F B V B a w n w w b ",
"5 B b b c b b w 5 I 4.v.V.x.@ $.;.*.-.#.-.-.$.%.*.%.*.*.*.*.*.*.-.-.-.;.O 8.V.V.' B V s i w e 8 9 n ",
"5 b b C m n w 8 9 ) 8.m.V. .O ;.-.%.%.$.-.-.$.$.-.%.-.%.$.-.-.*.-.-.-.;.& Q N.V.0.b V s i a 0 e q w ",
"b b m b n n b e e | y.N.b.$ $.;.*.*.*.#.-.-.$.*.*.$.-.%.$.-.-.%.%.-.%.-.%.T b.C.r.b Z s w 0 e n e 9 ",
"5 b b s e V K J n  .a.Z.9.+ ;.&.*.*.*.$.$.$.*.$.-.$.*.%.$.-.%.$.$.%.%.%.-.* h.Z.i.C B B w > 2 b w 2 ",
"4 5 B w b Z J M D  .k.Z.<.& ;.&.&.-.#.%.$.$.$.$.*.$.*.%.$.*.$.$.$.-.-.%.;.% 8.Z.g.V 5 w w 2 e n b 0 ",
"4 w s 5 m M n z S ..l.B.Q $.&.&.$.-.%.#.*.%.$.-.$.= *.%.$.%.$.$.$.-.-.$.-.@.1.C.z.Z 9 5 w b M D n s ",
"< w b b n n b 2 S 3.l.m.R $.%.&.$.*.-.%.$.#.$.-.$.$.%.%.%.%.$.%.%.&.-.$.-.$.:.V.z.D b 9 e V S V n M ",
"4 5 b n M b b 2 f 3.x.m.R &.$.;.%.$.-.-.$.$.-.*.$.$.%.*.$.*.$.$.$.-.-.$.-.$.Q N.c.S w b b b e w 0 w ",
"e e n D M b 3 2 f ..x.c.R &.$.;.-.$.-.-.*.#.-.-.$.$.*.*.$.-.$.$.-.-.-.$.&.$.E m.c.S b w w e e s w 0 ",
"M M M Z M b 4 2 f ..x.v.= %.$.&.*.$.*.-.%.$.$.-.$.$.%.%.$.-.&.$.-.-.-.*.*.$.E n.n.D w e 8 8 9 D S e ",
"D Z m 5 9 b b z Z  .x.x.= %.= &.*.$.%.-.%.$.$.-.%.= %.%.$.-.%.$.*.-.-.$.-.$.*.V.z.S 3 9 9 b n n V n ",
"m b 3 1 2 b M 9 n  .l.v.R &.$.&.*.$.%.*.*.$.$.%.&.$.%.$.$.*.*.$.$.-.-.$.-.%.R n.z.b 5 w n n 9 e n M ",
"5 3 3 > 5 b b 2 w | j.b.R &.%.$.-.%.$.%.%.%.*.*.&.$.%.$.$.&.*.$.$.-.-.*.-.%.=.n.f.0 w b b q w e n n ",
"5 w b B 5 5 3 1 5 ( s.n.E %.%.$.*.%.$.%.*.%.-.*.-.$.$.$.$.%.-.%.*.-.-.-.&.$.E V.p.2 8 s n s s S n e ",
"5 5 B C b c c 5 4 ^ 9.n.E $.*.%.*.$.$.%.%.*.-.-.-.$.*.$.%.*.*.-.-.*.$.-.&.$.W V.t.e 0 V S f s e M D ",
"e b b b b w w w 2 l 6.m.>.$.*.%.*.%.%.*.%.-.-.%.%.$.*.-.-.%.%.-.& O =.-.;.$.:.C.r.a w s f f e w n D ",
"V b 3 3 2 4 4 3 4 p 3.b.2.$.-.$.*.*.$.*.-.-.-.%.%.$.-.-.-.%.$.$.    T ;.&.$.:.Z.0.i 0 s f g e M b n ",
"A b w 5 b w w w b 0  .b.9.& ;.$.%.%.%.*.-.%.-.%.$.$.-.*.%.%.$.$..   O *.;.$.,.Z.O.4 w 0 s s 0 s q 9 ",
"K M b M b b e b b w ( k.x.= &.%.&.*.%.-.*.$.-.%.%.$.-.%.$.%.$.-.$.* $.-.-.& 6.Z.' 3 e 0 a q 8 0 e 9 ",
"Z B b Z b b e b n 9 ! a.m.R &.&.*.*.%.-.%.%.-.*.%.$.-.*.%.%.$.-.-.-.-.*.-.& y.B.~ 4 w 8 e q 8 q q q ",
"8 w 5 b b 5 2 e n w k 4.m.>.$.*.$.-.*.%.$.-.-.-.%.$.-.*.%.%.%.%.%.$.*.*.*.* k.M.I 4 0 8 0 q e q e p ",
"3 w 5 4 w 5 4 b V V V  .m.7.@.;.$.*.*.%.%.$.*.*.*.$.-.*.%.$.%.*.$.$.*.*.%.R b.b.S s a 0 0 S e e f g ",
"5 5 B 4 w e e B n V B ) l.v.= -.%.%.*.$.$.$.= *.%.$.*.-.*.%.%.-.= %.*.*.$.R M.d.s s a q q n e e f F ",
"4 w B B B V V b e w 5 l 9.n.=.%.*.%.-.$.$.*.$.$.-.$.%.-.-.%.%.-.$.&.&.*.$.:.Z.e.< i i s e e q n S V ",
"b w 5 w B V s c w w 0 s 3.V.<.$.-.$.*.$.$.*.$.$.%.$.$.-.-.$.$.-.$.&.%.*.% <.Z.X.- 0 e V V f e e i 0 ",
"w c z c a a s b w w w 4 { b.h.#.-.$.-.$.$.$.$.$.*.$.*.-.*.$.*.*.%.-.%.-.% 8.C.^ 4 e s w s s q p i < ",
"w 5 c b c 5 s V e w B 5 ! j.n.*.%.*.&.$.$.$.#.$.$.$.*.-.*.#.$.*.%.-.%.%.% l.N.F w V s 0 i q 0 0 i 6 ",
"4 5 e Z B w w q 0 w B a G 4.m.,.$.-.$.-.$.$.* $.*.$.*.-.*.$.$.*.%.-.%.%.$ m.z.w 0 d q 0 w 4 8 0 a a ",
"5 4 4 Z b w q q w 0 0 4 0 | b.9.#.-.$.-.*.$.$.*.*.$.*.*.*.-.*.*.-.%.*.@.E C.t.0 i 6 6 e e a 6 2 6 a ",
"4 4 0 B n w 7 s w 0 6 4 4 ( j.b.* -.*.-.-.-.;.-.-.*.-.*.-.-.-.*.;.$.*.% ,.A.o.8 w 0 8 0 e e i 0 4 a ",
"0 0 i a V e 0 s w 4 6 6 0 f | b.,.@.-.*.-.-.-.-.*.*.-.-.-.-.-.*.-.*.;.@ 7.C./ w w 0 p 0 0 0 i 0 w B ",
"a 5 4 p e e 0 0 w 0 0 6 4 2 , G g y u u y j h r h h h t d d k k y L Y d P ! e b 3 8 q q i 6 0 i i a ",
"B w w 0 e b b 5 2 2 8 2 0 w 2 : ; < i 6 8 0 5 4 , , ; 8 e b 9 3 i 4 a w 8 < 8 9 3 2 8 p i w 0 i i a ",
"w b w w w e 5 3 1 1 8 2 w w w 8 < < 6 6 6 0 w w 0 < 6 e s b n e a 4 i a a i 0 0 w 2 2 6 s e 6 i 0 6 ",
"5 w s w 0 0 2 3 > 4 w 9 2 4 c e 8 6 < 0 0 4 4 w w < 8 a 0 w w 2 < < i a i 4 6 0 w w 8 8 0 0 7 r 6 ; "
};
