/* XPM */
static char *_1675710732[] = {
/* columns rows colors chars-per-pixel */
"50 50 35 1 ",
"  c #144A00",
". c #1A4D04",
"X c #1D4F09",
"o c #165300",
"O c #1D5305",
"+ c #1D5906",
"@ c #1E5409",
"# c #1E5C09",
"$ c #214E0B",
"% c #215506",
"& c #215A06",
"* c #22550B",
"= c #29560C",
"- c #245B0C",
"; c #295C0E",
": c #275511",
"> c #295611",
", c #265C10",
"< c #2A5E12",
"1 c #335F15",
"2 c #25620D",
"3 c #2A620E",
"4 c #266411",
"5 c #2B6312",
"6 c #276814",
"7 c #2C6914",
"8 c #2E6518",
"9 c #2E6E18",
"0 c #316514",
"q c #326915",
"w c #326519",
"e c #386419",
"r c #336C1A",
"t c #386E1A",
"y c #32721B",
/* pixels */
"964462####42##Oo22632&22#26y6###722262&&++265,-4<3",
"666664#####444624677222622222226y7662+&2++238-;477",
"4696#62#+#2446997777223q9622266yyyy2+#23---34*-556",
"+662#6##4222446773322233222266666y72+26622354--54-",
"+66+o###56----3533322233&&&223226773377355555,,522",
"464+oo##32-&+-3523332&3333&-37733633332&55554,-266",
"444#++##2--&&-30333333333q333qq333373&%+65r54,*#22",
"4-244226;2;&--3q33333333;300000333773++&47rr84,#26",
"56456645r4-----&&&3qtq330300eq333303=33&449ry5*O66",
"5559664555;---&&&&3300330000qe1;3333333;-*,5852-66",
"5656666#653---2&2233333q0001000=;;300333--*45,4422",
"644626#6-552255222233333333313;;330tt3=;;354844-2&",
"642##2#6#666657532233732q333;1;3030tt0&&;55r8,,#22",
"446##266222463223232733203;;;300qe0ee3&&&35544-#43",
"464###6662+422-222222233333;;30eqq0033;%-574,,4*;3",
"2442666#6oo262222222&&23&;&=&=00qt0;30;&3w5-##-4-;",
"#-2662&+&2+23q32+&&+--4-&<=**5e00q3332&7354;4*,-*-",
"6666332232&+3332222#;4<<-=;%*<8=3q3332&&q753*#-6=*",
"+2222qq7222237333222<--;OO.%***%3q3333&+455-@o*4-*",
"o#2-29yq222337q73&+2--*--O..*;=*3q32332+543-@#,5;*",
"+22#263&33q3&&333&-35%O%;%.*<w18rq3&3532052-448r85",
"o#24332+2232&&333-;55;%%-*.@<w885r4-373354--4wr5<<",
"o+26332++&22&223;35;<<;-;;*@*<<*4r03553-;---=4<3-&",
"#26672&+&2&&-32-35;-;<4=<55*:<<@*rr0q5-O-333;-;---",
"666962-+45854,43%%&34-=<8<,**,<85,<5<;-;8;---&;033",
"992#222-665444--&%;;;=48w4*,588,,<5,,,8553;3--;503",
"62+o+552444448-;&=&=<<805;-*,8,*,<,,;88<<;;;3;;30q",
"-#+oO-2+,#,,<84<%%;;<<<0<=*-,8<,,,,:*,,;%%%;3;;353",
"+222#++o#,4,,,4-%=;3<<55,,,,,488,@$<5:*,*O&;35;333",
"+2676-#+#4,,##*-%=;3<<=-*,,,#@,8@X@8w<*<;--510;337",
"2+226--4##,#*,;*=;;;-;,;,-#@@@#,,X@1w8<<8;=4333300",
"7+o++oo-o@@@,4;;;13=**;*54,,@@#@,:,<885=5;-=130333",
"92-2,#,4,#@@@,4<;;;<<*=58<;4,--@8;*<<,:*,****==;;;",
"y53664,44*#@*,,,;-;<<=;<-;<5;-O-8<*:,,<w<<<*<=**==",
"62578-#45,*@@@,@==;;5<;5*;<5;**<<;*@;,8w<:**===*==",
"---4,##,4,,#,,,,;*-=<<<;-;<54-,<*@@*:<<<<**%*<=*==",
"o&#--#,,5<,,,,,@;*;;;<-;8;455<,4**@@****<<**>1<111",
"#-&--24585,,,,*@;***;;*@<;*-<<;,8,*Xo;;;1<<*><1<ee",
"---245<<5<4,,,*@:<,;*******,;,,,8<,@*;:**:<<=:=<11",
"2--245,;-***:,;*<<<<**:*@*-**#,8<<<::<*@.*<811<<==",
"2---<--<-;****,<<;***<<,,,,,,@@@,*,<<<**;;<<<1:*$%",
"---44--<4,<<,,*,*:******,,@,,,,,@***:,,;,<<**>=***",
"+-35<;*4;;,<<****<:*X.*@:@#,,,,,******=*,=***==%*,",
"O+-5<;;=@@*******<:******:**,@@,,,,,****@**<==*$@:",
"O%&;4;*--%$%*=,<<<:X@:,,,,*,,@@,,<<,***<@**=>=**:,",
"++&;<---;%@%**;*<>*XX$@@**,,@@@@**,;@**<<*;*=;**,,",
";&&;<----%@.@*X.***X@@@$@@X@,,,*@*,:*@,<;***=*=*,,",
"5-&-<<;;%%@***@..***X*@,@X o,5,*@,<,*@*<*.*=>=**:>",
"-344=-;-@@*-#,,,@XX$@:@,@X@--45;*:,8,,@@**%$=*$::$",
"&-2-*#O#oo**@#,,@X@$:@$,,@@*--4*@@@,,@@@;**%>*$:$X"
};
