/* XPM */
static char *f99c9deb30964986c33e1103ce9b43804JqUJ7PDVm9CTMS9[] = {
/* columns rows colors chars-per-pixel */
"50 50 139 2 ",
"   c #3C7C0C",
".  c #3C7D11",
"X  c #437E0D",
"o  c #407E10",
"O  c #32820D",
"+  c #3C830E",
"@  c #348A0E",
"#  c #3C8C0E",
"$  c #3E910C",
"%  c #3C8312",
"&  c #3D8B12",
"*  c #3E9213",
"=  c #458907",
"-  c #44840D",
";  c #49850C",
":  c #448B0D",
">  c #4B8A0D",
",  c #45930E",
"<  c #4B940E",
"1  c #438413",
"2  c #4B8514",
"3  c #448C14",
"4  c #4B8B14",
"5  c #44851A",
"6  c #488618",
"7  c #468C1A",
"8  c #4C8D1A",
"9  c #518717",
"0  c #518C13",
"q  c #518719",
"w  c #528D1A",
"e  c #449314",
"r  c #4B9315",
"t  c #449A16",
"y  c #4C9B15",
"u  c #469219",
"i  c #4C941A",
"p  c #459B18",
"a  c #4D9B1B",
"s  c #529315",
"d  c #589116",
"f  c #529A16",
"g  c #53951B",
"h  c #5A941E",
"j  c #549B1C",
"k  c #5A9C1D",
"l  c #619C1E",
"z  c #4CA116",
"x  c #4DA01B",
"c  c #58A015",
"v  c #55A11D",
"b  c #5BA21D",
"n  c #57A81F",
"m  c #5FAA1D",
"M  c #62A31D",
"N  c #61A91E",
"B  c #4B8F21",
"V  c #558E21",
"C  c #4E9321",
"Z  c #549422",
"A  c #5B9522",
"S  c #559B21",
"D  c #5B9C22",
"F  c #5C9B29",
"G  c #639721",
"H  c #629C24",
"J  c #699C25",
"K  c #639D2A",
"L  c #699D2B",
"P  c #6B9F30",
"I  c #55A322",
"U  c #5CA323",
"Y  c #57A923",
"T  c #5DA923",
"R  c #5CAA24",
"E  c #5EA429",
"W  c #63A122",
"Q  c #66A621",
"!  c #61A124",
"~  c #60A125",
"^  c #66A124",
"/  c #61A625",
"(  c #60A427",
")  c #62A626",
"_  c #69A723",
"`  c #68A425",
"'  c #61A821",
"]  c #60AA26",
"[  c #65A825",
"{  c #64AA24",
"}  c #6BAB26",
"|  c #6AAB27",
" . c #69AD24",
".. c #61A32B",
"X. c #64A32A",
"o. c #66A728",
"O. c #64A12C",
"+. c #65A72D",
"@. c #68A22A",
"#. c #6AA32B",
"$. c #6DA629",
"%. c #62AA29",
"&. c #66A928",
"*. c #63AE28",
"=. c #6BAB28",
"-. c #68AA2B",
";. c #6CAD29",
":. c #6FA92D",
">. c #6BAF2F",
",. c #71AC2B",
"<. c #71AC2C",
"1. c #6CB227",
"2. c #6DB229",
"3. c #71B429",
"4. c #73B52B",
"5. c #6BA532",
"6. c #6FA430",
"7. c #67AA30",
"8. c #6DAB33",
"9. c #6FAC38",
"0. c #71A631",
"q. c #70AC30",
"w. c #73AC33",
"e. c #76A834",
"r. c #71AC34",
"t. c #76AE35",
"y. c #7DAC39",
"u. c #6DB233",
"i. c #73B332",
"p. c #74B731",
"a. c #75B535",
"s. c #7AB034",
"d. c #79B137",
"f. c #7CB439",
"g. c #7DB43A",
"h. c #83B43F",
"j. c #83B241",
"k. c #85B442",
"l. c #94BA4E",
/* pixels */
"B D $.f k ,.j.t.~ f S -.3.] S * * e e e g S g S k D D f i r # 3 r i 3 u t e v T m >.I t e D e a | E ",
"A D b k k Q g.<.t.~ v ] p.;.v S j a a & @ r g f 4 i 3 4 H 3 r u i k Z u S I M j a j , : r a i D S i ",
"L 6.H W k v ' ~ I I x p I u.v I 3.2.E p u e e e - ; > r g D b y f U / b a v T T z c b M k > #.0.8 k ",
"H S g 3 3 3 i u i p p a %.+.v b %.a.Y j a e e e 1 9 0 s k M l /  .;. .N v a i j f M d.:.k A D ~ S H ",
": k r 3 r r h i r u I S j a x t x Y T I p p e a r 6 + 8 D k _ =.[ [ v v k k / -.U U -.D D f 4 4 i 3 ",
"4 g S M a y k / b a g i u u p a Y b U +.x * a g 8 8 1 7 O.W D U f Y j k O.-./ ` [ D k k g u 2 1 2 ; ",
"s g b M ' Q  . .m f g k g u v I _ y a f , < s e 8 % % 3 k i i S y f f D o.9.O.S U 3 r f f g 1 - 2 0 ",
"1 k k l ;.| o.U v f b U ' v g v %.v z b b _ k r & O @ * e a a u i i g i D w.o.j g S D D b f 4 8 4 : ",
"6 F #.^ / b v k M ;.;.;.[ T b i j k g | s.#.D g 7 @ & i g j & 3 8 F F Z I U j S 7 H v D g e h A 8 1 ",
"3 f g i S a S b | [ / b v D k b *.<.b ' %.D f g C e 3 i f e C Z A #.~ F E e g <.F S D ~ Z s i 8 5 . ",
"e t t g u i #.H D I f I f D O.-.U Q ~ k k i y y I a e e e & p U +.D i u 8 e v U Z Z #.H D M r + O O ",
"8 i j u & i g i g a y f y D -.9.D D S 3 d f f k U a p t e e 8 i g g 4 3 7 3 g S :.A 4 D L D k u # # ",
"i j r * & e t y r u i Z g i o.9...r g E ~ ~ D j %.Y x * j g I i Z r H 5.h H L D 6.D S J L H D S * & ",
"e e e # 3 i g y 3 7 B K F S I S S K w U j H i u %.E * , a g S S I S D L q w A 0 r s g u y g r S C t ",
"p r e e u p y u C S H L D U C e ~ r.B S :.X.D c j < < k e r i Z g e 8 6 4 2 A w 1 2 3 - s Z h I x p ",
"t p g S e e : & a I X.g 3 3 3 a I C F F ` k #.j b =.t.W k 8 3 S D = 4 1 6 4 < 1 - ; 0 s s k ' T Y x ",
"# i S i * t e i 7 * k g i 8 4 4 k <.y.8 i L #.A l ,.t.H ~ g k g g 4 + 5 1 - = X 1 w 2 : g k b Y T e ",
"f f e f t t S j S i C 8 e.0.A $.H A @.D l X.H D s b D k y b k k > h r 1 + 0 > ; w 0 3 1 Z ~ v f y , ",
"| 8 f p $ r g j S S I j k Z 2 w A 4 > r i e s r & u y g s / f #.l 4 w 1   - 1 8 A B 1 1 7 X.f j M 0.",
"l k g y c g e e C Z g < 8 6 q w A 2 2 1 ; 1 k h S #.l d H k  .| -.i g i 8 1   % 3 & @ 3 a g a f ,.s.",
"D j N ,.<.k A 4 i j s 3 3 1 1 > ; - ; 2 2 s s D o.K H A r r r i i t p p v b T E I p p g j D :.H Q H ",
"g s b i.o.D D s j g s 4 1 5 % - = X q 4 1 > 4 r u r k 3 u i i i u u j a v b I / p & r g g X.D A y u ",
"g l k I k k t b b f r 4 > . - 0 ; 9 A 8 3 2 2 4 ; g k g f g f k S a a E ;.v z f < f k e 3 & s i 3 e ",
"r k I b y a v M z y f f U 1 X     8 8 5 + 4 1 9 0 r k M b I N [ 1.b j j I y j Q <.<.k 0 > 4 f k k g ",
"M  .1.N b j S I g n ,.<.#.W 8 1 w A Z 7 2 X w 2 : d k k N ;.<.-.N %.Q i j / k M t.` k w 4 s g D b M ",
"2.;.U b [ f f [ Q k  .,.U k k H 6.X.A s r w w 3 % 7 X.#.| U k U v j D / [ ;.o.T U S f 8 : : h j k ;.",
"v U ~ f D O.o.-.=.#.S f U r r s r g r # r H Z 7 1 8 O.S g Y y z f ~ 7.9.~ D b i s s r 8 1 1 F o.W +.",
"p y b f +.9.6.k I i : s s : 4 : 4 g g k u + O O & i t e k i r r i S U t.O.j S i k b k 8 % 3 g k r g ",
"u i r i k w.9.D S S g k k f 2 0 s g U ' g 7 & @ * i t r u 7 B S C 3 U 7.I Z g F U H k % O e i t a g ",
"7 Z ..Z g E U I 8 A E I k i 8 : > g b k =.T u @ 3 g f r 7 i B P O.g E e g 5.Z S g U i & # 7 i a u 3 ",
"i A #.D E a & $.5.u g U S g e 1 % A ` ^ >.b a e * e e * i S L D k S i u ' o.C F <.H H b e y j r a Z ",
"U K Z i i r a [ S B ^ $.D #.f 1 5 H ~ r S I y v * e e 3 r e O.s & 3 3 e g D K Z k k D g r u e e e S ",
"i D i 5 7 3 3 Z D P C k S K g % # u t g a 3 r r r e i a i u 8 C K ..w A D L y.A s X.0.L k , e e u i ",
"u 8 k 8.G h H k 0.0.s D e.L H & & u f u & u C F S a S g S S C g #.0.g H l w f k D Z g i e t t i S i ",
"a F f :.A g G h g f g D g g r # i k a u 7 8 K 6.F E y a Z S I a g w 1 2 G 4 2 4 6 : g k 3 # r j g U ",
"S g r g 2 1 w d 2 2 4 ; 3 k i e e r e e U E K h i i u p i S g : 4   q d w 8 - 1 > > s g , r s t i F ",
"F e 4 3 1 q 0 4 1 2 2 > 0 s j a e < e e g D U 8 & 3 4 i D U k - 1 1 . - = - - 2 4 0 f k Q } s r : i ",
"j r ; 1 5 + = = - 2 2 4 s k Y p p p i g u u i i K A w D k e.L 8 3 5 - > ; X w 9 3 - g | d.~ H Z i f ",
"r s 4 1 5 4 > X 2 w 4 % 7 D 7.a * a g F Z S S k 0.G A J g h f k h 5   0 ; 4 A 8 6 8 F Q 8./ f T 4.[ ",
"U r h 8   X 2 - h A 8 8 7 D f # r r a i S j j r h 8 o V d 2 4 4 3 r 4   1 K H D k b ;.-.o.%.j v Y u.",
"Y I i 4 2 1   Z L H W f g f b M _ s r 3 Z S 3 4 1 5 2 d 8 1 2 2 2 r g k L o.G k r r a i a y p p x n ",
"/ E t : k i h #.H k y u i v $.g.W D g 4 g j r ; 3 5 - = = - 2 q > s k k g g i & u r g u 4 u x S T b ",
"f f < k r e i r h 3 3 e i k M [ I b f k b 4 s 6 1 5 4 > ; X 8 4 + 8 D k : j h f f r f D S a x T U y ",
"b / <._ u 4 : 4 k g k r s k U b g x U ~ k k d s 2   - 2 - G V 7 1 8 K #.g s D N k b ' [ ' b a j b y ",
"j 4.e.D ~ g s s g ~ M b ' [  .b v j v k y _ g 8 6 6 o   % 2 7 . % 4 D u 4 g k k _ ;.;.Q n / j i U D ",
"Q U / k a j g > k k M | ;.-.N U / g j ~ D b H Z h U h 4 3 u S H 5.K j t 7 Z ^ ^ :.T U b f D k ' ;.| ",
"D r s f r U D 5 F #.#.[ b U v k S ^ / | ` W I Z D g g k 3 v i.t.l.k.[ ~ S k =./ Y a z b j E 9.-.U D ",
"S 3 k j f D g 3 U k i I y z b k +.9.` k / i i S C ` ~ D M c r b h.k.0.~ k v ;.;.T a e r y O.:.6.D j ",
"F E U U g a H i e e g u u r r i E t...b S i i Z A S k g Z g k f  .g.>.r.S b Y a.*.v a e e i :.7.k u ",
"Z D g k 3 a k.#.j I u j U j i u k 7.E g 3 F H 0.o.4 D @.0.J M j k ' D I v p p Y %.I y p t a a e K K "
};
