/* XPM */
static char *_1675710732[] = {
/* columns rows colors chars-per-pixel */
"50 50 245 2 ",
"   c #213D00",
".  c #433C00",
"X  c #1B4C04",
"o  c #174B03",
"O  c #1B5303",
"+  c #1C5B05",
"@  c #1D5509",
"#  c #1D5C0B",
"$  c #145705",
"%  c #1D5D12",
"&  c #1D5510",
"*  c #0F520B",
"=  c #244C02",
"-  c #2B4E00",
";  c #224E0B",
":  c #274300",
">  c #344E00",
",  c #3B4B00",
"<  c #245402",
"1  c #2B5302",
"2  c #245B05",
"3  c #2B5C02",
"4  c #24550B",
"5  c #2A550C",
"6  c #245C0B",
"7  c #2B5C0C",
"8  c #325301",
"9  c #335C01",
"0  c #3B5C00",
"q  c #365907",
"w  c #245413",
"e  c #2B5511",
"r  c #245C12",
"t  c #2B5C12",
"y  c #245D18",
"u  c #325C13",
"i  c #1D620C",
"p  c #156308",
"a  c #1E6112",
"s  c #1F6119",
"d  c #2E6306",
"f  c #24620D",
"g  c #2B630D",
"h  c #28690E",
"j  c #3D6201",
"k  c #33610B",
"l  c #346709",
"z  c #246313",
"x  c #2B6413",
"c  c #266914",
"v  c #2B6A15",
"b  c #25651A",
"n  c #2A661A",
"m  c #27691A",
"M  c #2B6A1A",
"N  c #326413",
"B  c #326A15",
"V  c #326618",
"C  c #376A17",
"Z  c #2D7115",
"A  c #30701C",
"S  c #2B6D23",
"D  c #425D00",
"F  c #485501",
"G  c #5A5B01",
"H  c #404D00",
"J  c #476704",
"K  c #567311",
"L  c #556C0D",
"P  c #69680D",
"I  c #66770B",
"U  c #687611",
"Y  c #897A15",
"T  c #BB7F0C",
"R  c #AF7411",
"E  c #847F21",
"W  c #A97C21",
"Q  c #C17917",
"!  c #6F8318",
"~  c #748725",
"^  c #738E2A",
"/  c #B99518",
"(  c #AF8710",
")  c #889224",
"_  c #849B32",
"`  c #928B2B",
"'  c #AE902F",
"]  c #97A234",
"[  c #8FA436",
"{  c #ABAC39",
"}  c #C2890E",
"|  c #CA881E",
" . c #D1921C",
".. c #D09217",
"X. c #D9A81B",
"o. c #E6AA1D",
"O. c #EBAB1C",
"+. c #E8A817",
"@. c #F2AF1E",
"#. c #E7B41F",
"$. c #F2B01D",
"%. c #C99625",
"&. c #D69C23",
"*. c #E59B2C",
"=. c #CAA928",
"-. c #D2AB23",
";. c #D9A729",
":. c #D7B42C",
">. c #D9BA33",
",. c #D7A63B",
"<. c #E8AB25",
"1. c #F2AE26",
"2. c #ECB424",
"3. c #EDB924",
"4. c #ECB42A",
"5. c #EBBD2D",
"6. c #E4B729",
"7. c #F2B524",
"8. c #F3BB24",
"9. c #F4BD2C",
"0. c #F8B928",
"q. c #E2AD35",
"w. c #EBBB33",
"e. c #EBB539",
"r. c #E6B737",
"t. c #F4BE33",
"y. c #F8BC37",
"u. c #DEC33B",
"i. c #D8C53B",
"p. c #CFC33D",
"a. c #EEC32C",
"s. c #E9C128",
"d. c #F4C22C",
"f. c #FAC32D",
"g. c #F3C82C",
"h. c #E5C235",
"j. c #EBC334",
"k. c #E3C43C",
"l. c #EBC33B",
"z. c #E7CB3A",
"x. c #EDCA3D",
"c. c #F4C432",
"v. c #FBC433",
"b. c #F5C935",
"n. c #FAC936",
"m. c #F3C53B",
"M. c #FBC43C",
"N. c #F3CB3C",
"B. c #FACC3B",
"V. c #FBD23E",
"C. c #F7D33A",
"Z. c #B89A42",
"A. c #97B043",
"S. c #A6B748",
"D. c #BABB46",
"F. c #AFAD4B",
"G. c #D2B54E",
"H. c #E8BA46",
"J. c #FCBA45",
"K. c #EABB51",
"L. c #B7C756",
"P. c #ADC458",
"I. c #BACE65",
"U. c #BED365",
"Y. c #C4C64E",
"T. c #DDC742",
"R. c #DFCD47",
"E. c #C9CB55",
"W. c #DDC15B",
"Q. c #E2CA42",
"!. c #ECCC42",
"~. c #EBC645",
"^. c #FEC545",
"/. c #F4CC43",
"(. c #FCCB43",
"). c #F2CD49",
"_. c #FAC649",
"`. c #ECD145",
"'. c #E5D24A",
"]. c #ECD24B",
"[. c #EDDC4D",
"{. c #F4D244",
"}. c #FDD344",
"|. c #FCDB46",
" X c #F3D44B",
".X c #FBD54B",
"XX c #F4DA4B",
"oX c #FBDC4B",
"OX c #F2D847",
"+X c #E8C557",
"@X c #EDD653",
"#X c #ECDA5A",
"$X c #E9D956",
"%X c #F4DB53",
"&X c #FDDB54",
"*X c #F2DD5D",
"=X c #F3D553",
"-X c #FDC854",
";X c #F9E24D",
":X c #E9E55B",
">X c #F4E254",
",X c #FBE554",
"<X c #F3E45B",
"1X c #FCE45C",
"2X c #FEEB5D",
"3X c #F9E95B",
"4X c #FBF25D",
"5X c #CBDC71",
"6X c #C7D96D",
"7X c #F7DC63",
"8X c #EBD661",
"9X c #DCE266",
"0X c #D8E879",
"qX c #CEE170",
"wX c #E8E767",
"eX c #F4E463",
"rX c #FBE662",
"tX c #F4EB64",
"yX c #FCEB64",
"uX c #F3EB6B",
"iX c #FCEC6A",
"pX c #F6E56A",
"aX c #F5F36C",
"sX c #FDF26B",
"dX c #FEFA6A",
"fX c #FBF567",
"gX c #E8EC71",
"hX c #F3EF74",
"jX c #FCEE71",
"kX c #F4F174",
"lX c #FDF373",
"zX c #FDFC74",
"xX c #FDF679",
"cX c #FEFB7C",
"vX c #F5F67E",
"bX c #EDF77A",
"nX c #DEEE81",
"mX c #E7F483",
"MX c #FCFB84",
"NX c #F3FE8B",
"BX c #FDFF8B",
"VX c #F6FC83",
"CX c #F6FF94",
"ZX c #FDFF94",
"AX c #EEFE91",
/* pixels */
"M h f h h f f + $ a b * S a o 3 0 D 8 U S.E.rX7Xe.&. .%.' Y G , j l d v z * y # + 2 d l v f % b r g ",
"c c c h h f i + % # s s m 6 7 l 0 D S.0X9XvX#X/ | q.J.-X&X8XG.) j l C + n S * % O < 3 d d 6 % b m x ",
"i c Z h f f i + % % % z r N C 9 J S.9XwXlX'.( -.^._._.J.).*XwXgX[ J l 3 r % % z + 2 d d g # % b z h ",
"p c c f + f f + z m a z 2 C 9 j S.gXaXwXu./ X.(.4.9.^..X&X%X#XwXNX[ J d g o S m h f d f d 6 r n z f ",
"# z c + $ + i + z z z 2 < d 9 ^ bX:X<XrX-.X.}.9.9.b.N.z.!.&XyXtXgXbX^ 3 C V S r x h g l h 6 g z z g ",
"a c z # $ O # # z # r 7 < 1 K qX:X>X,X>.6.v.0.0.v.c.b.C.OX X[.#X9XVX0X! 3 C 6 # z z h g 7 2 7 6 h z ",
"c z z # # # # # z # 2 d - 0 P.bX:X;X,X5.<.v.v.M.c.s.z.;X;XOXXXyXtX:XVXU.0 1 4 # z v v v d 6 2 2 g z ",
"z z 6 z r 6 z z z h < 1 1 I bX9X:X,Xz.j.M.t.y.5.N.4XdX4X4XfXyX>X>X<XhXNX! - < # m M M M x d 7 3 h f ",
"v z 6 z v x z z x B 3 = 0 L.gXwX<X<X`.k.M.e.w..X2XzXdX:XdXzXfX:X[.4XtXMX5X8 q 6 z s m A C g < < h z ",
"x z v M M z b m m N l - I 9XwX<X>X,X`.r.l.~.).yXfXdXzXaXaXaXtX3X,X,X4XvXmX~ - 3 # i a c v x 3 3 x v ",
"g x v v z z z n z d J - ] zX<X<X2X>X].u.~.].yXlXzXlXzXcXaXtXtXfX,X,X3XlXBXI.- 3 6 i a z x 7 3 k h f ",
"g g h x 6 z a z g 7 j F E.kX%XoX2X%X`.>.T.*XsXlXlXzXkXaXaXtXtXtX,X,X3XkXVX0XD 9 g z b b z g 7 7 6 2 ",
"x g 2 + i f z % 6 g 8 U gX$XXX|.,X|.h.i.'.yXzXuXsXcX#Xp.:XdX>X3X,X;X>XsXkXmX~ = g n m m z r 7 7 6 f ",
"l g f + f z b z 6 k 8 [ vXQ.|.|.|.N.h.u.>XfXdXyXsXzXT.=.'.yX3X,X,XXX'.tXxXNXS.: 3 n m m z z 6 6 g h ",
"g d f d f z z z x 3 0 L.gX].{.}.n.n.s.z.4XdXfXfXyX%Xh.>.x.;X;X,X;X[.'.$XxXBX6X8 1 g x b % r 7 4 7 7 ",
"f d h f f z z z g < D E.#X=XN.}.n.C.z.z.fXdX3XdX<X>.>..XN.b.|.;X;X>X'.p.jXBX0XL 3 h c s % 6 r 7 6 6 ",
"2 6 z m n 6 # 6 7 > U #X/..X).=XB.:.z.,XsXlXsXsXi.T.`.x.x.b.C.|.|. X%Xi.$XxXNX^ 3 g v z % 6 e 6 6 6 ",
"g g x m x x z 7 x 8 ! #X/.(.).&XN.s.z.1XsXsXsXrXT.Q.x.x.c.b.N.}.}.{..Xh.@XxXNX^ 3 k M b % # 7 e 5 4 ",
"2 g z % x v A V 7 8 ) =Xm.(.).&XN.5.x.1XiXiXuX3XR.z.`.N.b.b.b.B.V.C.{.h.T.xXZXA.3 d c f $ O 4 t 4 4 ",
"O 6 z # g B C B 7 0 ] @Xm.v.).&Xx.a.{.yXsXiXrXrX'.!.C.N.N.b.n.b.N.(.N.x.>.kXBXP.j g f i # 4 7 N r 6 ",
"O 2 z i 6 x x 2 g J S. XN.c./.&Xj.j.|.yXyXyXyXrX].`.{.B.B.B.B.n.B.B.b.x.:.iXVX6Xj d d i i x N C t x ",
"O + f z d h f O 2 0 D.'.j.9./.&Xj.j..X1XiXyXrXrX].`.N.N.B.V.B.n.n.n.c.N.=.*XBXqXj d i f z x B N x t ",
"O + f c v g 3 2 < 0 Y.Q.a.9./.&Xj.j.XXyXyXeXtXrX@X`.x.l.N.(.(.B.v.f.v.l.:.$XBX0Xj 3 + i 6 6 g 7 7 6 ",
"2 d z m v f 2 O < 0 E.u.a.8.}.&Xj.h.=XyXrX7XeXrX@X].!.l.N.(././.f.9.v.t.:.@XBX0Xj 3 f i f 2 6 7 6 6 ",
"d h c m x f < < d J Y.Q.d.2.m..Xh.~.=XrXeXeXeX*XyX].).!.m././.m.v.0.0.c.-.*XMXnXJ d d + O 2 g N 7 g ",
"C v f # f d d f g J E.z.d.8.N.&Xl.!.&XyXeXpXpX*X7X X=X/.~.).)./.v.8.f.c.-.#XBXnXj d 6 + # 6 7 u x N ",
"l h + $ + g h 3 3 J Y.Q.3.8.N.&Xh.z.=X<X#XeXeX#X%X X=X~.r.~.H.m.v.8.f.c.-.=XMXnXj 3 2 i g 6 7 7 B B ",
"f 2 $ $ O f 6 2 < j G.u.3.#.b.&Xw.h.{.%X*X$X@X@X].)..X/.r.l.r.6.v.8.f.b.-.@XMX0X0 < O z x r 7 N N g ",
"# 6 z a # 2 O O < F { u.#.$.m.&Xl.j.{.&X%X=X=X X).N.}.M.c.m.w.4.v.d.d.c.-.7XMX5X9 < O z V n t u g h ",
"+ g m m x 6 2 < < 0 { z.3.8.w.&Xb.c.N.|.XXOX.X{.m.6.M.t.t.M.w.4.f.0.f.m.:.rXMX6X9 3 6 x n x t u N g ",
"6 + # m z 6 6 x 1 8 ' Q.3.3.5.&Xn.8.g.B.(.N.C.N.g.#.2.9.7.8.<.4.d.d.v.j.:.lXMXS.9 3 f z z t u t N B ",
"v 6 $ # 4 O O 6 1 - ) Q.4.2.6.oXb.8.g.B.b.N.B.B.n.<.7.0.7.1.O.7.f.v.b.l.>.cXVXS.1 3 6 6 y t u u g g ",
"Z f 2 g 6 6 a z 7 8 ) K.H.6.6.V.C.6.c.b.g.V.b.c.t.0.<.O.$.$.$.0.0.9.(.:.@XxXZX^ 1 2 6 4 r e 5 u e 7 ",
"Z h g x n r a z 6 8 P W.H.4.3.n.V.5.N.C.b.C.v.c.9.4.o.O.$.+.$.0.f.v.m.>.*XhXCX! 9 7 6 4 t w 5 e 5 7 ",
"h f g N N 6 % z 6 9 G G.H.e.2.d.}.w.b.b.f.g.g.d.9.4.o.O.$.$.$.f.t.c.w.k.iXvXAXK 3 7 2 4 w 5 ; 1 5 5 ",
"p i 6 k 7 # # # g q H Z.+Xe.4.2..Xj.5.c.b.f.9.f.t.4.<.+.$.$.8.f.f.a.5.].jXZX5X0 1 7 @ @ 6 5 5 5 5 5 ",
"$ p 2 6 5 6 % z v 7 0 ` +XH.y.1..XM.5.d.f.d.d.f.9.t.o...+.f.f.8.d.3.j.rXuXZXA.: N t 4 4 e t 7 N u u ",
"p p 2 7 5 7 x z x 3 0 P W.q.J.1.^._.t.9.f.d.d.8.0.v.2.X.$.f.g.8.s.a.OXsXhXZXU 8 u x r 4 r t 5 7 C V ",
"p p f 7 u u N z f f q F Z.,.*.*.<._.M.d.f.8.f.8.v.v.f.8.d.f.d.f.8.C.;XsXBXnXJ 5 1 e y r t 6 2 7 u N ",
"p p 2 7 u u t 6 # f ; > ` ,.Q Q ..^.M.f.f.8.f.f.0.f.9.v.f.s.#.g.g.;X4XaXCXS.; : o 4 t t V x 3 g 5 5 ",
"a i # 6 5 4 e x z + g - G ' W Q T  .(.M.2.0.8.f.f.f.c.d.a.a.a.a.C.2XiXMXmX~ 1 ; 5 t t t t g 6 < @ ; ",
"i # f g 7 7 t z z # x 3 F Y W R R } y.J.v.f.8.8.f.d.c.c.j.c.b.C.;X>XuXZXI.- u 4 t t e 5 4 6 6 4 4 4 ",
"$ # f x N 7 e e # 6 6 k   P ' W R T ;.M.t.v.d.8.d.d.c.c.b.C.|.oX4X<XgXCX^ o t w e e 5 < 4 4 4 @ 4 4 ",
"@ # f z x 7 5 7 w @ 6 6 e F E Z.%.( &.e.t.d.f.d.d.c.N.N.}.|.oX,X<XaXmXI.1 u X y w 4 5 5 7 r 4 O 6 w ",
"@ @ # f f 6 6 e t X # o ; q P Z.G.| %.q.e.8.g.d.9.d.N.N.|..XoX,X$XvXnXK = 4 & n 4 ; 1 q 7 e w & r r ",
"e 4 # # i f 5 e u @ w o e > ; U G.K.q.q.4.6.d.v.a.c.N.C.{. XoX<XcXmX_ : 4 X y r e w 1 5 5 4 w w t r ",
"u 4 # a i i 5 e e ; w @ 6 4   F ' K.K.r.:.X.3.g.g.m.m.!.{.OX&X*XgXF.8 8 4 % % & r 1 - 5 5 w w w y r ",
"e r # i z 6 7 5 ; e X @ # y w   H ' G.H.r.X.X.-.M.M././.!.%X7XhX{ H 8 k 4 * b y @ = = q e e w & w w ",
"e x z g # 6 6 6 @ X 6 % @ 6 t 7 : , E G.~.H.r.} &.e.^._.=X7XE.) - = 1 t r @ 4 @ 4 4 4 ; 5 e ; w e ; ",
"6 6 6 6 6 # @ @ O O 4 6 @ 6 r r w : , P ( =.J.H.;.%.| %./ Y G : 1 X 4 t 7 4 4 4 6 6 X 4 e w ; w ; X "
};
