/* XPM */
static char *_1675710732[] = {
/* columns rows colors chars-per-pixel */
"50 50 243 2 ",
"   c #263A00",
".  c #1C4C02",
"X  c #165502",
"o  c #1B5304",
"O  c #165C04",
"+  c #1C5B05",
"@  c #1D540A",
"#  c #1D5B0B",
"$  c #165A0B",
"%  c #1D5C13",
"&  c #195811",
"*  c #254501",
"=  c #244A00",
"-  c #294A05",
";  c #344500",
":  c #344C01",
">  c #3C4C00",
",  c #3A4804",
"<  c #225404",
"1  c #2C5401",
"2  c #235A04",
"3  c #2B5B03",
"4  c #23550B",
"5  c #2B560D",
"6  c #245C0C",
"7  c #2A5C0C",
"8  c #325400",
"9  c #3B5300",
"0  c #325B03",
"q  c #3B5C01",
"w  c #325D0B",
"e  c #34570B",
"r  c #2A5513",
"t  c #245B11",
"y  c #2B5C12",
"u  c #265A17",
"i  c #325C13",
"p  c #355B16",
"a  c #1D620C",
"s  c #196207",
"d  c #1D6418",
"f  c #226202",
"g  c #2B6303",
"h  c #23630C",
"j  c #2B620D",
"k  c #25690D",
"l  c #2A6A0B",
"z  c #2C6C01",
"x  c #34620C",
"c  c #376506",
"v  c #256411",
"b  c #2B6413",
"n  c #256A14",
"m  c #2B6A13",
"M  c #29631A",
"N  c #27681A",
"B  c #336213",
"V  c #356718",
"C  c #29711C",
"Z  c #387217",
"A  c #315F21",
"S  c #376920",
"D  c #2C6822",
"F  c #474901",
"G  c #435D00",
"H  c #4D5D01",
"J  c #465102",
"K  c #575803",
"L  c #544F00",
"P  c #6D5807",
"I  c #436202",
"U  c #4A6502",
"Y  c #4D6A08",
"T  c #556706",
"R  c #567406",
"E  c #4E7606",
"W  c #696404",
"Q  c #78710A",
"!  c #717317",
"~  c #7C7D20",
"^  c #876E08",
"/  c #AD7315",
"(  c #8C7929",
")  c #977627",
"_  c #8B5A0B",
"`  c #6D841C",
"'  c #7A8A23",
"]  c #6E9321",
"[  c #898A2A",
"{  c #938929",
"}  c #889B36",
"|  c #989535",
" . c #8F9529",
".. c #B3842B",
"X. c #AB962F",
"o. c #A29839",
"O. c #B89534",
"+. c #AA8A35",
"@. c #9AA739",
"#. c #90A936",
"$. c #A9A538",
"%. c #C8871B",
"&. c #D18A1E",
"*. c #D7941F",
"=. c #EB9D1D",
"-. c #E7991B",
";. c #F19F1F",
":. c #EDA51D",
">. c #CD8C25",
",. c #D38A23",
"<. c #C59425",
"1. c #CC9728",
"2. c #DB9A26",
"3. c #CA9835",
"4. c #D49C32",
"5. c #DA9E34",
"6. c #EC9F21",
"7. c #E39D28",
"8. c #E39D3D",
"9. c #D8A42A",
"0. c #C1A63B",
"q. c #DCA63A",
"w. c #D6AA35",
"e. c #EDA323",
"r. c #EDAC25",
"t. c #E3A42D",
"y. c #EBA52A",
"u. c #EDAD2B",
"i. c #E6A826",
"p. c #F2A424",
"a. c #F4AC26",
"s. c #F9AC26",
"d. c #F3A72C",
"f. c #F3AC2C",
"g. c #F9AD2C",
"h. c #EEB323",
"j. c #EEB12C",
"k. c #F3B225",
"l. c #F4B22D",
"z. c #FAB32C",
"x. c #F9BB2D",
"c. c #E4A333",
"v. c #E4AD34",
"b. c #EDAC33",
"n. c #E4A63A",
"m. c #ECAC3A",
"M. c #E8A938",
"N. c #F3AD33",
"B. c #FAAE34",
"V. c #F4AD3C",
"C. c #F5AA39",
"Z. c #EDB334",
"A. c #EBBE35",
"S. c #ECB43B",
"D. c #ECBC3B",
"F. c #E5B63A",
"G. c #F4B233",
"H. c #FBB333",
"J. c #F2BA34",
"K. c #FCBA35",
"L. c #F4B43B",
"P. c #FBB53B",
"I. c #F3BA3D",
"U. c #FBBA3C",
"Y. c #ECC339",
"T. c #FCC33A",
"R. c #B8A647",
"E. c #AEB74C",
"W. c #BABD59",
"Q. c #B1B447",
"!. c #DAAD45",
"~. c #C5B74A",
"^. c #DAB848",
"/. c #DBBD52",
"(. c #CBAD4F",
"). c #E7AC43",
"_. c #E5B542",
"`. c #ECB443",
"'. c #ECBC44",
"]. c #ECB54A",
"[. c #EDBD4C",
"{. c #E3B947",
"}. c #F3B442",
"|. c #F4BC43",
" X c #FBBC42",
".X c #F4BD4C",
"XX c #FBBC4A",
"oX c #F9B448",
"OX c #EBBA56",
"+X c #F5BC53",
"@X c #F3AF44",
"#X c #E2BF63",
"$X c #B8C559",
"%X c #C4C85A",
"&X c #D9C758",
"*X c #CEC955",
"=X c #EDC34C",
"-X c #EDC948",
";X c #F5C144",
":X c #FCC244",
">X c #FDCB45",
",X c #F4C34A",
"<X c #FCC44A",
"1X c #F4CB4C",
"2X c #FDCB4B",
"3X c #EAD24D",
"4X c #F9D44A",
"5X c #E4C353",
"6X c #EFC451",
"7X c #E8C95A",
"8X c #F3C254",
"9X c #FDC454",
"0X c #F4CB53",
"qX c #FDCB54",
"wX c #FEC65A",
"eX c #FECA5C",
"rX c #F6CB5D",
"tX c #ECDB5B",
"yX c #E6D559",
"uX c #F4D153",
"iX c #FBD255",
"pX c #FED35A",
"aX c #F6D756",
"sX c #D8CA67",
"dX c #CAD462",
"fX c #CFD768",
"gX c #DCDB6D",
"hX c #D6DA73",
"jX c #E4C96A",
"kX c #F5C865",
"lX c #EBDE6D",
"zX c #E7D767",
"xX c #F6D966",
"cX c #E5D971",
"vX c #F1DB73",
"bX c #E9CF70",
"nX c #DFE86B",
"mX c #ECE468",
"MX c #F4E369",
"NX c #E6EA74",
"BX c #F6EC7A",
"VX c #E6F77B",
"CX c #F4F885",
/* pixels */
"C d a k k f s a & d d % & + 2 3 J L K P ^ / %.%.,.&.&.7.].=Xq.O.Q K 9 c f s O s a & u A A y 4 M j j ",
"C n n n k k a + & % d d h b g 1 K Q X.0.!.].].oXC.@XoXc.>.<._.xXNXhX} I 3 s O O $ & % A S y 7 6 m m ",
"a n m k h h h $ @ M t 4 V 0 q ` $.(.5X7XOX`.`.V.C.C.C.oX}.v.9.<.^.sXCXhX` 3 g g + 4 u u M 6 h 6 b v ",
"$ m m h + h h + M y y 8 8 H ' W.&X7X5X{.S.`.V.C.P.P.d.y.b.Z.F.F.<.^.7XNXNX#.I c c j b v 6 h h b h h ",
"2 b j 2 X + h + b 5 x G J | cX&X=X{._._.|. XU.H.p.f.H.H.l.G.N.Z.:X1.1.5XxXCX$XT c 3 l m k s v m h h ",
"7 B j + X X + 4 5 w > K o.jX7X{._.`.}.I.L.G.l.f.K.f.:.:.u.f.l.u.:.U.j.9.8XBXmX%XR g z l f + a # n b ",
"B x 7 6 $ O + h 1 G H { lX8Xw.<X}. X XU.U.J.U.T.z.K.U.K.z.f.l.z.x.z.H.u.t.,XMXBX@.E z z f s h o h v ",
"w 7 h v h a h j x 9 [ bX7X_. X X XP.P.L.U.H.K.l.G.x.l.x.H.l.f.r.:.k.z.d.C.|.rXMXCX#.c z l k m # v h ",
"B j m h C O h Z 8 ' sX&X6X|.L.U. X XG.N.b.l.j.u.j.j.l.J.l.l.l.l.h.h.s.z.N.V.,XxXmXVX] 3 Z V @ 4 v v ",
"B b v C C s m g U Q.sX[.S.<XP.U.P.P.G.N.f.G.j.j.J.Z.J.Z.l.G.G.j.h.h.k.H.N.N.|.uXnXnX$XR c 7 i u b m ",
"b m a C n k c 1 } gXyX_.|.<XP. XC.C.G.N.b.u.Z.G.l.Z.Z.j.Z.l.Z.l.h.h.l.G.N.N.`.,X3XyXVX#.0 3 V u v h ",
"h m a n h h 1 U $XzX=XS.2XG.I.L.d.f.N.f.l.N.G.f.u.j.G.G.G.N.Z.j.h.h.j.l.G.N.Z.D.4XtXmXdXU c 5 7 4 6 ",
"m m a O h j * } lX7X,X|.:Xt.I.b.f.f.d.f.g.N.d.y.6.y.H.J.G.f.G.G.k.k.j.G.N.G.l.l.4X4XtXmX .I . 5 j h ",
"n N v X j 0 G %XyX0X<X<X9.b.'.M.G.f.a.s.g.g.p.e.-.e.g.H.G.f.G.J.s.s.l.f.N.G.l.x.T.4X4XmXdXU = b b b ",
"v N v 6 j 1 ' gX5XqX<XH.*.I.`.F.j.s.s.a.d.p.;.;.=.p.d.g.g.l.z.z.z.z.f.f.y.l.k.k.T.4X4XtXNX` < j j j ",
"a m % b x : Q.cXrX,X X2.G.I.m.S.f.s.d.a.;.;.;.=.p.p.p.d.f.H.H.f.H.z.z.d.u.f.k.x.h.T.T.3XmX@.1 2 2 7 ",
"# # D S 3 U dX7X9XkX).1.}.Z.N.L.K.a.r.d.e.=.p.6.6.e.e.i.u.H.G.l.l.l.s.k.l.u.f.x.u.;XaX1X3X3Xc 3 6 6 ",
"h t N M 0 Q yX3X8XeXq.w.'.Z.N.H.H.d.p.e.=.6.e.-.=.e.e.e.y.l.l.j.l.f.k.k.l.l.s.G.Z.].pX1X4X3XR 1 5 7 ",
"h % u y 0 [ mX0X9XwX3.n.;XZ.H.B.H.p.e.=.=.p.s.-.p.e.=.=.r.l.G.l.j.l.s.k.j.j.a.l.S.S.qX1XT.tX' 1 2 < ",
"+ h M 5 0 @.MXuXqX+X<.].|.Z.K.H.H.s.p.=.;.g.g.;.s.p.:.=.p.g.l.f.f.l.s.x.l.j.a.l.S.F.qX1XT.aX@.q 7 6 ",
"X 6 M y c E.MXuXqX].>..X;XZ.K.H.H.g.p.-.6.B.B.=.H.g.p.p.p.l.f.f.f.N.z.z.l.u.f.l.G.v.iX2XY.4XQ.c x b ",
"X 2 M y I $XtX4XqXn.4.8X;XG.P.H.H.f.e.=.;.g.g.6.H.H.g.d.f.l.l.N.N.N.f.z.G.l.s.l.S.v.qX2Xx.Y.$XI w j ",
"+ h b B I fXtX1XqX4.n..X|.J.P.H.U.d.y.y.y.d.d.6.B.P.B.N.N.G.N.N.G.N.f.z.l.u.g.z.L.v.<X2XY.Y.*XI 1 6 ",
"2 h y i U hX3X1XqX>.]..XI.I.J.H.U.N.u.b.d.b.N.7.C.P.P.L.N.N.L.G.G.N.g.l.N.f.f.z.L.b.:X2XT.J.*Xq 1 < ",
"g Z b B U dXtX1X9Xc.]..X|.:XJ.P.L.L.}.}.c.7.M.V.C.b.}.XXXX X}.}.H.N.g.d.f.r.p.l.b.I.T.2Xx.Y.*XY 3 j ",
"l Z 6 7 G dXyX-XqX5.).8X;X;XU.I.}.`.|.XXS.M.m.}.L.@X}.oXXXXXoX XV.N.f.g.f.u.s.l.G.L.|.2Xk.A.~.U x j ",
"l g + = q fXtX1XwX5.).wX'.D.U.I.`.`.}.XX}.S.V.m.M.m.m.m.`.|.}.S.N.N.g.g.f.u.s.l.L.b.T.>Xh.Y.~.U x m ",
"s X % . q fXtX1XwX4.q.eX'.D.;XU.|.`.'.XXoX`.m.c.c.c.c.2.c.}.}.m.N.f.s.g.l.u.a.l.Z.v.>XT.:.Y.~.G x j ",
"f + m 6 q $XxX-XeXq.5.kX[.Y.T.:X:XI.I.|.L.I.L.t.b.N.y.t.y.I. XC.N.d.s.s.l.j.a.l.J.v.;X:Xh.Y.Q.I 0 j ",
"s # N B q E.mX1XeX).3.rX=X=X|.;X:XL.Z.N.b.G.B.y.P.P.N.y.C.P.U.d.N.s.s.s.l.r.a.a.Z.Z.;XT.h.Y.$.G c m ",
"s f # M 8 @.MXaXeX+X3.6X=X0X;X;XU.G.u.e.e.f.g.e.P.H.d.p.d.H.G.f.f.g.s.s.r.r.k.x.Z.F.;XD.h.Y.| 8 V V ",
"k n @ 6 = ' mX0XeX+X1.[.0XiX[.:X<XJ.f.u.y.f.B.;.B.g.a.d.f.z.H.H.B.s.s.f.j.r.r.x.j.J.;XZ.h.Y.{ : c j ",
"Z h # j 1 R cXkXXXqXt.w.pX0X[.8X<XU.G.b.d.d.d.d.d.d.B.d.N.G.G.f.B.B.d.G.j.j.h.k.x.a.<XL.F.5XW G 3 5 ",
"S M n n 2 Y ~.vXwX<XJ.2.qX,XkX8X,XT.I.G.N.N.N.C.B.B.d.p.u.H.H.L.B.B.N.G.v.u.j.k.s.x.T.Z./.R.L ; e 5 ",
"V b b j g q | vXkX X<X9.{.0XxX,X;X<X<XI.L.N.N.B.N.N.d.y.N.H.L.I.G.H.L.f.i.j.x.z.k.T. Xw.5X| F : 3 5 ",
"6 6 b 2 3 1 ! cXtX[.,XY.9.iXuX1X-X:X<X:X|.L.P.L.y.C.B.I.L.P.I.G.G.H.G.u.u.u.G.l.H.:X|.{.&X~ : 0 5 4 ",
"o + 6 2 x 1 G $XlX&X1X1Xw.1X3XuX1X<X,X<X<X XI.L.2.b.U.|.I.I.L.Z.J.G.j.j.u.G.f.d.<X}.]./.R.H 8 w y p ",
"$ 6 7 5 w 8 : } hXyXrX=XY.Y.3XaXiX1X,X<X,XXX|.L.t.L. XI.L.L.D.T.J.l.r.l.G.G.f.C.9Xn.!./.[ : 3 b V V ",
"# v 2 7 B x 1 E $XgX7X].;XD.Y.4XuXiX0X1X,X,X,X|.L.|. XI.S.I.D.I.J.r.u.l.G.N.B.XX}.4.0.+.T 9 5 6 B B ",
"a n < y i V 3 1 } hX/.8X.X>XY.4XiXiXqXqX,X,X,X<X;X:X|.;XI.;XI.Z.x.r.f.K.N.d.oXwX,...) ~ F x 6 6 t 5 ",
"a a 7 6 5 j j 0 G W.bXOX+X@XU.<X0XaXxXqX1X,X<X<X<X;X|.I.Y.I.I.L.l.l.l.d.d.oXXX)./ ) ) L p p u & @ < ",
"a a t y j 2 7 3 5 ! jXjXOX+XI.S.;X=X<XqXpXqX<X|.I.;X:X:X:XI.Z.u.e.f.H.B.oXXXn./ ..) P F   p r r @ @ ",
"$ $ t m b 6 6 j - > { jXkX].,X|.,X'.'.=XqXqXqX<X<X>X:X XI.G.G.G.K.d.d.N.C.c.3...O.! F F e 4 @ o 4 r ",
"& $ # m j 2 2 j e : F o.jXOXOX,X[.'.'.;X'.I.:XqX<X:XI.G.b.y.N.H.B.y.N.L.q.<.3.R.( K   p r 4 @ . 4 6 ",
"& @ @ v b + 2 7 5 * : J | cX&X{._.'.}.}.L.S.Z.L.N.G.G.N.d.d.d.g.B.V.b.2.1.^.~.| K   * p p r r @ 4 % ",
"r @ # v h + < 5 w - 8 - > | sXOX8XXX|.|.|.|.L.N.N.y.y.f.g.B.H.H.V.7.>.4._.&X| T e - 4 r r 4 7 < t t ",
"p r 4 # a h 3 4 5 y . 7 = ; [ R._.|.oXS.L. X XL.P.H.f.f.g.B.d.d.*.&.9.8X^. .K * 3 u & & u # o < u t ",
"p y 6 # h h 7 4 . 4 o X c 8   W X.!.6X.X).}.}.N.V.B.C.P.B.C.*.&.,.!.7X~.Q : : q < 4 & & u y < 5 r % ",
"u y b b 6 6 4 6 o o + 4 < 6 e 8 > K ( (.OXOX@X@X@X@X8.8.&.%.3.!.#XR.~ H 1 1 3 < 5 5 . @ 6 4 4 r r @ ",
"6 5 7 6 6 @ $ + o o # 6 4 4 y 4 * ; F P _ / / %.>.,.,.7.8.5.3...P F ; : < @ 4 4 5 5 = @ t 4 . r - . "
};
