/* XPM */
static char *_1675710732[] = {
/* columns rows colors chars-per-pixel */
"50 50 248 2 ",
"   c #203F00",
".  c #1C4B04",
"X  c #154D02",
"o  c #145403",
"O  c #1C5404",
"+  c #145904",
"@  c #1D5A04",
"#  c #1D5409",
"$  c #1D5B0B",
"%  c #15580C",
"&  c #1D5D12",
"*  c #155C14",
"=  c #0E5200",
"-  c #2C4400",
";  c #234E05",
":  c #2B4B00",
">  c #234E0B",
",  c #264300",
"<  c #334C00",
"1  c #3C4B00",
"2  c #354300",
"3  c #245403",
"4  c #2B5402",
"5  c #235C05",
"6  c #2B5B04",
"7  c #23550B",
"8  c #2B550B",
"9  c #245B0C",
"0  c #2A5C0C",
"q  c #335301",
"w  c #3C5401",
"e  c #335B03",
"r  c #3C5C01",
"t  c #325C0C",
"y  c #32560A",
"u  c #255512",
"i  c #2B5611",
"p  c #245D11",
"a  c #2A5C13",
"s  c #2D5E19",
"d  c #335D12",
"f  c #315817",
"g  c #1E630C",
"h  c #1C6408",
"j  c #1E6313",
"k  c #1F6814",
"l  c #266003",
"z  c #2B6306",
"x  c #24620C",
"c  c #2A630D",
"v  c #25690D",
"b  c #2C680D",
"n  c #276804",
"m  c #32620C",
"M  c #346609",
"N  c #246313",
"B  c #2C6312",
"V  c #226914",
"C  c #2B6A14",
"Z  c #24631A",
"A  c #2B651A",
"S  c #24691A",
"D  c #2B6B1C",
"F  c #316414",
"G  c #326A15",
"H  c #33641A",
"J  c #336B19",
"K  c #386515",
"L  c #217215",
"P  c #215F20",
"I  c #1E6022",
"U  c #2D6D21",
"Y  c #286B28",
"T  c #307121",
"R  c #434D00",
"E  c #494900",
"W  c #445500",
"Q  c #425C00",
"!  c #495900",
"~  c #555C05",
"^  c #655200",
"/  c #446301",
"(  c #4B6706",
")  c #556400",
"_  c #426F13",
"`  c #686C08",
"'  c #657515",
"]  c #777A18",
"[  c #6E720F",
"{  c #7E7220",
"}  c #937310",
"|  c #B67C05",
" . c #BA751C",
".. c #B56912",
"X. c #867724",
"o. c #B77A29",
"O. c #C87919",
"+. c #6F8518",
"@. c #7C8928",
"#. c #898B28",
"$. c #9C8628",
"%. c #979B35",
"&. c #939B2C",
"*. c #A48C21",
"=. c #B9812A",
"-. c #A59424",
";. c #AE9039",
":. c #9FA13E",
">. c #AAA936",
",. c #B4AB36",
"<. c #878B13",
"1. c #CA8416",
"2. c #CE971B",
"3. c #D8961B",
"4. c #D18F17",
"5. c #ED9D1E",
"6. c #E49919",
"7. c #C78627",
"8. c #D38D29",
"9. c #CE9C23",
"0. c #D39B22",
"q. c #DD9E2A",
"w. c #D79726",
"e. c #D99232",
"r. c #EC9E21",
"t. c #E19E26",
"y. c #E49B34",
"u. c #C9A527",
"i. c #DBA129",
"p. c #DAAA3A",
"a. c #DEB537",
"s. c #C2B43A",
"d. c #EDA223",
"f. c #E3A32D",
"g. c #EBA62B",
"h. c #ECAB2C",
"j. c #E6AB26",
"k. c #F1A325",
"l. c #F3AD26",
"z. c #F3A52A",
"x. c #F4AC2C",
"c. c #F9AD2D",
"v. c #F9A629",
"b. c #ECB32B",
"n. c #EDBA2A",
"m. c #E7B225",
"M. c #F4B22C",
"N. c #FAB12E",
"B. c #F3B72C",
"V. c #ECA632",
"C. c #EDAD33",
"Z. c #E5AD3B",
"A. c #ECAC3A",
"S. c #E5A735",
"D. c #F3AD33",
"F. c #F9AD33",
"G. c #F1AD3C",
"H. c #F9AC3B",
"J. c #E4B433",
"K. c #ECB233",
"L. c #EDB33B",
"P. c #E4BB3C",
"I. c #ECBA3C",
"U. c #E4B739",
"Y. c #F4B233",
"T. c #FBB333",
"R. c #FABB34",
"E. c #F4B43B",
"W. c #FBB43A",
"Q. c #F4BA3C",
"!. c #FBBC3C",
"~. c #F2BA35",
"^. c #DDC236",
"/. c #E9C63B",
"(. c #F4C43A",
"). c #F5C439",
"_. c #B99F40",
"`. c #9AAA41",
"'. c #AAA843",
"]. c #ABB649",
"[. c #BAB34F",
"{. c #B7B852",
"}. c #C79D47",
"|. c #C7B749",
" X c #D9B546",
".X c #CEB34F",
"XX c #EDAE44",
"oX c #E3B444",
"OX c #ECB542",
"+X c #ECBB44",
"@X c #ECBE4A",
"#X c #E5B947",
"$X c #F3B542",
"%X c #F3BB44",
"&X c #FCBD42",
"*X c #F5BE4A",
"=X c #FCB948",
"-X c #E6BC53",
";X c #F3B14B",
":X c #B6C850",
">X c #BCC461",
",X c #C9C447",
"<X c #DBC748",
"1X c #C5C45B",
"2X c #D7C958",
"3X c #EEC34B",
"4X c #EBC949",
"5X c #F3C243",
"6X c #FBC344",
"7X c #FBCA45",
"8X c #F4C24B",
"9X c #FCC44D",
"0X c #F3CA4C",
"qX c #FDCC4C",
"wX c #F2CB43",
"eX c #EAD94B",
"rX c #FBDA4D",
"tX c #F5D44A",
"yX c #EDC454",
"uX c #E4C559",
"iX c #E7C758",
"pX c #FDC553",
"aX c #F2CA52",
"sX c #FBCB53",
"dX c #F4C754",
"fX c #E8D757",
"gX c #FCD355",
"hX c #F9DA59",
"jX c #EEE35A",
"kX c #E3E05D",
"lX c #FBE656",
"zX c #F3E24E",
"xX c #CCCC62",
"cX c #CFD166",
"vX c #D8D46A",
"bX c #DAD26D",
"nX c #EDDA6B",
"mX c #E7D466",
"MX c #F3DB69",
"NX c #F5DC65",
"BX c #EAD86E",
"VX c #D9E366",
"CX c #ECE968",
"ZX c #F8E769",
"AX c #FAF267",
"SX c #F2F878",
"DX c #F0F171",
"FX c #F0FB81",
/* pixels */
"L k v v b z 9 9 # Z % j Y % + @ M Q E ^ } O.8.1.w.@XZXZXfX>.` 1 e _ 5 Z I * % g 5 @ 0 F A & h h v c ",
"L v v v b z 9 7 % s & & j N C z q ) #..X-X;XXX;XZ.| u.fXfXDXDX>.( M M A P Y + h @ @ 9 A A $ + v C C ",
"h k L v c c x 7 $ & A & # J J e ( &.2XuX;X;X$XV.A.L.9.u.fXZXZXCX:XM M H u * p N 5 5 0 a a & h v C c ",
"h g C h @ x x $ N & Z 9 9 M e / %..XuX XS.$X=XD.D.&XK.2.u.4XhXCXFX`.( 6 s # J B x c B A a 9 z v x x ",
"$ V v @ o @ x @ N N p 5 y : y { 2XyX#X3X+X$XW.W.c.r.T.D.0.P.ZXhXkXSX%.; _ K B x B B H s s a 6 z x x ",
"x N N @ o @ @ % & N N 4 4 < ' 1XiX3X+X+XI.I.x.k.v.T.v.c.!.S.m.ZXjXCXVX+.q m c 5 N B A A a 9 5 6 c V ",
"B B N 9 @ % h g j x 0 e - ~ '.mXoX%X%XI.5XqX7XR.z.v.v.F.T.i.J.hXAX<XDX1XW ; 6 @ N Z D A a 0 6 5 c V ",
"a p 9 c N g j k V 9 6 r 2 [ bXuXpXOXOXgXhXtX7X7X!.W.F.k.Y.Y.J./.eXlXCXVX@.4 4 O C U U U A c 0 5 c x ",
"F a 0 B V V V V j D e < E |.mXyX+X%XqXhXhX4XwXqX6X&XW.D.h.K.U.P.lXeXzXDX:Xe z 6 j j k U D B 5 5 c V ",
"B B B D C V k N C c e < ` bX-X-X8X9XsXaX4X4X3XwX&X&XW.Y.C.C.J.J.rXlXlXAXVX+.q l & j k V C x 5 9 V C ",
"c F G G V x j V C 6 r 1 %.MX-X3XsXgXgX4X4XtX0X4X%X&X&X%XL.K.J.J./.lXzXjXDX].5 e & & j k N c 0 c x c ",
"m B c N x x j V x t M ~ |.mX#XsXgXgXgXaXaXaX3X+X8X*X%X%XE.J.J.J.(.lXzXzXjXVXM e N N k V V x 0 9 5 9 ",
"B c 9 h 5 x x g @ K w ] bXuX@XqXgX0X0XaXpXOXZ.Z.8X%X%X$X~.E.K.C.5X4XrXeXeXDX[ : d A C C v x p 9 x x ",
"G c l @ g N N c 0 M : `.BXuX@X5XgXyX8X9X=XG.f.y.&X%XI.I.~.Y.M.h.L.4XlXrXeXCX%.- 8 a C C c z 0 a B N ",
"z b b 9 5 V N N B e < >XBXiXU.(.tX0X0X=X=XH.V.V.$X%XQ.~.R.N.c.F.L.8XrXwXeXjX>X1 q t c z 5 5 a i 0 c ",
"9 x b z x x N c m 4 W bXvXaXp.5X8XqX8XE.H.H.$XD.D.E.Q.Q.Y.N.c.F.L.qXqX/.rXfXmX~ w K N x 5 6 a i 9 0 ",
"g x x M C x $ $ 0 q ' BXiXa.p.9X%X6X%XK.D.G.D.Y.Y.Q.~.Y.~.T.x.F.E.+XgX0XrXwXfX+.w m C N 5 0 0 7 7 9 ",
"N v b z b x N p 0 r ] BXyXp.oXpX5X&XE.h.D.D.g.V.C.Q.Q.Y.E.Y.D.Y.E.I.gX0XtXwXeX<.r F U Z 9 3 9 a p 7 ",
"$ g b 5 z C T D 0 r %.BXdXu.oXpX%X!.K.g.D.x.z.g.h.!.!.Y.Y.Y.F.x.Y.L.gXwX(.wXhX&.e B Z N O 3 9 0 7 7 ",
"+ $ l 5 6 D T D 0 r ].BXdX9.+XpX6XQ.h.g.D.T.D.D.g.!.!.Y.x.Y.c.c.Y.E.gX7X(.wXeX>.r B N & 3 3 0 A a 7 ",
"+ $ z 5 5 v B $ 0 r {.nXaX9.@X*X6XE.g.g.D.F.T.W.g.!.!.Y.x.N.x.x.D.K.gXtX)././.:X/ c N N 9 z F G B B ",
"+ $ l z z z N + 0 Q 1XnXyX9.8X%X&XE.h.g.D.F.W.&Xx.~.Y.D.T.x.x.F.b.~.gXqX)./.^.,X/ z $ N c m A F a B ",
"+ @ l n b b g @ 4 M 1XZX4X9.*X%X$XE.C.f.V.D.F.=XE.E.K.K.E.D.z.D.N.b.rX).)./.^.,XQ 6 $ $ z 0 0 c 9 9 ",
"h x b M b z $ @ 3 r cXMXa.0.=X%X$X%XE.V.V.V.W.pXE.L.S.K.E.D.g.E.B.n.7X).).).^.2XQ 6 N N 0 6 5 c 9 9 ",
"S C b b M n $ $ 0 ( cXMXP.9.%X*X$X*X=XS.t.G.A.L.9XpX$XL.$X%XE.Y.h.~.6X6Xn.)./.,X/ m 9 $ 3 5 c D 0 z ",
"D V z 6 l z g @ 8 ( vXMXP.0.%X%X*X*XpX$XS.=XXX$X=XpX8XI.+X%X%XE.M.B.).7Xn.n./.,X( c 9 $ 5 5 0 N B B ",
"S N @ X 3 x V N 6 ( cXMXoX0.%X$XOX;X=X;XXXG.S.L.Z.8X%XZ.L.$X$XY.x.b.).7Xn.m./.,XQ e 9 N c 0 0 9 G C ",
"j 9 @ o O x N $ 3 ( xXMXP.0.%X$XOXOX$X$XG.V.y.f.i.%X%XJ.J.L.L.V.M.b.6X).n.m./.s.w 4 # 9 c m x 0 B B ",
"& N N 6 5 @ $ o 3 Q .XMX+X0.$XE.$XE.E.E.D.g.V.g.i.&X6XK.h.E.K.h.M.M.6X~.n.m./.s.w 4 O 9 F m p N x z ",
"* x C C b 5 $ # 6 < {.BX3Xw.A.$XW.Y.g.z.x.v.F.D.d.~.!.B.K.M.x.x.N.B.7X~.B.m.I.,.W y u p c F B p C G ",
"& $ 7 c c 9 & N 4 2 '.MXdX0.Z.E.Y.T.d.d.k.r.c.l.6.b.N.B.l.M.l.l.N.~.qXJ.B.b./.-.W 8 p N B 0 B B G G ",
"Y & @ 7 5 X O p 8   :.BXdX9.V.E.W.T.5.5.5.5.c.5.6.M.B.M.M.l.l.M.M.B.7Xm.N.b.P.*.w 6 p s F 0 p N N c ",
"U N 9 p 0 9 9 F y : @.bXBXp.w.W.F.v.z.k.r.r.r.k.k.d.z.M.M.l.M.l.l.).R.N.T.D.@X} 4 5 9 u i i 7 N 9 0 ",
"D S B A A 0 0 c 8 4 ' bXnX-Xq.W.D.c.v.g.z.r.r.k.6.r.l.M.M.l.l.B.m.).R.l.W.A.-X] e 9 p u f i @ $ 9 a ",
"A N N F B p 9 0 m q Q cXmX3Xf.z.F.c.x.z.z.r.r.5.6.d.c.N.M.l.M.B.b.).).l.H.;X|.` 4 x 7 7 i 8 # 5 9 7 ",
"$ $ x B p 9 $ p c e w {.mXyXK.g.F.D.x.x.z.r.6.3.z.l.N.N.B.l.x.b.J.5X~.D.OXyX>.! 6 6 # # i 8 7 9 8 0 ",
"@ @ @ 9 9 $ & p N e e %.nX3X%XM.M.h.x.M.l.5.6.3.T.N.N.N.N.B.M.b.Q.wXE.%XoXuX#.< M a u # i a i d d d ",
"@ 5 9 0 9 N p U A 0 r ' vX3X9XR.N.x.x.N.T.l.5.5.T.N.x.x.M.Y.Y.K.9X8XXX=X XxX' 4 e B p $ p a y d H H ",
"5 5 x x N Z Z j N 0 q ! |.iXqX!.!.N.b.M.N.M.l.c.N.N.l.x.x.M.Y.C.sXXXS.}.}.'.( 4 3 0 p p p p 8 y d H ",
"z @ 5 0 N N N & & 5 4 < ].2X0X5X).~.h.h.M.x.N.T.N.N.T.T.Y.D.C.K.pX8.e.o.;.#.4 3 . 8 a A S Z y d 8 7 ",
"l z z 9 7 & Z Z S $ 6 < ) mX4X8X(.Q.K.m.M.M.l.x.z.).x.d.W.b.g.9XXX..o.=.$.' : 4 4 i a p j j 0 8 ; 7 ",
"@ 9 0 c p p & j $ p K 4 ! '.mX X5X5XQ.K.Y.M.l.M.T.x.T.T.g.D.E.G.O.....o.{ 1 y 8 d i p $ & $ 8 > 7 7 ",
"@ @ 9 m F p 9 p % $ J q < [ vXuX+X5X5X6X&XR.D.T.T.k.x.W.g.Y.W.w.O...o.;.~ - d ; i i 8 $ % $ 7 > 7 u ",
"$ O 9 B F 0 7 p p X 9 4 q 1 ].mX X+XI.$X6X!.W.T.T.x.h.V.W.L.i.8.O.o.}.X.R y ; i 8 > 7 9 9 9 7 3 7 p ",
"$ o 3 c m 8 7 9 Z X O 3 q < ' {.uX8XOXZ.$XW.Y.F.c.x.D.D.C.f.0.q.y.}._.~ 4 d ; f 7 7 7 5 0 0 7 # p 7 ",
"& % # 9 0 0 5 0 p # # . 3 y - { uXdXdXU.L.E.D.D.D.d.W.W.3.4.S.S.;X-X] 8 O O s i u 0 7 7 7 7 7 7 p p ",
"& & 9 0 y y 8 6 7 # 7 # : d   R $.p.pX*XOXE.D.D.D.v.V.f.4.q.$XOXoX-./ l + = s u a u 7 7 8 8 7 u p Z ",
"& p 9 9 0 t t 5 7 X # 7 # 8 8   E $.-X-X#XL.G.G.D.&X3.| q.%X#X-X,.E 4 n + % u a # # 7 8 i i 7 7 u u ",
"p N N B 9 9 9 9 O O $ 9 # u a 8 , R [ _.yX;XXX;Xy.O.1.q.%XiX|.#.2 : 3 0 p # O 9 9 7 # O i 7 > u u > ",
"7 0 9 x 7 @ # 5 O O # p # 9 N p . , 2 ^ } o.o.7.e.V.=X=Xp.*.` W : > 7 s a 7 7 7 9 7 > # i u > u > . "
};
