/* XPM */
static char *_1675710732[] = {
/* columns rows colors chars-per-pixel */
"50 50 250 2 ",
"   c #2B3D00",
".  c #1C4A07",
"X  c #165402",
"o  c #1C5403",
"O  c #1C5B05",
"+  c #1D540B",
"@  c #1D5B0A",
"#  c #15580A",
"$  c #1D5B13",
"%  c #185A15",
"&  c #0F550C",
"*  c #2C4500",
"=  c #244C00",
"-  c #2B4E01",
";  c #214D0B",
":  c #234400",
">  c #3B4500",
",  c #334D00",
"<  c #3B4A00",
"1  c #235402",
"2  c #2C5401",
"3  c #255B04",
"4  c #2C5B02",
"5  c #23550B",
"6  c #245B0C",
"7  c #2B5C0C",
"8  c #2B550B",
"9  c #325600",
"0  c #3B5400",
"q  c #335C01",
"w  c #3B5C01",
"e  c #335F0C",
"r  c #35540A",
"t  c #255411",
"y  c #2B5613",
"u  c #245C11",
"i  c #2B5B13",
"p  c #2A5B1A",
"a  c #325A15",
"s  c #1C620B",
"d  c #176206",
"f  c #1D6212",
"g  c #1C611B",
"h  c #2C6105",
"j  c #23620D",
"k  c #2B630C",
"l  c #206107",
"z  c #32630C",
"x  c #386506",
"c  c #256413",
"v  c #2B6412",
"b  c #256A14",
"n  c #2B6A14",
"m  c #2B6B1B",
"M  c #26661A",
"N  c #326313",
"B  c #326B15",
"V  c #386A18",
"C  c #2F711A",
"Z  c #1E6521",
"A  c #2C6A22",
"S  c #484E01",
"D  c #435C00",
"F  c #465400",
"G  c #585A04",
"H  c #66590C",
"J  c #476603",
"K  c #566501",
"L  c #56720A",
"P  c #5B7A12",
"I  c #487707",
"U  c #676904",
"Y  c #677C17",
"T  c #6F7312",
"R  c #967725",
"E  c #A5761A",
"W  c #C17A12",
"Q  c #6B861B",
"!  c #74881D",
"~  c #788D22",
"^  c #7B942C",
"/  c #948311",
"(  c #BA971C",
")  c #B18A13",
"_  c #878B23",
"`  c #849B2C",
"'  c #819D32",
"]  c #94902D",
"[  c #A48823",
"{  c #B29231",
"}  c #8AA639",
"|  c #92AC3C",
" . c #8DB33C",
".. c #A8A23C",
"X. c #B8A632",
"o. c #CA9C1D",
"O. c #D3981D",
"+. c #C6A41E",
"@. c #E6AB1B",
"#. c #EBAB1C",
"$. c #E1A415",
"%. c #F2AD1A",
"&. c #EBB41D",
"*. c #EAB91F",
"=. c #F6B31C",
"-. c #C69825",
";. c #D79927",
":. c #C28E2D",
">. c #CFA82B",
",. c #D6A728",
"<. c #D9B829",
"1. c #C9A83A",
"2. c #CBB837",
"3. c #D4BB38",
"4. c #D5B033",
"5. c #E1AF2D",
"6. c #ECB523",
"7. c #EDBB24",
"8. c #EDBC2B",
"9. c #E4B928",
"0. c #F2B322",
"q. c #F2BD25",
"w. c #F4BD2C",
"e. c #FCBD2C",
"r. c #F6B827",
"t. c #ECBC33",
"y. c #ECBC3A",
"u. c #E6B836",
"i. c #F3BD33",
"p. c #F5BD37",
"a. c #EDAA35",
"s. c #D7C33A",
"d. c #EDC22C",
"f. c #E9C62C",
"g. c #F4C126",
"h. c #FAC325",
"j. c #F4C22C",
"k. c #F9C42D",
"l. c #F1CA2F",
"z. c #EECA34",
"x. c #EDC63B",
"c. c #EDCB3A",
"v. c #E8C535",
"b. c #F4C332",
"n. c #FAC432",
"m. c #F3CB34",
"M. c #FBC834",
"N. c #F4C43B",
"B. c #FBC33C",
"V. c #F3CC3B",
"C. c #FBCB3B",
"Z. c #EBD13D",
"A. c #F5D23B",
"S. c #FCDB3E",
"D. c #FAD53F",
"F. c #97AC42",
"G. c #8EB542",
"H. c #A4B547",
"J. c #B9B74B",
"K. c #B6A748",
"L. c #D6B845",
"P. c #C9B84E",
"I. c #E6BB42",
"U. c #FABE42",
"Y. c #BAC958",
"T. c #ADC24D",
"R. c #BFD569",
"E. c #D8C947",
"W. c #DCD345",
"Q. c #C5C95B",
"!. c #DAC457",
"~. c #DFD653",
"^. c #CACC56",
"/. c #EDC543",
"(. c #EDCB42",
"). c #E3C749",
"_. c #F4C543",
"`. c #F4CC42",
"'. c #FBCC43",
"]. c #F4CD4A",
"[. c #FACD49",
"{. c #FBC445",
"}. c #EDD342",
"|. c #E9D547",
" X c #F4D343",
".X c #FAD343",
"XX c #FBDA44",
"oX c #F4D44B",
"OX c #FAD44B",
"+X c #F4DA4C",
"@X c #FBDB4C",
"#X c #E5CB58",
"$X c #F9CE52",
"%X c #ECDD54",
"&X c #EBDD5A",
"*X c #E7D958",
"=X c #F5D354",
"-X c #F4DD53",
";X c #FBDE52",
":X c #F5DA5B",
">X c #FFE148",
",X c #EDE25C",
"<X c #EDE153",
"1X c #F6E256",
"2X c #FDE354",
"3X c #F4E45B",
"4X c #FBE45B",
"5X c #FCEA5C",
"6X c #FBEA58",
"7X c #FCF35E",
"8X c #ECE54C",
"9X c #C8DA68",
"0X c #D8D963",
"qX c #DBE66B",
"wX c #D7E877",
"eX c #D5EF76",
"rX c #EEE663",
"tX c #E9E768",
"yX c #F3E564",
"uX c #F4EB64",
"iX c #FCED63",
"pX c #F4EC6B",
"aX c #FBEC6B",
"sX c #F7E668",
"dX c #FDF265",
"fX c #F5F36C",
"gX c #FCF36C",
"hX c #FEFB6D",
"jX c #F7F767",
"kX c #E6EB77",
"lX c #F7EE72",
"zX c #EDF274",
"xX c #EAF978",
"cX c #F4F373",
"vX c #FCF574",
"bX c #FDFC72",
"nX c #F4F57B",
"mX c #FDF57A",
"MX c #FCFA7A",
"NX c #F4FB7A",
"BX c #EAF36B",
"VX c #E1D567",
"CX c #D9EC80",
"ZX c #ECFE8A",
"AX c #E8FA83",
"SX c #F5FE84",
"DX c #F4FE8A",
"FX c #F9FF8B",
"GX c #F7FA82",
"HX c #F9FF91",
/* pixels */
"m f l h x h l l $ M g % M 3 . 3 9 w D K _ 1.E.U.,.;.O.o.o.( ) E U G S F D 2 + @ % Z % g m s O k k k ",
"b b b n k h 3 6 @ # Z M @ N I = w L H.CXnXE.( ) u.u.p._.OX=XoX|.!.J._ G 0 w 4 5 & & A A @ l k O n n ",
"f b C k h k 7 @ $ % % n v 2 w P F.kXGXP.[ ( y.$Xy.{.{.{.[.OX+X-XyXsXtXY.~ w 2 z v X % M 6 6 c 6 k c ",
"d b b j O 7 j @ u M 6 7 q 2 P Y.nXVX2.( 4.`.C.9.p.n.n.N.N.V.[.oX%X*XrXcXtXH.P 0 e N 6 6 m u 6 C j j ",
"O c b O o @ 6 @ c c N 1 = ^ 9XkX*X>.+.u.V.b.j.M.M.M.b.C..XXX@X@X6X1X8X*XBXNXQ.~ , J V e i u % A b j ",
"j n c @ X X @ @ 6 k 2 - Q qXNX&X>.6.b.j.M.M.l.g.j.j.z.m.V.`.`.}.A.6X6X1X*XpXcXwX` D 9 N i + u Z n c ",
"c b c @ O O @ u 7 4 2 Q 9XzX~.).8.r.n.M.g.6.9.l.f.z.A.+X;X2X4X2X+XZ.+X6XiX5XpXMXkX! 9 x N u % $ c j ",
"c j $ c c $ c c e = L Y.cXuX|.<.j.k.e.r.g.M.z.z.>X2X7XdXdXiXaXdX6X2X8X-X3XiXaXtXSX9XQ q z C $ % c b ",
"v m j c A c c z x w H.GXrX-X}.v.n.e.b.w.d.z.XX6X6XjXhXgXgXhXvXgXiXiX4X-X3XaXlXaXBXNX9Xx V n f & j b ",
"k m c M m b j z q ` 0XyX%X@XA.d.n.e.b.b.V.XX2X6X5X7XuXjXfXcXlXlXvXhXvXaXsXsXaXaXuXxXeX .x k c $ c n ",
"k c n M m n k q J Q.cX&X@XXXm.d.b.b.b.m.XX;X3X3XuXuXBXcXMXnXcXcXfXvXMXmXaXsXsXpXjXBXxXeXI l c c j j ",
"c c c c j k 4 q ` qX,X+X2XV.8.j.j.b.m.V.@X1X1X<X,XjXfXfXpXpXcXfXcXcXmXMXmXsXsXrXjXBXNXAX .x k 6 6 O ",
"n j c s l h 4 J ^.tX|.2X@Xj.8.j.d.z.V. X+X@X-X1X%X5X3XW.W.<XiXuXNXBXfXcXmXlXrX*XuXjXNXxXeXI . 7 k j ",
"n j b O j h x Q qX<X@X@XM.8.n.d.9.f.A.XXXX+X1X2X2X5X%Xs.3.|.5XhXhXhXjXcXmXvXuX*X8XbXNXBXZXF.: e z c ",
"b c n O k h J H.qX|.2X.X8.b.n.w.9.f.A.S.XXXX@X2X2X+X}.s.v.A.2X6X7XjXhXfXlXvXhX3XW.jXhXxXDXR.D 9 7 k ",
"O j b O k 4 K ^.*X}.@XC.d.M.w.d.g.l.A.D..X.X.X@X`.v.f.z.Z.z.z.A.8XjXbXfXyXgXhXhXW.W.hXBXFXAXY - 7 7 ",
"1 c c f V - ] #X|.}..XN.8.b.b.&.g.M.A.V.'..XOX`.9.v.A.A.z.m.A.A.}.8X5XhXbXgXgXgXrXE.hXNXnXZX} 9 z 8 ",
"3 k M j B 0 ..=X|.Z..XN.t.b.j.*.j.m.M.M.{.OX'.m.z.m.l.l.f.l.m.z.v.|.3XdXhXfXfXhXpXE.yXvXnXDXT.J 4 6 ",
"7 l c s h J J.$XZ.}.V.b.t.b.j.7.j.M.M.m.m.`.`.m.A.A.z.l.l.l.m.v.v.|.-XiXgXfXvXMXhXW.~.cXnXFX9XI 1 5 ",
"3 6 c j 4 L !.].Z.}.C.i.b.j.g.g.k.k.b.b.N.C.'.V.z.V.A.A.A.A.A.c.v.}.-XiXdXfXfXhXvX*XE.fXMXSXAXQ 2 6 ",
"1 O j j 3 Y #X).Z.S.V.w.i.j.q.g.h.h.g.b.b.V.D.V.f.z.A.A.A.A.A..XoX+X1XuXdXfXfXvXvXyXE.pXnXxXDX! 4 i ",
"1 1 j n 3 Q #Xx.Z.S.M.w.n.w.q.h.h.g.j.d.m.'.'..Xz.z.A.A.z.Z.OX2X;X;X4XuXuXfXuXdXiXiX2.yXcXnXFX^ 4 k ",
"1 3 j B 3 ! #Xv.c.S.M.w.n.k.&.h.h.g.g.w.b.N.`.`.A.c.c.c.c.x.oX;X;X;X3X5XuXuXuXdXaXhX3.rXMXzXDX} = 6 ",
"3 h j B 4 ~ #Xu.A.S.M.w.n.h.&.h.l.g.j.b.N.N.`.`.`.x.x.x.`.(.`.OX;X;X-X3X5XuXuXiXdXbX3.&XvXzXSX| 1 6 ",
"z V k B 4 ~ ).y.A.S.l.k.e.j.*.h.*.q.n.B._.y._.[.[.`.x.`././.$X/.OXOX2X4X%X,XuX5X4XhXs.*XMXNXxX| 2 c ",
"V V s k 3 ! E.u.l.S.k.n.e.j.*.q.r.w.b.B.{.U._.].[.OX`.[._./.$X_./.x.+X;X1X3XiXiXiXgXs.*XmXcXAX| 4 k ",
"z v X O = ! ).u.l.>Xk.n.i.j.q.q.k.k.w.B.B._._._._._.`.[.y.y._.I.t.8.`.@X-X3X4X3X5XaX2.*XvXzXSX| 4 v ",
"l h X X = ! ).u.f.XXk.n.w.j.7.q.k.e.w.i.p._.p.x.x.N.N._.p.u.U.y.i.9.x.+X-X1X2X%X4XiX2.3XmXzXHX .2 n ",
"6 j c 6 1 T 3.u.f.S.g.w.7.j.q.d.h.h.j.j.p.b.p.y.t.b.n.C.p.t.U.p.w.6.v..X+X-X2X-X4X3X2.yXvXnXHX^ 1 k ",
"3 j b b 4 L 3.u.f.S.k.w.6.j.d.g.h.k.k.k.w.i.b.p.8.w.w.n.w.r.p.i.w.&.8.`.@X-X-X-X;X=Xs.aXnXSXZX! 4 B ",
"6 6 c c 1 K 2.y.<.S.n.i.8.b.d.g.h.h.h.q.w.b.j.w.&.6.&.q.0.0.e.0.6.@.8.C..X+X-X-X4Xc.E.vXcXSXkXP 4 B ",
"B @ @ s o 0 1.3.<.S.n.n.8.b.7.g.h.h.q.q.w.j.j.7.&.&.#.0.6.%.r.%.=.#.j.'.+XoXoX-X2Xs.).vXzXSXeXL 4 n ",
"V n f O l 0 ] ).y.p.'.k.k.M.7.w.n.k.q.q.n.n.j.n.6.&.#.6.%.%.%.%.%.%.r.p.].=XoX|.-X<.dXdXzXZXY.q 4 8 ",
"V M b b h q ! I.I.p.B.k.g.n.6.w.w.w.n.i.b.j.i.n.6.@.@.#.#.#.#.%.%.=.n.{._.(.oX-X(.s.hXfXzXHXF.- 8 7 ",
"B j c m k 2 G P.L.U.{.n.j.M.d.8.7.q.n.n.k.w.j.n.w.6.#.@.#.#.0.%.=.e.C.B.N./.(.+Xs.+XbXfXAXZXL . 3 8 ",
"6 O s k 3 2 , ..L.I._.'.b.b.d.j.6.w.g.h.i.k.j.j.n.w.6.#.$.0.0.e.h.e.k.n.`.(.(.(.c.7XhXfXFXR.w 9 8 i ",
"X O 6 1 1 e * ! !.L.I.[.'.w.8.j.w.q.q.g.j.b.j.g.w.w.0.@.$.@.r.e.h.h.q.b.N.`.x.v.2XhXdXMXHX' 9 N a N ",
"O l j . 7 z - J H.P.4.{.'.i.8.l.j.g.7.g.j.k.k.j.q.k.w.6.$.6.e.n.r.h.b.b.b.x.x. X7XhXgXSXwXJ 9 e N V ",
"d k j 3 N N 4 w Y K.:.,.U.p.n.j.j.k.h.g.h.j.g.g.j.n.n.w.w.w.p.n.q.g.j.m.x.m.OX2XdXdXnXAXF.9 7 8 N a ",
"d s j 3 N 7 N 2 < ] [ W a.{.B.i.j.k.n.l.h.g.g.j.j.j.n.b.b.n.i.0.j.j.d.d.m. X2XdXdX,XNXeXP 2 N 5 5 8 ",
"d s 7 6 5 6 v e - T R W W U.U.U.n.j.8.j.k.M.h.g.M.j.b.j.b.b.b.t.z.l.d.x.;X;X4XvXjXkXHX} = z 5 i + ; ",
"d d s i 7 i u i r S R E E ;.U.a.w.b.b.b.j.g.j.g.g.w.j.d.w.8.t.d.f.9..X6X;X5XgXrXtXFXH.w = 7 i + 5 5 ",
"# d f n n i 6 i r > H E :.:.;.U.N.B.i.w.w.b.M.j.q.j.M.M.b.x.V.D.A. X@X@X4XiXaXlXFXwXI = e 5 t + t @ ",
"O X O n n 6 6 i y r   H { :.:.I.p.t.i.i.b.b.j.j.l.M.A.C.C..X.X@XXX6X@X;XiXsXVXDXwXQ 2 8 i i . t 5 u ",
"$ o O c b @ 6 6 y r >   T K.!.1.>.5.y.'.B.8.8.j.j.m.b.m. X.XOX@X2X}.6XiX:XpXGXCX^ . 7 y . A a ; t u ",
"y 5 @ @ j O 5 6 y a = . > Y K.!.I.5.5.y.B.C.n.b.d.j.d.m.A..X.X X1X2X1X:XlXnXQ.^ - = 7 % . u y t u u ",
"a y 6 @ s j u 5 + i o X 2 - G K.I.u.,.,.5.b.C.j.j.b.M.V.V.A..X+X(.iX3X&XpXJ.U * = 7 + t p ; : p p u ",
"a y u s j j 6 5 5 X O @ o 4 F   [ L.).4.o.,.u.p.v.N.C.V.`.V.oX=XsX&XtX0X_ S , w 3 + % ; p p ; y t u ",
"i i v v 6 6 6 6 . o @ @ + 6 7 2   K ] P.!.L.1.O.a.a.N.[.].=X:X#XVXK._ K r - 2 1 6 5 1 + y 5 ; y t 5 ",
"6 7 6 7 6 + + O X X 6 @ o 6 u 6 r * > G T { 1.a.:.O.O.O.o.-.( / U F S < - 8 5 + 6 6 1 + y 8 ; 5 . . "
};
