/* XPM */
static char *result[] = {
/* columns rows colors chars-per-pixel */
"50 50 240 2 ",
"   c #51370B",
".  c #6A370D",
"X  c #723C11",
"o  c #553F23",
"O  c #6F2A34",
"+  c #174807",
"@  c #1B4E07",
"#  c #1D4D0A",
"$  c #165306",
"%  c #1C5406",
"&  c #1C5B06",
"*  c #155508",
"=  c #1E540A",
"-  c #1E5B0A",
";  c #1E5810",
":  c #224E0C",
">  c #2A4E0F",
",  c #304A0E",
"<  c #215307",
"1  c #235A06",
"2  c #23540C",
"3  c #29540E",
"4  c #245C0C",
"5  c #295B0E",
"6  c #35580E",
"7  c #255511",
"8  c #2A5311",
"9  c #255B11",
"0  c #2A5C11",
"q  c #335C13",
"w  c #395911",
"e  c #1D6507",
"r  c #1E620A",
"t  c #24630D",
"y  c #29630E",
"u  c #246A0D",
"i  c #2A6A0F",
"p  c #266311",
"a  c #2A6411",
"s  c #266A13",
"d  c #2B6A12",
"f  c #326213",
"g  c #326B13",
"h  c #316D14",
"j  c #376718",
"k  c #4C4710",
"l  c #495713",
"z  c #555716",
"x  c #5B5A1D",
"c  c #774E0F",
"v  c #684616",
"b  c #7B4B1B",
"n  c #655518",
"m  c #755617",
"M  c #456D1C",
"N  c #6C631A",
"B  c #6A4A29",
"V  c #78542A",
"C  c #466C22",
"Z  c #506E25",
"A  c #567527",
"S  c #6C6A23",
"D  c #66782B",
"F  c #76722F",
"G  c #73782B",
"H  c #723250",
"J  c #843C14",
"K  c #964007",
"L  c #884917",
"P  c #8D4C1C",
"I  c #924C14",
"U  c #964D17",
"Y  c #86541C",
"T  c #9B5514",
"R  c #995419",
"E  c #9B5A1C",
"W  c #A45A18",
"Q  c #8F681D",
"!  c #A5621C",
"~  c #AA641A",
"^  c #AD691D",
"/  c #B3691B",
"(  c #855422",
")  c #8C5424",
"_  c #8F512A",
"`  c #935725",
"'  c #955A23",
"]  c #995E24",
"[  c #A05A26",
"{  c #896728",
"}  c #9C6225",
"|  c #9D632B",
" . c #91792B",
".. c #9C6934",
"X. c #9C7438",
"o. c #A36423",
"O. c #A76927",
"+. c #AD6D23",
"@. c #A36C2C",
"#. c #BA6B20",
"$. c #AC732B",
"%. c #AB722C",
"&. c #B47325",
"*. c #BB7624",
"=. c #B1762B",
"-. c #B37A2D",
";. c #BB7C2C",
":. c #A26C33",
">. c #A26E3A",
",. c #AA7532",
"<. c #AD7933",
"1. c #A57639",
"2. c #A4733C",
"3. c #AC7D3B",
"4. c #B37C32",
"5. c #B57C37",
"6. c #C17B26",
"7. c #8F504A",
"8. c #9A7A46",
"9. c #916D52",
"0. c #AA7B45",
"q. c #A3774A",
"w. c #A87A48",
"e. c #A6715A",
"r. c #8C466D",
"t. c #8B7A73",
"y. c #678336",
"u. c #758037",
"i. c #7C8B48",
"p. c #888539",
"a. c #958537",
"s. c #BA812F",
"d. c #AA8339",
"f. c #BC8334",
"g. c #B68338",
"h. c #B4833B",
"j. c #BB853A",
"k. c #BB8A3C",
"l. c #C2842E",
"z. c #C38837",
"x. c #C28C3C",
"c. c #C8933F",
"v. c #8C8B45",
"b. c #968F4D",
"n. c #89914C",
"m. c #A88647",
"M. c #AC844C",
"N. c #B18541",
"B. c #B58944",
"V. c #BC8D45",
"C. c #B78549",
"Z. c #B38B4B",
"A. c #BC8D4B",
"S. c #A5914A",
"D. c #B7914D",
"F. c #BC924C",
"G. c #AB8658",
"H. c #B28C51",
"J. c #B78B57",
"K. c #AA9A59",
"L. c #B59254",
"P. c #BC9452",
"I. c #BE9A55",
"U. c #BA9A5B",
"Y. c #BAA15D",
"T. c #AB8E6E",
"R. c #B58D64",
"E. c #B79767",
"W. c #B89875",
"Q. c #BCA264",
"!. c #C08C47",
"~. c #C49244",
"^. c #CA9344",
"/. c #CA9847",
"(. c #C4944A",
"). c #C5984D",
"_. c #CA9B4C",
"`. c #C29653",
"'. c #CB9451",
"]. c #C59A54",
"[. c #CA9D53",
"{. c #C39C5B",
"}. c #C7985C",
"|. c #C5A35E",
" X c #CCA35C",
".X c #D4A75A",
"XX c #C49C61",
"oX c #C59F68",
"OX c #C5A362",
"+X c #CAA463",
"@X c #C4A36A",
"#X c #CCA869",
"$X c #CCAB6D",
"%X c #D2AB64",
"&X c #D4AB68",
"*X c #D7B169",
"=X c #C5A674",
"-X c #C9A672",
";X c #C6AA73",
":X c #CBAA76",
">X c #CBAD7C",
",X c #D2AE72",
"<X c #CBB178",
"1X c #D4B473",
"2X c #D3B47C",
"3X c #DAB879",
"4X c #E0BC79",
"5X c #A76F91",
"6X c #A59A97",
"7X c #B4A79C",
"8X c #B1A6A5",
"9X c #BAB1AE",
"0X c #BDB6B4",
"qX c #C8A880",
"wX c #CEB185",
"eX c #CBB984",
"rX c #CEB489",
"tX c #D2B483",
"yX c #D6B989",
"uX c #C7B498",
"iX c #D3BA93",
"pX c #D3BC9B",
"aX c #CABBAC",
"sX c #D2BFA1",
"dX c #C2BBB9",
"fX c #D8C197",
"gX c #DAC29A",
"hX c #E3C388",
"jX c #D7C4A9",
"kX c #CCC2B6",
"lX c #D7C8B4",
"zX c #CAC5C3",
"xX c #CAC6C6",
"cX c #CECBCB",
"vX c #D1CCC9",
"bX c #DAD2C7",
"nX c #D1CFD1",
"mX c #D4D2D4",
"MX c #D7D7DD",
"NX c #DADBE1",
/* pixels */
"d p e e s u e & 4 9 ; p r - = = 4 d a 5 < = - y y y u d u * * e u p a p y 4 % - * - p p y r - t p y ",
"s u u u u u e & ; - t 4 r p u y a s y g M A F v.m.S.S.S.v.u.A j h u d p u 4 1 - % 4 - u t 4 4 t y p ",
"t i i u e e e * - 4 - t p p s i u j G v.Z.P.P.F.F.P.I.]. X|.#XY.n.y.d e 4 - r i - $ 4 u t 4 4 y y p ",
"% t i e e e e r p a S X. .D p g G M.J.J.M.Z.Z.Z.D.D.D.I.U.Y.Y.OX#X#XK.A - q  .d.a.C 4 p 5 5 y y y 4 ",
"9 y u & - % % 9 r S `.W.e._ S b.R.R.J.H.M.C.Z.Z.Z.D.D.I.P.{.Y.|.|.@X$X<Xv.d.yXyX Xk.C p a p 4 p u 4 ",
"a p e & - * = 4 4 d.aX9Xt.V 0.W.T.J.H.M.N.m.N.N.B.H.L.F.P.I.{.|.Q.#X;X;X,X2XkXkXuX'.G 9 a ; 4 p y u ",
"y t t % - - = - 1 G.cX6X9.w.E.R.R.G.M.m.N.N.N.N.B.D.D.F.F.I.I.|.OX@X;X>X>X2XtXuX7X}.F ; a 9 9 4 t e ",
"5 a a 4 t r p s p e.8X9.w.R.T.G.M.M.N.3.3.3.h.N.B.B.D.P.P.I.{.{.OX=X;X>XeXrXyX2XW.C.G s f p 9 - e u ",
"y a 0 p s y t a s F ..q.R.T.G.0.3.3.0.3.4.3.d.N.h.B.V.F.I.I.{.XXoX=X>XrXiXsXpXpX@X0.A s d a 4 = t i ",
"d a p d d a p a s l | e.G.G.w.2.1.1.,.3.3.3.h.h.h.B.V.V.P.U.{.@X-X:XwXrXsXjXlXsXfXK.j s d u 4 1 4 g ",
"p a d a s p p u t S w.G.w.w.1.1.,.,.,.$.3.3.4.h.h.k.V.F.F.}.E.@X-X:XwXiXsXjXlXlXsXeXC p a p y t 5 y ",
"u u p p t 9 p 9 q X.q.q.q.2.:.%.@.@.%.<.<.3.3.g.h.k.V.D.`.U.XX@X-XqXwXiXpXsXlXlXjXgXn.t p p p 9 4 4 ",
"u u t 9 9 p p - S 2.q...>.>.@.@.@.%.$.<.$.4.d.d.g.k.V.~.P.`.{.@X-X>XwXiXpXsXjXjXlXgX<Xj u t 4 4 4 5 ",
"d u 4 % ; p i 4 { :.X.....:...@.@.$.,.$.$.4.s.h.h.h.V.F.F.].}.+X-X>XwXrXiXpXgXjXjXfXfXy.t a % 2 5 i ",
"p p y r - t t y { | ..| | | | | @.%.%.%.=.4.-.4.k.k.V.D.(.].{.OX@X:X>XwXrXiXiXfXfXfXhXi.* 0 y 4 t t ",
"- t y u u y t y ' | | | | ] ] o.X.O.$.$.=.<.s.<.>.e.C.x.V.).].}.OX$X:X>X2XtXeXfXyXhXhXn.= 3 4 4 1 t ",
"- 4 y u u y 4 6 ' ] ] ] ] E } | E | $.=.-.-.$.V H r.5X'.!.).'.{.U.E.@X:X1X2X2XyX3X2XhXn.= 0 2 3 5 4 ",
"t t u a y y t f { ' ' ' ' ) V b b ( %.=.=.-.O.O H r.5XR.!.~.)._.m.8.M.G.K.;X1X3X3X3XhXn.* 4 5 y 5 < ",
"r t t 4 0 a d h Y ` ' E ) ( Y L m Y %.$.=.=.$.P O 7.e.!.(.F./.(.0.X.8.L.L.K.:X*X3X1X4Xi.$ < % 4 4 % ",
"- - p 4 t d h i m U ` ' ' P b L ) Y O.=.<.4.-.l.( O ^.!.~.).).A.X.1.m.8.L.&X&X,X1X1X4Xy.$ 2 4 y t 2 ",
"= 4 4 t u u y r n U P ] ` b R Y Y o.+.&.<.4.<.B o o B w.(.(.).!.V.m.a.[.D.U.*X$X<X1X1XC & p i g y a ",
"# 2 t t y i t $ w ) Y U R E Y Y ^ +.+.<.=.;.%.) 4.j. .1./.~.(.]./._.F.8. X%X%X&X1X1XK.r t a g y y y ",
"< 4 4 y y y t % * n P I T ` Y ! ! ^ <.+.-.C.;.z.z.k.^.^.~.~././.).)._.I.L.%X&X,X*X1XA & y y 5 5 2 4 ",
"4 4 y g i t - 1 - w P L I U ! ! ! +.^ g.F.A.V.;.f.f.j.x.~./.~././._.[..X X X&X&X3XS.y t 4 4 5 0 4 2 ",
"d y u d d t - $ 4 i x ) I I T o.O.O.+.J.-.=.C.`.~.`.`.`.XXXX X+X~./._.{. X X+X&XY.j 4 1 < < 5 g f 5 ",
"g d y & 1 t t t y y t n ` T T W o.~ ^ }.&.&.`.}.XXXX}.-X}.XX$X@Xx.c./.].)._.%XU.M r 4 4 1 t y y a y ",
"u t & $ % t y t t y 0 5 z ` [ E W o.W 6.C.5.B.!.C.j.A.(.!.x.}.`.x.~.!.~.].+XS.M u 4 - 4 t t 4 1 y i ",
"t & & @ & r t % 4 a 4 4 t j m [ ~ W ^ o.+.+./ &.*.;.;.;.f.l.l.l.j.z.^.^.V.G 0 2 4 * 2 t y 5 3 5 y y ",
"- 4 t t - & & $ - 4 4 2 3 5 2 l b E W +./ / #.*.;.6.0.6.z.z.z.z.c.c.s.F f = < 5 2 < 2 5 a 0 a g d 5 ",
"- 4 p p t t t % 2 4 a 4 3 3 4 - - 6 z c P W W W / #.6.6.6.6.l.;.F l 8 p a 0 8 4 5 4 2 a f q 0 5 y g ",
"t 4 t u t - - t 2 2 0 4 2 3 4 4 2 0 , . J U U T W W *.;.6.!.(.V. .7 ; j j g 0 0 0 a 7 0 q q 5 t y g ",
"a t - - % < % & - # : < 4 0 0 4 4 z J W W W W :.0.R.W.=X=X-XtX>X:XE.C ; f d a 0 0 0 2 5 0 q 6 t y y ",
"d y 4 r r 4 4 4 4 1 # = 7 0 0 0 n | :.$.[ W q.8X0XxXnXnXbXyXtX}.XX:X@XZ 9 0 9 9 9 7 < 4 0 0 2 5 4 1 ",
"h d y i t t y t y 4 2 = 7 8 7 S q.%.;.=.U ..8X0X0XzXnXnXNXbX2Xc.l.`.=X@XC ; p a 0 4 4 2 9 3 < 3 5 2 ",
"d y u s y 4 4 a y 4 4 2 7 7 x q.,.f.;.J J T.0X0XdXdXxXmXmXNXjXz.T ;.`.qXE.j 4 g 0 1 4 2 3 3 < 3 3 5 ",
"< 4 - 4 t - < 4 a 4 2 2 ; w ..:.5.!.Q   _ 6X9X0XdXxXcXnXMXMXbX[.c ~ j.E.tXn.% d 0 2 2 = 2 3 4 5 6 8 ",
"& - - = - 4 % y p a p p = x | ,.~.f.l   _ 7X0X0XdXcXcXcXmXMXbX.XN m / x.#XQ.f 2 0 a 8 2 5 5 5 q q q ",
"- 4 t 4 9 4 4 a y 5 p 9 ; z W ;.z.S 3 . _ 8X0X0XzXxXvXcXvXMXlX.XG 5 E 6..XY.j = 0 0 9 2 5 5 5 5 f j ",
"% t p 9 p a a t y 4 - 9 p 0 z Y n a 5 X ) e.0XzXxXcXcXcXmXvXrX%Xp.& w m  .Z 9 2 2 2 5 0 5 5 5 5 0 f ",
"p - - 4 p a 4 t 4 1 4 4 ; 4 % 4 0 a 3 v ) | H.uXaXaXaXaXuX,X=X&Xp.t t 4 < 7 0 # # 2 0 0 d 0 5 0 0 2 ",
"t t r r t 9 9 t 4 4 4 2 = 2 4 0 9 9 2 b ) o.-./.].z.O.%.s.{.$X*Xp.* 9 0 9 7 7 2 2 0 0 4 0 0 3 3 : < ",
"- & r t 4 9 9 a 9 4 t - 9 7 0 8 7 7 4 v P E g.}././ K T h.|.%X*Xv.$ 4 4 7 2 9 9 y 0 0 7 2 0 2 > 7 7 ",
"- % 4 d y 4 4 5 2 7 a p 0 0 > # 2 4 4 v P ] -.}.~.n . E -.[.%X*XG + % 4 2 2 2 = 4 , 8 3 4 2 % 2 7 ; ",
"* = 2 p u 4 3 3 4 2 2 2 7 7 7 : 7 a 1 k P ! -.[.~.w   U s.[. X*Xy.- 4 - 4 4 < 4 7 : : 5 4 4 : = = 9 ",
"2 < 7 p y 4 > 5 4 2 : # 7 7 9 9 9 q ; k P T =._.~.w   U f.[.%X%XZ - 5 4 4 2 2 5 3 2 < 2 4 5 7 2 2 9 ",
"4 2 2 9 0 5 2 0 4 2 : = 2 9 4 - 7 q : , L E =._.~.6 k R f.[.%X|.y 1 5 3 : 2 8 4 4 4 8 2 2 3 8 2 4 p ",
"t = = 8 0 5 2 4 4 2 2 : = = + $ = > 8 8 v T =.).~.6   U g./.*Xb.+ 7 q 5 # : 1 t & < 3 8 2 : 2 2 2 9 ",
"p 4 4 3 y y 1 1 * % 2 % = 4 % @ # # 7 : k W &.^.m.+ , I *.^..XC = 8 9 5 7 2 1 1 & % < > 0 9 2 7 7 7 ",
"4 t 4 0 4 4 4 & % @ % % 1 4 4 = # @ : : 2 x o. .C + : z E d.D & 9 ; 7 9 9 7 < 2 4 & < > 5 4 : > 7 2 ",
"- 4 9 4 2 2 % & @ % 4 & % % u 9 : : # < < = 5 4 & < < 4 2 5 & 1 # # 2 9 = 2 : 2 9 4 % < 2 2 : > > + "
};
